<svg xmlns="http://www.w3.org/2000/svg" xmlns:xlink="http://www.w3.org/1999/xlink" width="29" height="42" viewBox="0 0 29 42"><defs><path id="a" d="M0 .034h28.995V42H0z"/></defs><g fill="none" fill-rule="evenodd" opacity=".402"><mask id="b" fill="#fff"><use xlink:href="#a"/></mask><path fill="#231F20" d="M28.668 14.635c0 .184.004.367-.002.55-.023.902-.05 1.802-.073 2.704-.005.2.004.4.002.599-.006.575-.032 1.151-.016 1.726.015.519-.032 1.033-.057 1.55-.002.04.06 1.39-.35 3.017a26.3 26.3 0 00-.17.627c-.043.16-.08.323-.124.484-.064.233-.134.464-.197.697-.182.676-.345 1.358-.607 2.01-.134.332-.26.668-.392 1.001a8.108 8.108 0 01-.678 1.365c-.438.69-.88 1.376-1.375 2.028a46.232 46.232 0 01-1.642 2.048c-.152.177-.288.367-.43.553-.03.04-.07.086-.07.129 0 .107-.07.165-.134.23l-.474.48c-.041.04-.083.083-.129.118-.258.196-.518.39-.775.587-.066.05-.126.108-.189.163-.063.055-.122.115-.19.163-.209.15-.363.369-.604.478-.021.01-.036.034-.054.051-.25.246-.521.469-.809.665-.469.319-.938.633-1.386.982-.131.102-.275.187-.414.28-.654.432-1.353.786-2.041 1.158-.297.16-.303.166-.6.012a59.554 59.554 0 01-1.518-.816c-.254-.141-.498-.303-.742-.462-.628-.409-1.197-.902-1.825-1.312-.22-.144-.412-.335-.615-.505-.145-.122-.286-.25-.432-.374-.394-.335-.774-.684-1.197-.983-.115-.081-1.085-1.185-1.15-1.267-.502-.634-1.01-1.262-1.506-1.902-.577-.745-1.133-1.505-1.616-2.317-.315-.53-.642-1.054-.857-1.637-.245-.664-.484-1.331-.724-1.998-.025-.07-.038-.145-.055-.218-.032-.13-.058-.26-.096-.388-.197-.655-.394-1.31-.523-1.983-.02-.105-.05-.21-.084-.313a2.139 2.139 0 01-.107-.462 10.342 10.342 0 00-.068-.52c-.065-.42-.133-.84-.131-1.268 0-.067-.01-.133-.017-.2-.027-.274-.036-2.433-.036-2.834 0-.834-.01-1.668-.015-2.503-.001-.167.01-.334.003-.5-.046-1.127-.031-2.253-.022-3.38.005-.509.025-1.018.041-1.526.008-.25.022-.5-.02-.75-.012-.072.004-.149.008-.223.007-.108.041-.224.016-.323-.045-.174-.047-.346-.05-.52-.002-.052-.081-.492-.022-.552a.466.466 0 01-.019-.268c.022-.097.029-.197.04-.295.023-.208.027-.419.071-.62.07-.317.141-.635.308-.92.024-.042.154-.276.232-.333.14-.102.292-.19.443-.276a.35.35 0 01.168-.038c.065.001.303-.067.388-.051.008.001.252-.05.364-.079.249-.065.493-.141.75-.178.37-.052.738-.124 1.106-.188.025-.005.052-.005.073-.016a.49.49 0 01.325-.071c.063.01.136-.053.207-.073.069-.02.147-.016.212-.042.169-.07.336-.14.494-.238.176-.11.367-.195.552-.29a.291.291 0 01.117-.037.713.713 0 00.307-.098c.422-.216.844-.434 1.264-.654.23-.12.454-.245.645-.424.066-.062.146-.11.22-.164.603-.432 1.21-.858 1.783-1.33.309-.253.626-.497.94-.744.031-.024.061-.06.115-.029-.002.02.003.05-.01.063-.048.046-.099.09-.152.128-.235.172-.473.342-.709.514-.059.043-.131.075-.148.16.03.082.094.09.16.062a.829.829 0 00.173-.1c.297-.214.591-.433.889-.646.128-.092.26-.18.395-.261.214-.128.433-.25.65-.372.072-.04.143-.09.222-.112.192-.054.386-.104.589-.096.382.016.766.017 1.146.056.34.035.67.126.96.327.089.061.182.119.28.164.265.125.507.286.738.465.138.107.27.223.41.328.152.116.307.228.467.332.044.029.109.03.165.033.04.002.07-.065.046-.095a.652.652 0 00-.105-.104c-.133-.1-.27-.196-.402-.297-.051-.038-.114-.07-.124-.165.037.01.071.012.094.029.1.075.198.152.294.231.636.527 1.273 1.05 1.954 1.517.027.02.052.042.079.063.008.024.022.047.023.071.003.102.054.169.138.222.162.102.314.22.48.314.363.204.734.388 1.066.644.204.156.426.29.643.428.09.058.19.104.287.15.629.292 1.303.448 1.963.646.111.033.223.072.337.087.431.057 1.778.427 2.048.409.091-.006.183-.003.275.002.37.017.607.248.622.615.006.168.24 1.525.244 1.7.009.291.012.583.001.875a4.82 4.82 0 00.03.723c.01.074.018.152.007.224-.037.233-.027.466-.02.7.013.383.03.767.032 1.15.005.618 0 1.236-.002 1.853m.314-.97a55.38 55.38 0 00-.018-3.104c-.009-.234.003-.467.011-.7.005-.149-.149-2.04-.132-2.717.008-.291-.075-.558-.18-.824a.394.394 0 00-.332-.263c-.238-.038-1.302-.201-1.578-.268-.129-.032-.248-.06-.389-.028-.114.026-.246-.018-.369-.037-.92-.138-1.786-.455-2.643-.806a11.399 11.399 0 01-2.325-1.304 42.19 42.19 0 01-2.863-2.262A6.714 6.714 0 0016.568.336 2.284 2.284 0 0015.9.141c-.223-.028-.446-.057-.67-.082-.739-.081-1.44.03-2.098.397-.417.232-.805.5-1.174.803a98.99 98.99 0 01-1.795 1.437c-.163.127-.348.227-.524.338-.057.035-.118.063-.175.098-.846.526-1.758.91-2.703 1.214-.88.283-1.768.534-2.677.709-.073.014-.15.027-.215.06a.916.916 0 01-.411.087c-.445.01-1.175.118-1.594.261-.118.04-.24.074-.354.122-.23.097-.46.192-.682.305-.643.74-.772 1.85-.771 1.943l.01 1.603c0 .057.009.115.013.173.01.116.03.233.028.349-.012.533-.035 1.067-.047 1.601-.009.418-.007.835-.01 1.252-.008 1.36-.006 2.721-.027 4.081-.02 1.344-.036 2.688-.013 4.032.003.167.03.332.037.498.009.2 0 .4.013.6.038.558.074 1.115.126 1.672.044.456.102.912.166 1.366.123.868.305 1.723.618 2.547.21.553.675 1.37.884 1.925.047.124.098.248.154.369.078.166.406.836.44.903.443.882 1.008 1.69 1.565 2.5.51.743 1.075 1.446 1.69 2.106a81.73 81.73 0 001.465 1.539 26.38 26.38 0 002.54 2.259c.418.33.849.644 1.272.968.178.137.352.28.526.422.448.362.918.691 1.425.967.533.292 1.857.537 2.236.392.185-.093 1.039-.717 1.584-1.054a28.43 28.43 0 003.026-2.166 28.333 28.333 0 002.113-1.874c.915-.912 1.819-1.835 2.617-2.856.89-1.14 1.704-2.327 2.366-3.616.202-.393.384-.796.542-1.209.2-.522.396-1.045.592-1.568.264-.706.425-1.439.538-2.182.086-.561.172-1.123.23-1.687.062-.589.091-1.181.135-1.772-.033-1.127.06-2.252.042-3.38-.002-.115.022-.23.03-.346.006-.092.01-.183.008-.275a89.277 89.277 0 01-.01-4.307" mask="url(#b)"/><path fill="#231F20" d="M8.644 33.322c.05.003.092.07.09.15-.001.12-.048.197-.121.2-.077 0-.15-.085-.148-.172.002-.095.09-.183.179-.178M8 33.548l.29.384c.108.027.174.048.242.06.438.07.515-.315.445-.664a.77.77 0 00-.112-.247c-.043-.07-.114-.097-.182-.072a6.547 6.547 0 00-.43.182c-.034.016-.062.053-.103.089l.02.474c-.079-.094-.128-.146-.17-.206M3.342 12.457a.942.942 0 01.107-.136c.017-.02.049-.025.068-.033.12-.003.228.168.186.28-.059.16-.213.181-.34.048-.043-.046-.06-.1-.021-.159m.24.541c.255-.017.43-.155.417-.464.01-.224-.08-.39-.274-.485-.19-.094-.395-.05-.552.118a.783.783 0 00-.12.168.377.377 0 00.045.446c.127.156.291.23.484.217m-.016 7.393c.084.003.154.096.119.159-.05.088-.164.123-.269.078-.025-.01-.041-.037-.056-.052-.002-.087.115-.187.206-.185m-.375.462c.094.035.176.098.26.147.124-.062.213-.11.304-.153.244-.114.32-.36.163-.559-.076-.096-.164-.186-.254-.288l-.167.078-.186-.076c-.08.12-.159.226-.223.339a.699.699 0 00-.074.208c-.027.137-.036.227.177.304m.11-5.258c-.04-.068-.008-.132.042-.174.047-.04.11-.059.14-.073.115-.003.203.047.219.104.016.056-.034.139-.114.18a.427.427 0 01-.121.04.155.155 0 01-.166-.077m.391.358a.335.335 0 00.148-.12c.051-.082.087-.177.121-.27.067-.18.056-.274-.098-.373-.199-.13-.41-.251-.667-.156-.049.018-.105.016-.185.028-.003.292-.054.558.094.798.183.134.377.185.587.093m17.77 18.729a.161.161 0 01-.147-.187c.008-.054.061-.101.085-.138.139-.007.245.076.245.167 0 .086-.088.163-.183.158m.038-.68c-.063.027-.131.043-.199.06-.135.034-.211.127-.26.247-.009.02-.014.043-.02.065-.066.262.018.552.315.613.315.065.607-.117.664-.427-.007-.378-.443-.583-.5-.558M3.577 24.336c.054.01.11.093.11.16-.002.104-.083.18-.175.165-.084-.014-.16-.09-.156-.156.007-.096.127-.187.22-.169m-.107.662a.547.547 0 00.101-.001c.268-.023.38-.124.423-.38a.557.557 0 00-.28-.569c-.324-.158-.713.095-.713.464 0 .234.218.46.469.486m23.174-.498c.005.074-.066.148-.152.16a.167.167 0 01-.187-.157.158.158 0 01.146-.163c.095-.002.186.073.193.16m-.387-.438c-.186.093-.278.312-.251.555.024.216.118.323.32.362.057.01.114.016.151.021a.506.506 0 00.412-.19.493.493 0 00-.053-.682.505.505 0 00-.58-.066M10.566 3.29c.063-.008.13.057.13.124-.003.14-.128.27-.253.266-.08-.003-.16-.093-.14-.16a.345.345 0 01.263-.23m-.34.629c.152.1.317.113.468.007.17-.118.32-.263.305-.509-.018-.308-.306-.502-.572-.38-.11.05-.213.122-.312.197-.087.064-.12.165-.115.278a.48.48 0 00.226.407m3.113-.501c.046-.082.127-.125.248-.132.027.02.088.041.11.084a.215.215 0 01-.003.16.24.24 0 01-.212.145c-.073.004-.138-.027-.16-.098a.228.228 0 01.017-.159m.054.574c.238.052.523-.15.588-.41.01-.046.015-.092.019-.118a.449.449 0 00-.594-.438.758.758 0 00-.277.187.408.408 0 00-.1.448.495.495 0 00.364.33m3.91-.622a.185.185 0 01.04-.055c.064-.055.144-.058.22-.006.077.052.14.116.14.217-.005.016-.007.028-.012.039a.196.196 0 01-.26.092c-.11-.057-.173-.197-.128-.287m.224.63c.273.02.539-.33.458-.606-.09-.31-.465-.483-.746-.345a.423.423 0 00-.239.395.6.6 0 00.527.556m2.893.291c.098 0 .162.064.22.135.046.058.072.133.017.188a.241.241 0 01-.17.069c-.113-.011-.192-.116-.207-.237-.01-.083.06-.16.14-.154m-.016.687c.174.063.374-.012.502-.186.14-.192.126-.42-.054-.569a1.438 1.438 0 00-.348-.203c-.196-.084-.519.102-.503.408a.587.587 0 00.403.55M4.616 29.38c.03.01.056.079.064.125.004.027-.025.072-.05.093-.098.083-.197.058-.261-.063-.011-.02-.011-.05-.017-.081.02-.027.04-.076.067-.08a.422.422 0 01.197.007m-.591-.302l-.024.504a.311.311 0 00.15.293.76.76 0 00.536.115c.16-.022.274-.16.303-.338.06-.362-.169-.674-.487-.652-.149.01-.297.047-.478.078M24.422 7.234c.137.007.29.158.274.268-.013.084-.127.174-.231.182-.11.008-.193-.098-.194-.247-.001-.118.065-.208.151-.203m-.402.438c.058.22.246.35.474.325a.58.58 0 00.503-.477.49.49 0 00-.324-.51c-.05-.016-.109-.01-.163-.005-.11.009-.219.023-.362.039-.15.15-.16.348-.14.554a.39.39 0 00.012.074M9.585 5.33c.056.01.126.107.12.164-.014.11-.152.209-.264.172-.045-.014-.079-.073-.104-.098.013-.15.141-.259.248-.238m-.03.661c.221-.037.419-.211.442-.414a.545.545 0 00-.047-.287c-.08-.163-.229-.24-.389-.285a.184.184 0 00-.102.006.74.74 0 00-.405.332c-.029.05-.034.117-.054.192.024.073.04.161.08.233.108.193.274.257.476.223m1.933 32.654c-.076.002-.13-.056-.137-.145-.005-.087.051-.165.118-.163.083.003.165.087.164.17 0 .071-.07.136-.145.138m.025-.645c-.277.004-.443.123-.493.35-.045.206-.025.4.135.545.142.129.42.141.575.025a.883.883 0 00.136-.13c.243-.282.14-.679-.202-.77-.058-.015-.119-.016-.15-.02M6.308 7.538c.036-.13.212-.246.319-.2.036.016.074.06.09.102a.283.283 0 01-.075.308c-.072.062-.148.048-.215-.005-.05-.04-.089-.1-.12-.135 0-.044-.003-.058 0-.07M6.33 8c.066.004.133-.006.2-.01l-.001-.008c.055 0 .11.004.166 0 .18-.013.264-.089.294-.291a.99.99 0 00-.001-.306c-.047-.266-.234-.412-.466-.38a.61.61 0 00-.382.212.547.547 0 00-.138.418c.017.204.152.356.328.365m13.987-1.582c.029-.047.078-.08.128-.13.079.05.15.085.21.138.027.026.04.088.038.133-.004.057-.11.136-.157.12a.679.679 0 01-.183-.097c-.05-.036-.074-.104-.036-.164m.211.582a.471.471 0 00.448-.307.526.526 0 00-.153-.545c-.255-.221-.554-.192-.734.072a.444.444 0 00.042.583.623.623 0 00.397.197m7.454 4.133c.06-.096.06-.096.027-.266-.055.084-.044.168-.027.266m-24.971-.137c.001-.004-.008-.012-.013-.018l-.01.021.006.023c.006-.009.014-.016.017-.026m-1.037.017l.04.014c.004-.012.016-.03.011-.036-.007-.01-.024-.013-.037-.018l-.014.04m1.02 14.994l.012-.002-.008-.012zm-.004 2.002c.006 0 .015.004.017.002.004-.005.004-.013.006-.019-.009 0-.017-.002-.026-.004l.003.02m17.005-13.829c.068-.165.062-.237-.019-.358a.63.63 0 00.019.358m4.017 2.825c-.002-.005-.004-.013-.006-.013-.006 0-.012.003-.018.005.002.004.004.013.006.013.006 0 .012-.003.018-.005M14.608 3a.64.64 0 00.278-.098c.106-.065.148-.166.083-.345-.13 0-.248.008-.361-.004-.039-.004-.09-.055-.099-.091-.006-.034.025-.094.059-.112.084-.043.18-.07.273-.104-.12-.222-.26-.283-.48-.226-.227.06-.389.288-.357.502.038.252.326.489.604.478"/><path fill="#231F20" d="M27.761 17.927c-.046 1.486-.052 2.98-.166 4.453a20.319 20.319 0 01-.973 4.326 20.492 20.492 0 01-4.56 7.629 31.232 31.232 0 01-3.29 3.113 24.82 24.82 0 01-1.816 1.372c-.629.427-1.273.836-1.956 1.18a15.79 15.79 0 001.996-1.124c.642-.414 1.26-.86 1.86-1.33a30.814 30.814 0 003.36-3.077c2.125-2.175 3.706-4.838 4.667-7.68.247-.71.445-1.435.607-2.167.162-.732.288-1.472.361-2.22.064-.75.073-1.492.096-2.238.016-.744.033-1.489.037-2.233A374.49 374.49 0 0027.961 9l-.2 8.927zM11.228 37.448a31.21 31.21 0 01-3.29-3.114 20.491 20.491 0 01-4.56-7.628 20.3 20.3 0 01-.973-4.327c-.114-1.472-.12-2.967-.166-4.452L2.039 9a372.463 372.463 0 00-.023 8.93c.004.745.02 1.49.038 2.234.022.745.03 1.487.095 2.238.073.748.198 1.487.36 2.22.163.731.36 1.456.608 2.166.962 2.843 2.542 5.506 4.668 7.68a30.815 30.815 0 003.359 3.077c.599.47 1.218.917 1.86 1.33.64.415 1.3.806 1.996 1.125a17.425 17.425 0 01-1.956-1.181 24.526 24.526 0 01-1.816-1.37"/><path fill="#231F20" d="M13.605 39.733a.558.558 0 01-.274-.657.378.378 0 01.197-.22c.091-.045.187-.082.29-.037.039.105.078.204.113.303.042.12.035.244.004.365-.01.035-.046.088-.075.091-.111.013-.107.11-.153.178-.037-.008-.074-.008-.102-.023m3.504-2.583c.005-.051.07-.102.125-.097.044.005.086.06.081.108-.004.05-.05.082-.107.077-.059-.005-.103-.045-.099-.088m6.862-7.671a.231.231 0 01-.124-.002.099.099 0 01-.058-.068c-.003-.027.02-.06.04-.083.015-.016.046-.018.077-.029.028.01.065.017.088.037.023.02.047.056.043.08-.004.026-.038.058-.066.065m2.454-14.246a.277.277 0 01-.136-.054c-.092-.073-.082-.155.022-.25.076-.068.132-.059.207.038.029.04.051.083.074.12-.086.12-.112.152-.167.146M15.766 38.586a25.37 25.37 0 001.885-1.306 31.263 31.263 0 003.413-3.026c2.17-2.135 3.786-4.769 4.78-7.586a19.35 19.35 0 001-4.352c.067-.746.076-1.484.1-2.224.017-.74.035-1.48.039-2.219A362.22 362.22 0 0026.961 9l-.136 5.94a.759.759 0 00-.162-.197.408.408 0 00-.65.203c-.015.055-.024.111-.031.142a.393.393 0 00.5.38.668.668 0 00.318-.198l.018-.024-.06 2.623c-.048 1.476-.053 2.961-.174 4.423-.16 1.459-.52 2.898-1.003 4.292a20.658 20.658 0 01-1.253 2.867l-.005.001c-.05-.103-.082-.368-.117-.313-.068-.014-.133-.028-.198-.04-.214-.041-.375.053-.435.252-.056.187.063.354.27.36.084.003.169-.022.253-.037.04-.007.08-.021.12-.032.005.005.005.009.007.013-.173.318-.354.63-.544.94-.78 1.27-1.724 2.436-2.769 3.524a31.681 31.681 0 01-3.342 3.063l-.009.007c0-.009.005-.016.005-.025 0-.177-.118-.314-.287-.32a.665.665 0 00-.228.032c-.21.07-.264.304-.11.46a.488.488 0 00.264.126c-.48.371-.969.732-1.477 1.068-.475.313-.96.617-1.463.891-.048-.11.004-.23-.005-.345l-.453-.505a.666.666 0 00-.627.24c-.053.062-.116.117-.178.179l.039.502c.066.082.139.174.215.263.138.161.31.256.553.244.084-.237.356-.31.503-.508a.25.25 0 01-.039-.051c.514-.258 1.01-.55 1.495-.854m.831.516c.496-.34.976-.698 1.403-1.102-.528.309-1.026.642-1.525.975-.495.338-.988.672-1.475 1.025a10.169 10.169 0 001.597-.898m3.926-3.578c-.498.499-1.01.979-1.523 1.476.617-.348 1.169-.806 1.678-1.306A7.87 7.87 0 0022 34c-.496.516-.973 1.03-1.477 1.524"/><path fill="#231F20" d="M23.776 31.625c.506-.504.942-1.046 1.224-1.625-.49.512-.957 1.02-1.465 1.515-.498.499-1.019.985-1.535 1.485a8.91 8.91 0 001.776-1.375M15 39c2.204-1.287 4.124-3.053 5.8-4.993a21.74 21.74 0 002.247-3.162 21.043 21.043 0 001.623-3.538c.44-1.224.732-2.5.926-3.785.097-.644.155-1.295.192-1.932l.108-1.916c.104-2.555.168-5.117.002-7.674l-.691 7.626-.174 1.902c-.067.636-.118 1.257-.219 1.875a21.115 21.115 0 01-.906 3.636 21.846 21.846 0 01-3.624 6.536C18.724 35.559 16.988 37.403 15 39"/><path fill="#231F20" d="M15.19 4.897a.624.624 0 01.44-.018c.112.033.228.049.339.085.134.043.273.083.394.152.455.263.91.527 1.327.851.422.328.852.646 1.275.974.41.318.852.58 1.32.805 1.073.514 2.14 1.042 3.209 1.564.224.11.447.222.672.329.12.056.591.128.68.198.073.056.152.103.224.16.111.087.222.176.329.269a20.875 20.875 0 01.685.625.6.6 0 01.16.28c.037.13.085.255.13.382.075.207.126.418.11.64-.015.205.01.408.068.6.079.263-.208 9.229-.24 9.632-.239 4.417-2.27 8.181-2.397 8.41a18.73 18.73 0 01-.992 1.634c-.182.262-.358.528-.535.793-.28.42-.582.82-.919 1.196-.29.324-2.583 2.693-3.18 3.138-.074.055-.143.116-.215.174l-1.438 1.172a3.61 3.61 0 01-.625.415 6.49 6.49 0 00-.371.205.715.715 0 01-.5.097 3.708 3.708 0 01-.715-.2 34.645 34.645 0 01-2.348-2.115l.097.009c.475.03.942.02 1.402-.015.46-.037.91-.094 1.363-.17.225-.037.45-.082.671-.139.22-.06.445-.117.641-.235-.213.075-.44.085-.661.099-.223.01-.447.008-.67 0a16.701 16.701 0 01-1.333-.107 9.075 9.075 0 01-1.284-.242 5.998 5.998 0 01-.598-.198 3.581 3.581 0 01-.4-.19c-.032-.02-.089-.054-.083-.056l-.133.227c-.147-.158-.298-.312-.443-.473l-.302-.342.019.003c.375.04.748.062 1.12.078.743.026 1.482.015 2.216-.022a42.644 42.644 0 002.192-.169 20.03 20.03 0 001.09-.138c.36-.06.725-.114 1.07-.236-.355.077-.72.085-1.083.1-.363.01-.726.008-1.089 0a44.531 44.531 0 01-2.174-.107 25.192 25.192 0 01-2.144-.242 16.45 16.45 0 01-1.045-.204c-.17-.04-.34-.083-.505-.132a4.079 4.079 0 01-.453-.153l-.074.208a22.354 22.354 0 01-.612-.784c-.035-.046-.067-.093-.102-.139.126.014.253.03.38.041.452.04.903.061 1.352.076.9.026 1.795.014 2.686-.023a63.136 63.136 0 002.666-.169 29.72 29.72 0 001.328-.138c.44-.059.885-.113 1.313-.236-.437.078-.881.086-1.323.1-.442.01-.885.008-1.327 0a67.329 67.329 0 01-2.652-.106 37.889 37.889 0 01-2.627-.243 24.732 24.732 0 01-1.29-.205 15.47 15.47 0 01-.632-.133 6.325 6.325 0 01-.586-.16l-.04.133c-.186-.283-.366-.57-.54-.86.232.024.462.046.692.064.518.039 1.033.06 1.547.075 1.029.025 2.053.013 3.076-.024a83.152 83.152 0 003.057-.169 40.995 40.995 0 001.525-.137c.506-.06 1.016-.113 1.511-.237-.502.078-1.012.086-1.52.1-.508.01-1.016.008-1.524 0a88.156 88.156 0 01-3.045-.106 50.096 50.096 0 01-3.024-.243c-.501-.059-1-.124-1.493-.205a21.107 21.107 0 01-.734-.134 8.558 8.558 0 01-.693-.165l-.01.04c-.133-.255-.26-.512-.383-.771.24.03.48.052.718.073.477.039.953.061 1.427.076.949.025 1.894.013 2.836-.024a70.536 70.536 0 002.817-.168c.468-.038.937-.082 1.404-.138.465-.06.935-.113 1.389-.237-.462.078-.932.086-1.399.1-.468.01-.936.008-1.403 0a75.3 75.3 0 01-2.804-.106c-.931-.052-1.86-.13-2.78-.243a27.6 27.6 0 01-1.368-.205 17.45 17.45 0 01-.67-.133 7.268 7.268 0 01-.629-.162l-.02.07a23.045 23.045 0 01-.295-.77c.112.012.225.027.336.037.444.04.886.062 1.326.077.881.025 1.758.013 2.632-.024a60.565 60.565 0 002.61-.168c.435-.037.868-.082 1.3-.138.432-.06.867-.113 1.286-.237-.428.079-.863.086-1.296.1-.433.01-.866.008-1.299 0a64.035 64.035 0 01-2.596-.106 36.156 36.156 0 01-2.571-.243 23.698 23.698 0 01-1.263-.204 14.59 14.59 0 01-.824-.185c-.041-.142-.084-.283-.123-.425-.036-.135-.07-.27-.104-.405.212.022.424.042.635.059.526.038 1.05.06 1.575.075a52.78 52.78 0 003.132-.024 86.841 86.841 0 003.115-.17 42.433 42.433 0 001.554-.137c.516-.06 1.035-.113 1.54-.237-.512.079-1.032.086-1.549.1a44.84 44.84 0 01-1.553 0 91.51 91.51 0 01-3.103-.105 52.057 52.057 0 01-3.082-.243 34.613 34.613 0 01-1.522-.206 21.44 21.44 0 01-.987-.184c-.056-.279-.106-.56-.15-.84.33.028.655.05.986.07a54.3 54.3 0 001.972.074c1.312.025 2.621.013 3.929-.025 1.307-.037 2.61-.093 3.915-.168a68.153 68.153 0 001.954-.137c.65-.06 1.303-.113 1.944-.237-.647.078-1.3.086-1.95.1a70.71 70.71 0 01-1.954 0 146.186 146.186 0 01-3.906-.106c-1.3-.052-2.598-.13-3.889-.243a54.524 54.524 0 01-1.93-.206 32.581 32.581 0 01-1.212-.179c-.03-.288-.054-.58-.076-.872.457.043.904.071 1.36.098.71.038 1.416.06 2.123.074a96.83 96.83 0 004.234-.025c1.408-.038 2.814-.094 4.22-.169a79.085 79.085 0 002.107-.137c.701-.06 1.405-.113 2.098-.237-.699.079-1.402.086-2.104.1-.702.01-1.405.008-2.107 0a169.98 169.98 0 01-4.212-.106 96.279 96.279 0 01-4.196-.243 63.69 63.69 0 01-2.083-.206 34.4 34.4 0 01-1.515-.21l-.01-.157c-.018-.232-.032-.466-.048-.699a40.08 40.08 0 001.61.113c.748.038 1.493.06 2.238.074 1.489.025 2.976.012 4.46-.025 1.486-.038 2.968-.094 4.45-.169a88.08 88.08 0 002.223-.137c.739-.06 1.48-.113 2.212-.237-.737.079-1.478.086-2.219.1-.74.01-1.48.008-2.22 0-1.482-.017-2.963-.054-4.442-.106s-2.955-.13-4.426-.243a70.14 70.14 0 01-2.2-.206 35.434 35.434 0 01-1.76-.238c-.02-.302-.042-.605-.061-.908.591.063 1.165.1 1.75.134.746.04 1.49.065 2.235.082 1.488.03 2.975.024 4.46-.008 1.483-.033 2.966-.082 4.448-.152a87.94 87.94 0 002.222-.128c.74-.057 1.481-.107 2.213-.229-.736.082-1.478.092-2.218.109-.74.013-1.481.014-2.222.008a182.63 182.63 0 01-4.441-.088 107.704 107.704 0 01-4.429-.226c-.736-.057-1.47-.12-2.202-.198a34.042 34.042 0 01-1.872-.25c-.02-.323-.038-.646-.056-.968.631.07 1.24.11 1.862.147.746.04 1.49.064 2.235.082 1.488.03 2.975.023 4.46-.01a178.39 178.39 0 004.448-.15 87.941 87.941 0 002.222-.13c.74-.056 1.481-.106 2.213-.228-.736.082-1.478.092-2.218.109-.74.013-1.481.014-2.222.008a182.63 182.63 0 01-4.441-.088 107.704 107.704 0 01-4.429-.226c-.736-.056-1.47-.12-2.202-.198a32.238 32.238 0 01-1.983-.269l-.004-.074c-.02-.325-.039-.644-.052-.96 1.423.167 2.808.221 4.21.262 1.488.036 2.973.035 4.457.009a178.28 178.28 0 004.449-.134c.74-.032 1.482-.07 2.222-.12.739-.055 1.48-.102 2.213-.22-.736.084-1.478.097-2.218.117-.74.015-1.48.02-2.221.017a187.627 187.627 0 01-4.442-.072c-1.48-.041-2.958-.107-4.431-.21-1.426-.105-2.874-.23-4.253-.462.004-.321.023-.64.065-.954.11-.87.383-1.705.978-2.23.296-.267.668-.453 1.086-.61.21-.082.433-.155.662-.251.227-.092.44-.195.654-.297l.127-.065c.393-.175.796-.324 1.2-.47.713-.261 1.396-.59 2.063-.954.249-.136.499-.268.751-.397.373-.19.724-.413 1.043-.688.14-.12.284-.234.436-.336a7.17 7.17 0 00.731-.57c.132-.115.265-.238.418-.317.325-.168.663-.312.997-.462zm-.44-1.907c0-.222.178-.409.39-.411a.411.411 0 010 .822.406.406 0 01-.39-.411zm.109-.65l.02.007c0 .006 0 .016-.003.018-.006.004-.014.002-.022.003l.005-.029zm.435-.069c.004-.012.024-.02.039-.025a.095.095 0 01.048.002c.301.086.533.425.51.749 0 .021-.02.041-.039.075-.108-.044-.1-.128-.118-.199a.637.637 0 00-.332-.445.455.455 0 01-.114-.09c-.01-.011-.002-.046.006-.067zm.106 1.42c-.025.005-.055-.016-.13-.041.137-.096.221-.186.363-.133-.1.125-.134.154-.233.174zm-1.938 35.193c-.02-.02-.043-.039-.064-.058.259.184.52.363.785.536a2.533 2.533 0 01-.721-.478zm1.22-35.362c-.01-.007-.027-.013-.027-.02 0-.013.01-.026.015-.04.01.008.025.015.026.023 0 .012-.01.025-.015.037zM3.027 15.318c.072 1.887.178 3.77.302 5.652.074.938.134 1.887.278 2.849.142.954.34 1.901.62 2.824A20.788 20.788 0 006.4 31.496c.012.026.024.05.035.077.03.069.073.132.114.195.363.565.726 1.129 1.091 1.692.05.077.106.151.165.222.37.444.738.89 1.112 1.33.086.103.181.198.28.289l-.004.011.02.006.018.018c.32.283.628.578.911.899.2.224.411.433.629.637l-.095.163c.103.053.15.064.22.09.065.021.128.041.19.057l.036.008c.235.206.476.406.72.602.229.183.463.358.657.581.048.056.111.1.17.148.24.195.484.385.721.583.187.157.386.292.601.405.11.058.221.117.328.183.23.143.484.22.743.284.195.047.38.024.559-.062.104-.052.208-.106.31-.164.173-.1.345-.202.516-.307.049-.03 1.602-1.292 2.207-1.767.508-.397.975-.84 1.421-1.306.44-.46.878-.922 1.322-1.377.37-.378.703-.787 1.015-1.213.183-.251.365-.502.551-.75.258-.342.485-.705.699-1.076.293-.51.58-1.022.871-1.532.61-1.071 1.051-2.213 1.391-3.398.163-.566.287-1.141.388-1.722.03-.172.028-.35.052-.525.046-.325.104-.648.152-.972a7.01 7.01 0 00.055-.503c.058-.789.106-1.579.17-2.368.03-.377.158-2.109.161-2.412.01-.943.027-1.886.04-2.829.004-.252.018-.503.04-.756.055-.645-.031-3.441-.115-3.784-.075-.308-.163-.619-.313-.9-.076-.146-.198-.267-.312-.416.009-.023-.205-.14-.278-.186a6.039 6.039 0 00-.388-.228c-.068-.036-.13-.073-.16-.148-.1-.009-.442-.234-.56-.273-.032-.01-.066-.012-.099-.016a5.987 5.987 0 01-.8-.187c-.587-.165-1.14-.418-1.697-.66a9.982 9.982 0 01-1.165-.631 2.262 2.262 0 00-.264-.14c-.22-.094-.383-.263-.56-.414-.042-.111-.144-.158-.23-.223-.105-.08-.228-.135-.291-.266-.02-.041-.074-.066-.114-.097-.518-.394-1.036-.79-1.557-1.181a8.62 8.62 0 00-1.518-.918c-.127-.06-.254-.128-.404-.113a.219.219 0 01-.097-.017c-.178-.068-.355-.138-.541-.21.04-.082.127-.1.19-.149.365-.283.493-.777.31-1.201a.956.956 0 00-.918-.577c-.41.026-.732.3-.856.697-.126.409.052.946.476 1.164.048.025.12.022.138.112-.15.05-.274.167-.456.144-.057-.007-.128.031-.183.065-.742.466-1.513.884-2.212 1.417-.227.172-.462.331-.688.503-.46.35-.943.66-1.445.944-.442.25-.874.519-1.313.776-.086.05-.181.085-.272.127a12.79 12.79 0 01-1.985.746c-.112.032-.221.058-.283.18a.153.153 0 01-.049.05c-.04.013-.08.024-.12.038-.418.135-.86.325-1.254.617-.022.008-.043.016-.066.02-.183.033-.315.144-.433.278-.127.192-.259.39-.39.7-.068.115-.13.234-.184.354-.215.48-.337.98-.414 1.474-.159.989-.112 1.979-.085 2.91z"/><path fill="#231F20" d="M8.5 12a29.564 29.564 0 00-2.246.066c-.75.048-1.499.132-2.254.267.743.296 1.495.438 2.246.536.751.098 1.503.134 2.254.13 1.5-.012 2.992-.108 4.5-.289-.74-.314-1.493-.45-2.244-.557a17.775 17.775 0 00-2.255-.152m2.999-1.998a7.904 7.904 0 00-1.246.072 5.571 5.571 0 00-1.254.3c.41.272.828.407 1.245.497.418.088.836.135 1.255.127.833-.016 1.657-.105 2.5-.344-.407-.278-.827-.406-1.244-.505a6.205 6.205 0 00-1.255-.147M10.67 7.3l-1.198.624c-.796.422-1.592.847-2.38 1.287l-.593.327c-.204.11-.4.24-.587.383-.367.29-.71.641-.912 1.079.288-.37.653-.643 1.035-.862a4.67 4.67 0 01.591-.288c.206-.082.418-.173.624-.263a37.94 37.94 0 002.436-1.182c.398-.217.798-.428 1.19-.658.39-.231.79-.457 1.165-.75A11.548 11.548 0 0014 5c-.709.587-1.418 1.169-2.162 1.658-.37.236-.769.434-1.169.643"/></g></svg>