<svg xmlns="http://www.w3.org/2000/svg" width="72" height="36" viewBox="0 0 72 36"><g fill="#A8A7A7" fill-rule="evenodd"><path d="M62.589 29.57c-.114 0-.199-.075-.212-.199-.013-.123.046-.22.162-.241.322-.056.546-.27.788-.466.16-.129.846-.738.965-.97.157-.308.317-.616.469-.927.05-.104.088-.217.122-.329.067-.218.13-.438.19-.66.021-.081.03-.167.04-.252.014-.124.068-.205.197-.236.09-.021.173-.078.264-.096.148-.028.526.129.592.153-.06.823-.326 1.56-.682 2.29-.274.56-.75.863-1.17 1.25-.09.081-.18.167-.283.229-.437.28-.803.314-1.027.4a1.13 1.13 0 01-.415.054zm-3.72-.819c-.21-.13-.41-.279-.616-.415-.248-.165-.22-.425-.133-.642.026-.064.178-.132.242-.109.169.06.32.17.48.258.165.09.323.213.5.254.34.078.688.14 1.035.152 1.576.051 2.655-.745 3.379-2.12.116-.22.206-.456.325-.675.098-.182.36-.249.521-.126.065.049.121.178.107.257-.074.415-.074.72-.263 1.236-.01.046-.213.757-1.458 1.686-.16.11-.313.231-.475.34-1.157.632-2.616.54-3.644-.096zm.103 1.269a537.08 537.08 0 01-13.672.041 8.292 8.292 0 01-.019-.051c.03-.037.052-.084.089-.11.754-.507 1.408-1.13 1.996-1.828a.59.59 0 00.056-.077c.29-.475.606-.937.861-1.432.156-.302.216-.654.324-.982.09-.274.104-.554.092-.84-.014-.333.08-.418.4-.415l4.407.033 2.595.017c.036 0 .071.004.105.006.027.322.05.635.082.947.032.308.047.622.117.922.065.278.195.54.29.811.08.23.25.426.181.71-.022.092.119.225.19.336.07.11.16.211.218.328.223.45.567.78.966 1.058.237.166.482.32.724.48l-.002.046zm-16.012.018a1.137 1.137 0 01-.01-.047c.131-.061.263-.12.392-.184 1.199-.587 2.025-1.53 2.527-2.777.07-.173.122-.353.19-.528.215-.557.151-1.138.14-1.715-.002-.139-.008-.278-.004-.417.008-.2.1-.284.295-.262.225.025.45.06.674.09a.171.171 0 00.078 0c.218-.077.347.107.508.187.042.021.062.121.064.186.016.326.005.638-.14.951-.126.27-.15.587-.232.88-.042.153-.085.315-.17.444a39.268 39.268 0 01-1.177 1.722c-.21.285-.474.53-.722.783-.412.42-.937.59-1.494.683a2.763 2.763 0 01-.919.004zm-1.488-.35a3.208 3.208 0 01-1.734-.606c-.315-.226-.564-.574-.783-.907-.47-.717-.628-1.555-.807-2.382-.086-.4-.155-.796-.128-1.208.038-.6.11-1.193.303-1.765.054-.161.091-.33.125-.496.12-.602.4-1.123.772-1.597.355-.45.765-.836 1.28-1.096.23-.115.438-.276.672-.382.459-.209.73-.05.872.442.058.202.18.384.287.607-.28.09-.533.203-.798.248-.416.07-.759.26-1.07.536a3.299 3.299 0 00-1.121 2.007c-.068.432-.09.872-.118 1.31-.032.478.071.934.26 1.373.105.244.198.495.29.744.242.654.644 1.205 1.262 1.478 1.343.594 2.92.36 3.68-1.167.427-.86.603-1.802.323-2.773-.003-.01-.01-.02-.008-.03.008-.11-.102-.253.054-.322.11-.049.348.109.385.236.195.678.215 1.36.04 2.046-.057.223-.084.453-.142.675-.04.16-.096.318-.167.466-.122.254-.28.49-.388.75-.15.362-.414.613-.693.86-.086.076-.166.162-.252.239-.075.066-.147.14-.233.185-.205.109-.418.2-.625.302-.49.244-1.01.253-1.538.228zm-.957.339c-.25.123-.512.05-.772.034.059-.3.2-.378.467-.253.107.05.21.108.316.163l-.011.056zm-1.647-1.074c-.453.246-.912.499-1.45.434-.23-.028-.455-.106-.681-.168-.04-.01-.073-.052-.109-.079l.014-.032c.229 0 .457.003.686-.001.515-.01.95-.188 1.253-.636.017-.024.043-.053.068-.058.082-.014.281.183.307.334.01.064-.035.178-.088.206zm-1.787-1.529c-.189.213-.414.197-.631-.042l.63.042zm-1.669 2.701c-2.072.007-4.145.006-6.217.013-2.587.01-5.173.023-7.76.035h-.421l-.024-.044c.052-.06.095-.13.154-.181.71-.603 1.217-1.354 1.56-2.223.133-.336.248-.681.362-1.025a.633.633 0 00.017-.25c-.02-.231.118-.395.342-.408.58-.034 1.162-.068 1.743-.111 1.208-.089 2.416-.183 3.625-.276.125-.01.252-.01.376-.03.526-.088 1.032.063 1.542.141 1.064.163 2.125.336 3.188.502.304.048.374.2.22.467a.41.41 0 00-.055.208c.048 1.161.498 2.119 1.396 2.846l.346.28c-.163.024-.278.056-.394.056zm-16.08-.082a1.334 1.334 0 00-.013-.03c-.116-.03-.238-.046-.347-.092-.15-.062-.18-.285-.044-.387.315-.237.433-.577.529-.94.142-.536.305-1.068.436-1.608a4.16 4.16 0 00.089-.76c.012-.26.086-.32.338-.306.281.016.565-.01.848-.013.282-.002.565-.01.846.007.193.012.364.236.326.423-.164.784-.392 1.545-.902 2.18-.422.524-.907.982-1.49 1.315-.186.106-.41.142-.617.211zm-2.133-3.136c.287.348.647.4 1.06.276-.132.32-.348.417-.615.287-.225-.109-.434-.24-.445-.563zm-.444 1.985c-.447-.898-.848-1.817-1-2.824-.157-1.047-.251-2.096.016-3.14.162-.631.452-1.185.971-1.59.324-.253.898-.254 1.221.003a.41.41 0 01.133.155c.08.218.144.44.215.662l-.032.022c-.075-.044-.152-.086-.226-.132-.304-.19-.526-.181-.812.034-.477.36-.706.876-.87 1.433-.264.907-.224 1.818-.046 2.733.159.817.478 1.547 1.063 2.143.256.26.682.306.98.097.4-.281.564-.697.6-1.167.04-.528.057-1.058.078-1.588a.97.97 0 00-.058-.34l-.218.668a.77.77 0 00-.028-.006c-.014-.226-.02-.452-.043-.676a22.964 22.964 0 00-.133-1.148 1.139 1.139 0 00-.49-.792c-.275-.19-.587-.099-.72.205-.053.122-.02.178.115.181.104.003.213-.023.312 0 .076.017.176.077.2.144.243.652.382 1.323.278 2.026-.015.104-.051.207-.085.308a.37.37 0 01-.287.267c-.253.054-.507.121-.742-.081l-.075.13c-.014-.01-.03-.015-.037-.027-.394-.715-.516-1.465-.26-2.256.126-.39.268-.776.406-1.162.092-.26.3-.414.532-.517.086-.038.233-.008.32.046.155.095.286.231.447.368l-.365.133c.01.018.013.033.018.034.338.05.438.147.529.492.093.356.185.713.295 1.063.03.097.108.2.193.254.291.19.421.423.357.793-.084.484-.097.98-.183 1.463a3.486 3.486 0 01-.95 1.831c-.52.537-1.286.427-1.62-.242zm-1.8-4.951c-.01.09-.013.183-.034.27-.011.047-.053.086-.082.128-.046-.04-.126-.077-.132-.123a1.529 1.529 0 01-.003-.414c.1-.691.134-1.396.372-2.061.21-.592.475-1.154.898-1.623.149-.165.188-.167.373.002a5.24 5.24 0 00-.972 1.737c-.229.675-.344 1.376-.42 2.084zm-1.036-2.291c-.118.242-.252.488-.308.748-.072.337-.073.69-.104 1.035-.009.095-.013.19-.022.315-.095-.075-.174-.12-.232-.186-.608-.692-.973-1.487-.903-2.436.039-.528.126-1.051.194-1.576.04-.308.088-.614.126-.922.044-.348.208-.632.423-.897a5.043 5.043 0 012.057-1.514c.841-.341 1.674-.707 2.565-.897 1.018-.217 2.034-.281 3.046.04 1.225.391 2.008 1.246 2.476 2.441.3.77.47 1.574.626 2.382.058.298.106.599.163.898.016.087-.012.127-.093.15a1.813 1.813 0 00-.25.096c-.126.057-.24.075-.367-.018-.061-.045-.16-.054-.24-.052-1.017.03-2.034.064-3.051.102-.113.004-.224.041-.334.062.018.216.053.248.258.249.886.006 1.773.01 2.66.017.118.001.236.017.348.026-.222.362-.43.711-.65 1.053-.032.05-.12.088-.185.093-.8.052-1.6.097-2.4.143-.218.013-.273-.034-.33-.25-.15-.583-.284-1.173-.469-1.744-.212-.655-.652-1.153-1.172-1.58a.626.626 0 00-.218-.124c-.5-.139-1.007-.212-1.521-.09-.617.147-1.073.538-1.396 1.073-.262.435-.474.904-.697 1.363zm-1.422 2.78c-.45-.022-.9-.047-1.349-.093-.4-.042-.702-.295-.985-.557-.062-.057-.059-.198-.063-.302 0-.022.095-.069.147-.07.346-.002.692.004 1.037.01.252.004.505 0 .755.023.106.01.239.054.304.131.212.25.397.522.612.81-.17.02-.315.054-.458.047zm-.654-10.628c-.201.026-.31-.03-.345-.186-.035-.155.06-.257.239-.338.387-.177.795-.103 1.191-.119 1.83-.073 3.659-.124 5.488-.183.078-.003.157 0 .236 0v-.036h4.798c.545 0 1.09-.002 1.636.006.176.002.354.023.528.055.045.009.092.082.113.137.017.045-.002.105-.01.158-.037.236-.09.287-.334.282-.776-.016-1.552-.036-2.328-.056-2.206-.059-4.413-.135-6.621-.028-.995.049-1.992.056-2.987.113-.536.03-1.07.127-1.604.195zm11.794 2.97c.197-.017.383-.036.57-.046.297-.016.596-.03.894-.038.187-.005.239.046.232.236-.011.305-.032.609-.052.913-.008.118-.075.187-.188.2-.276.03-.552.064-.828.076-.07.003-.182-.051-.206-.11-.15-.373-.284-.755-.421-1.135-.007-.019 0-.042 0-.097zm1.774-1.396c-.017.249-.026.486-.051.722-.016.146-.142.177-.257.192-.13.017-.261.016-.391.027-.287.027-.573.058-.86.086-.375.036-.658-.117-.868-.434-.064-.096-.148-.178-.225-.265-.091-.102-.185-.201-.301-.328h2.953zm-.99 4.35c-.084-.39-.15-.784-.232-1.233.313 0 .593-.005.873.003.113.004.178.084.182.203.01.294.017.587.025.881.003.125-.06.207-.177.227a2.734 2.734 0 01-.497.056c-.06 0-.16-.08-.173-.138zm.104.522l.661-.03c.146-.006.226.073.249.212.032.195.061.39.08.587.004.033-.042.094-.075.104a11.16 11.16 0 01-.656.15c-.155.03-.253-.044-.257-.2-.008-.266-.002-.532-.002-.823zm-11.57-5.045c-.011-.165-.01-.331-.015-.497a.55.55 0 00-.018-.152c-.051-.165-.006-.284.16-.32.155-.032.32-.03.479-.032.782-.009 1.563-.01 2.345-.021.634-.008 1.268-.032 1.902-.037.497-.003.995.022 1.493.02a1758.9 1758.9 0 005.63-.042c.092 0 .183-.043.274-.047.078-.003.184-.004.227.042.05.054.058.16.06.245.004.095-.033.192-.027.287.011.184-.071.287-.252.3-.941.066-1.882.137-2.823.2a.501.501 0 01-.296-.062c-.234-.158-.506-.178-.758-.266-.695-.245-1.404-.208-2.114-.202-.394.003-.787.014-1.18.007a3.546 3.546 0 00-1.395.267c-.03.012-.072.02-.082.043-.087.19-.264.181-.426.22-.91.214-1.753.568-2.445 1.234a3.926 3.926 0 01-.303.256c-.163.128-.36.05-.385-.16-.019-.159-.004-.321-.004-.482l.015-.002c-.021-.266-.046-.532-.063-.799zm12.87 6.655c.244.353.474.717.73 1.11-.11.038-.194.094-.279.093-.764-.002-1.513.078-2.244.33-.207.07-.447.037-.672.052-.058.003-.116.005-.173.01-.198.016-.26-.05-.225-.26.067-.394.279-.705.533-1 .32-.375.733-.446 1.18-.442.314.003.63.006.943.02.072.004.17.034.207.087zm-5.458 2.397c-.068.11-.175.196-.282.31a2.174 2.174 0 01-.47-1.152c.075-.013.144-.037.214-.036.718 0 1.437.005 2.155.01.037 0 .081-.006.109.011.059.04.147.089.153.143.007.057-.055.167-.107.18-.428.118-.844.303-1.297.29-.21-.004-.36.057-.475.244zm13.128-.366c.195-.006.388-.012.583-.011.191 0 .255.063.27.252.002.03.008.062.021.088l.32.606c-.51.023-.97.061-1.432.06-.296 0-.593-.091-.888-.084-.996.024-1.99.076-2.985.11-.155.005-.311-.05-.468-.05a41.14 41.14 0 00-1.586.006c-.54.016-1.079.066-1.618.08-1.148.03-2.297.043-3.445.073-.346.01-.69.05-1.034.085-.24.025-.463.022-.624-.2-.101-.137-.093-.259.012-.391a.64.64 0 01.527-.257c1.327-.032 2.653-.076 3.98-.116l8.367-.251zm1.63-8.347c.016-.175.031-.35.045-.526.011-.14.082-.211.22-.22.308-.018.616-.043.924-.06.029-.002.077.018.084.04.008.025-.012.07-.033.092-.29.3-.582.598-.876.895a.485.485 0 01-.127.09c-.14.072-.235.011-.238-.15 0-.054.004-.107.007-.16h-.006zm1.753 11.183l-1.179-.545c.075-.035.112-.063.15-.067.244-.023.489-.045.733-.061.16-.011.234.055.252.216.015.143.027.285.044.457zm4.138-8.154c-.082.05-.153.098-.228.137-.828.43-1.526 1.015-2.053 1.803a6.402 6.402 0 00-.743 1.57c-.051.153-.047.324-.068.487-.004.037 0 .08-.017.11-.183.322-.229.684-.29 1.042-.01.046-.025.091-.037.136l-.028-.008c-.018-.39-.038-.78-.05-1.17a.542.542 0 01.047-.219c.242-.573.46-1.161.74-1.716.512-1.013 1.281-1.765 2.323-2.206.184-.077.193-.077.404.034zm1.023 9.292c-.384.09-.678-.047-.664-.363l.664.363zm-.144-1.325c-.242-.084-.468-.19-.59-.442a.226.226 0 00-.037-.051c-.393-.441-.565-.975-.66-1.55-.136-.837.12-1.558.576-2.23.033-.049.08-.09.099-.144.11-.3.346-.395.632-.413l.561-.04c.082 0 .146.004.208-.001.143-.013.246.051.309.176.121.245.256.478.476.65.046.036.071.103.105.158.19.31.405.599.7.817.147.11.162.282.188.443.154.926-.069 1.734-.763 2.37-.441.406-.959.53-1.534.341-.09-.03-.181-.053-.27-.084zm-2.72-12.229c1.028-.417 2.097-.658 3.196-.78 1.304-.145 2.608-.11 3.912-.027.081.005.16.03.24.045l.014.047c-.062.037-.12.086-.187.11-1.197.434-1.46 1.824-.962 2.734.513.94 1.269 1.509 2.315 1.648.512.068.933-.139 1.274-.525.097-.109.187-.223.31-.369.016.143.04.242.038.34-.037 1.268-.07 2.537-.375 3.778-.06.24-.111.289-.35.299-.713.03-1.426.057-2.138.096-.736.041-1.06.307-1.285 1.025-.014.045-.03.088-.06.166-.143-.094-.286-.164-.401-.267a4.246 4.246 0 01-1.225-1.794c-.207-.587-.513-1.138-.713-1.728-.158-.463-.44-.805-.762-1.144-.54-.568-1.214-.784-1.954-.816a1.661 1.661 0 00-.685.144c-.75.312-1.353.81-1.747 1.545-.107.2-.251.316-.477.341a7.86 7.86 0 00-.728.12c-.111.024-.215.084-.323.127l.02.057h1.148c0 .09.013.175-.003.254-.064.325-.14.647-.205.972-.033.169-.123.263-.287.295-.2.039-.4.082-.599.128-.074.017-.145.045-.218.068l-.002.052c.107.022.213.057.321.064.183.012.367.004.55.006.115.002.16.05.16.178 0 .353.048.709.022 1.059a6.08 6.08 0 01-.19 1.07c-.088.339-.224.665-.344.995-.066.18-.201.266-.39.27-.209.004-.418.012-.628.018-.19.006-.261-.04-.267-.231a48.124 48.124 0 01-.016-1.479c-.001-1.395.133-2.78.276-4.166.096-.933.326-1.814.894-2.582.74-.999 1.703-1.684 2.83-2.143zm8.007.05a1.32 1.32 0 011.586-.06c.254.175.385.424.451.725.16.717.004 1.357-.432 1.931-.206.271-.493.414-.905.417-.347-.008-.67-.26-.939-.6-.59-.747-.479-1.841.24-2.413zM60.73 25.49c.442-.262.723-.317 1.164-.224-.065.19-.17.342-.355.412-.304.114-.555-.029-.81-.188zm.077 1.473a6.883 6.883 0 001.048-.398c.193-.094.35-.267.521-.407.077-.064.148-.136.221-.204l.047.044c-.147.183-.278.382-.445.544-.201.193-.432.354-.649.532-.301.246-.648.206-.991.15-.199-.031-.394-.093-.59-.14l.002-.059c.076-.007.152-.016.228-.02.204-.013.418.014.608-.042zm-9.986-4.596c1.243-.012 2.487-.014 3.73-.023.115 0 .23-.012.344-.03.277-.041.55-.034.828.018.168.032.345.022.518.02 1.48-.011 2.959-.026 4.438-.041.083 0 .168-.01.25-.028.236-.05.466-.08.709-.003.135.044.29.037.436.034 1.663-.03 3.326-.04 4.987-.108.573-.024 1.063.098 1.526.417.376.26.427.555.18.942-.228.356-.51.56-.946.458-.096-.023-.198-.026-.297-.03-.943-.045-1.886-.108-2.83-.13-2.376-.053-4.752-.088-7.128-.131v.03c-3.17-.018-6.338-.046-9.507-.043-.347 0-.664-.078-.995-.127-.155-.023-.313-.025-.47-.041a.787.787 0 01-.663-.64 1.57 1.57 0 01.007-.457c.023-.15.138-.198.284-.184.547.053 1.095.11 1.644.148.25.018.502-.003.753-.008.734-.015 1.468-.036 2.202-.043zm-.78-5.412c.068-.011.137-.011.205-.011 3.704-.001 7.408-.006 11.112 0 .634.001 1.268.056 1.902.056.307 0 .614-.063.92-.106.211-.03.341.021.45.209.124.213.232.431.188.665-.116.048-.198.087-.283.115a.467.467 0 01-.168.026c-2.679-.137-5.36-.144-8.04-.123l-5.855.045c-.084 0-.17.005-.25-.015-.061-.016-.136-.052-.166-.103a2.81 2.81 0 01-.202-.434c-.074-.201-.018-.29.188-.324zm14.864 2.348c-.154.248-.33.242-.534.182a1.206 1.206 0 00-.342-.03c-2.286.02-4.573.067-6.86.061-1.966-.005-3.932-.071-5.899-.11a88.83 88.83 0 00-.896-.012c-.242-.002-.323-.11-.258-.343a.557.557 0 00.013-.142c.002-.166.001-.331.001-.522.187-.01.362-.028.538-.027 2.212.019 4.426.05 6.638.057 1.474.006 2.948-.013 4.422-.035a25.056 25.056 0 001.774-.093c.439-.038.766.141 1.032.462.143.174.254.376.37.552zm.19 1.676c-.474.242-.978.213-1.477.21l-13.25-.06c-.057 0-.115.001-.172-.007-.197-.03-.293-.163-.26-.365.03-.196.066-.39.105-.584.042-.21.083-.245.3-.24.555.011 1.111.022 1.667.043.98.035 1.959.09 2.94.112 1.44.034 2.883.078 4.324.06 1.184-.015 2.367-.11 3.55-.178.334-.019.667-.064 1-.1a.763.763 0 01.624.202c.277.252.529.52.648.907zm1.044-2.755c.32.148.675.146 1.022.128.152-.008.222.047.23.204.013.208.038.414.06.643-.156-.014-.29-.023-.425-.037-.528-.06-.853.332-.94.773-.115.589.134 1.014.697 1.18.165.049.34.063.508.102a.217.217 0 01.13.087c.082.142.15.293.245.483-1.283.169-2.54.123-3.797-.008l-.005-.043c.196-.043.393-.08.588-.13.365-.091.73-.182 1.093-.289.325-.095.429-.305.326-.638-.07-.23-.158-.453-.223-.684a.346.346 0 01.025-.23.66.66 0 00.075-.429c-.058-.39-.206-.716-.53-.944-.039-.027-.08-.05-.146-.093.388-.146.71-.24 1.067-.075zm1.409 2.248a.615.615 0 01-.616-.047c-.146-.099-.199-.242-.166-.418.05-.272.345-.542.576-.528.237.015.342.122.348.361V20h.003v.033c-.01.16.044.357-.145.44zm-1.401-5.21c.191-.442.513-.695 1.011-.688.346.057.695.096 1.036.175.405.094.759.65.733 1.103-.039.658-.515 1.28-1.13 1.48-.516.166-1.14-.041-1.476-.524-.33-.475-.412-1-.174-1.547zm-55.354 5.8a.345.345 0 01-.215-.292c-.024-.242.12-.393.313-.568l-.098.86zM71.68 30.43c-3.936-.29-4.23-.168-7.672-.373l-.019-.041c.043-.037.082-.08.129-.11.306-.196.617-.385.919-.587.975-.634 1.328-1.507 1.448-1.741a5.457 5.457 0 00.602-2.16c.01-.136.061-.232.2-.271.338-.097.675-.198.946-.446a.152.152 0 01.07-.034c.402-.08.683-.349.917-.66.15-.2.251-.439.359-.668a.362.362 0 00.004-.233c-.173-.596-.469-1.073-1.122-1.214-.08-.018-.193-.113-.205-.187a12.7 12.7 0 01-.118-1.065c-.02-.26-.02-.52-.026-.78-.003-.127-.017-.257 0-.382.05-.339.141-.673.162-1.012.023-.367.142-.646.422-.888.468-.407.676-.936.602-1.575-.053-.455-.253-.844-.48-1.224a1.537 1.537 0 00-.685-.62c-1.002-.464-2.464-.233-3.056 1.066-.069.151-.165.203-.323.183-.384-.05-.77-.109-1.156-.13-1.021-.053-2.043-.122-3.066-.122-2.56 0-5.12.028-7.68.063-.68.01-1.36.084-2.04.135-.07.005-.137.052-.205.08l.013.063c.07.01.14.03.209.032.283.009.566.019.85.019 3.861.004 7.723.006 11.584.009.305 0 .61-.013.912.007.102.007.23.071.292.152.194.25.28.546.256.897-.099-.026-.18-.043-.26-.069a3.787 3.787 0 00-1.174-.18c-1.07.001-2.14-.02-3.211-.02-3.169-.003-6.338 0-9.506.002-.257 0-.514 0-.77-.004-.144-.002-.204-.093-.21-.23-.002-.047.005-.095.01-.143.106-.917-.205-1.556-.995-2.002a5.136 5.136 0 00-.73-.333c-1.066-.4-2.187-.501-3.304-.567a30.7 30.7 0 00-2.929-.011c-1.548.057-3.021.438-4.39 1.203a1 1 0 01-.399.128c-.48.036-.963.055-1.445.074-.167.007-.218-.048-.214-.22.007-.296.018-.59.037-.884.016-.238.083-.297.316-.305l3.838-.125c1.504-.047 3.01-.102 4.514-.138 2.408-.059 4.815-.108 7.223-.154.718-.014 1.436-.002 2.154-.002l.001-.055c-.347-.035-.694-.085-1.043-.1-.812-.033-1.625-.067-2.437-.07a469.41 469.41 0 00-6.012.02c-1.054.012-2.108.068-3.162.102-1.568.05-3.136.1-4.704.147-.196.006-.394.001-.644.001.06-.396.104-.739.165-1.079.047-.27.055-.27.315-.277 1.301-.034 2.601-.074 3.902-.098 1.994-.036 3.987-.064 5.98-.09 1.941-.025 3.883-.043 5.824-.066.099 0 .197-.014.296-.022l.002-.046c-.047-.012-.094-.034-.142-.036-.781-.033-1.562-.077-2.343-.093-1.443-.03-2.885-.059-4.328-.061-1.767-.003-3.536.01-5.304.038-1.248.02-2.496.079-3.744.117-.347.011-.378-.03-.27-.361.137-.426.297-.846.418-1.277a1.17 1.17 0 00.023-.563c-.183-.762-.392-1.519-.595-2.276-.028-.107-.077-.208-.116-.312a.812.812 0 00-.027.347c.148.739.299 1.476.462 2.21a.86.86 0 01-.09.628c-.174.327-.352.662-.46 1.014-.22.718-.306 1.463-.33 2.215a337.83 337.83 0 01-.139 3.872c-.012.28-.07.561-.134.834-.05.204-.205.287-.416.297-.55.024-1.101.048-1.649.103-1.168.116-2.334.252-3.501.381-.135.015-.27.046-.404.069l.002.058c.105.012.211.038.316.035.792-.023 1.584-.046 2.376-.08.471-.02.942-.051 1.412-.086.455-.034.91-.079 1.364-.118.166-.014.217.049.18.213-.077.328-.154.656-.229.983-.035.155-.117.238-.281.247-.634.035-1.268.07-1.9.118-1.25.094-2.499.196-3.748.298-.137.011-.272.044-.409.067l.007.05c.045.002.09.009.134.008 1.552-.047 3.105-.094 4.657-.144a1.01 1.01 0 00.34-.052c.363-.143.722-.03 1.096-.022-.043.434-.085.852-.128 1.3-1.641.022-3.26.152-4.876.34a.21.21 0 00.13.041c1.212.005 2.424.01 3.636.013.042 0 .086.002.125-.013.334-.122.659-.026.992.028l.139 1.411c-.458.016-.896.04-1.335.044-.393.005-.786-.011-1.18-.019-.167-.003-.337.005-.503-.014-.78-.091-1.56-.063-2.34-.002-.415.032-.78-.073-1.084-.367a3.48 3.48 0 01-.845-1.28c-.247-.65-.308-1.331-.338-2.016-.077-1.716.006-3.43.067-5.143.01-.268.02-.536.033-.804.008-.153.032-.295.18-.386.13-.079.15-.196.044-.306-.16-.168-.15-.343-.084-.548.048-.152.123-.19.266-.153.421.11.844.066 1.262-.024.192-.042.383-.115.467-.389l-1.754-.112c.077-.159.115-.295.197-.393.282-.338.67-.475 1.086-.51.992-.085 1.986-.16 2.98-.223 1.188-.076 2.377-.135 3.566-.205.102-.006.202-.039.303-.059l-.005-.067c-.211-.01-.422-.03-.633-.03a998.72 998.72 0 00-4.895.013c-.666.003-1.332.02-1.968.263-.065.025-.142.013-.25.02.035-.192.057-.36.095-.523.205-.897.356-1.803.43-2.722.054-.672.091-1.346.157-2.018.058-.599.2-1.184.613-1.637.6-.658 1.285-1.192 2.168-1.41 1.12-.278 2.246-.524 3.395-.64a49.88 49.88 0 011.943-.164c.989-.061 1.979-.133 2.97-.148 1-.015 2.002.028 3.004.057 1.243.035 2.482.138 3.71.334 1.406.225 2.805.5 4.208.746.132.023.273.003.41.003a.875.875 0 00.003-.042c-.056-.024-.112-.052-.17-.072-1.18-.395-2.371-.749-3.595-.96C45.399.73 44.203.578 43.01.41a24.697 24.697 0 00-3.623-.245c-1.21.008-2.423.036-3.632.099-.752.039-1.5.154-2.251.24-.275.031-.549.104-.824.108-.297.005-.595-.052-.892-.076-1.04-.085-2.08-.18-3.12-.245a122 122 0 00-3.584-.172A212.56 212.56 0 0020.097 0c-1.48-.014-2.955.097-4.408.414-.947.208-1.86.514-2.673 1.07-.782.536-1.301 1.263-1.525 2.202-.2.84-.146 1.691-.085 2.542.07.961.142 1.922.21 2.884.058.807.112 1.614.168 2.42.013.185.03.369.047.553a.333.333 0 00.036-.157c.025-.556.064-1.113.074-1.67.02-1.05.03-2.1.033-3.15.003-.879-.046-1.759-.002-2.634.046-.905.435-1.664 1.14-2.239.612-.497 1.323-.776 2.062-.989 1.5-.43 3.041-.554 4.587-.606a85.975 85.975 0 013.1-.036c2.818.008 5.636.025 8.453.04.183 0 .367.014.55.017.178.004.356.001.535.001a.37.37 0 01-.166.07c-.897.188-1.794.378-2.644.742-1.182.506-1.982 1.367-2.229 2.666-.159.833-.214 1.686-.316 2.53-.07.584-.107 1.175-.22 1.75a28.632 28.632 0 01-1.002 3.79c-.035.103-.075.145-.184.14-.456-.017-.913-.05-1.369-.033-1.63.057-3.26.127-4.889.201-1.44.065-2.882.13-4.321.216-.774.047-1.545.14-2.318.206-.344.03-.69.075-1.032.057-.576-.031-.776.218-.749.752.014.262.324.516.54.443.256-.086.486-.019.719.065.04.015.087.087.088.133.006.343-.005.685.001 1.029.004.278.017.556.039.833.027.342.07.681.102 1.022a.744.744 0 01-.233.636 1.343 1.343 0 00-.28.42c-.106.243-.183.5-.262.754-.145.466-.065.448-.563.46a1.201 1.201 0 00-1.168 1.123c-.044.883.783 1.561 1.612 1.319.132-.04.204-.002.229.13.013.072.017.146.026.236-.15.02-.285.045-.419.05-.425.019-.85.02-1.274.046-.463.029-.451.073-.5.418-.007.042-.027.082-.03.124-.012.201-.063.412-.023.602.177.83.983 1.52 1.86 1.614.824.087 1.643.05 2.456-.12.29-.06.582-.115.896-.177.018.18.04.338.05.496.04.718.124 1.43.321 2.121.268.936.635 1.816 1.354 2.496.035.034.06.079.1.134-.104.016-.182.037-.26.038-.419.007-.838.005-1.258.012-.823.014-1.646.034-2.47.048-.508.009-1.016.021-1.524.014-.803-.01-1.605-.067-2.407-.049a190.65 190.65 0 00-4.655.17c-1.272.06-2.543.151-3.815.232-.072.004-.141.041-.212.063 0 .017.002.033.003.05.098.024.196.064.295.07.723.046 1.445.101 2.168.123 2.754.082 5.507.086 8.262.052 3.662-.045 7.324-.048 10.986-.067 3.946-.02 7.891-.043 11.836-.06 2.309-.01 4.618-.014 6.926-.016 10.268-.007 14.173-.01 24.44-.024 2.199-.003 4.431-.094 6.629-.12.03 0 .06-.005.092-.007.515.032.438-.24.044-.257z"/><path d="M45.368 7.022l.024.083c-.262.095-.328.071-.397-.162-.34-1.152-.676-2.305-1.014-3.458-.012-.04-.026-.083-.025-.124.002-.08-.063-.188.075-.22.164-.038.234-.005.275.157.145.581.269 1.169.433 1.743.192.666.418 1.321.629 1.981m-1.2.115c-1.237-.012-2.464.083-3.672.36-.543.124-1.075.298-1.608.466a.588.588 0 01-.585-.096c-.536-.412-.943-.916-1.085-1.618a1.67 1.67 0 01.077-.88c.2-.59.529-1.087.985-1.49.35-.311.773-.45 1.212-.509a34.897 34.897 0 011.965-.195c.415-.031.832-.028 1.247-.035.251-.004.313.068.309.343-.032.005-.065.014-.098.015l-3.21.093a.744.744 0 00-.618.316c-.144.197-.3.385-.448.578-.017.023-.022.056-.045.118.33-.023.638-.043.944-.067 1.041-.082 2.083-.165 3.124-.245.182-.015.365-.026.547-.031.304-.01.34.021.437.36-.085.018-.166.046-.25.05-.623.036-1.247.05-1.868.106-.646.058-1.289.151-1.932.238-.356.049-.71.11-1.065.174a.523.523 0 00-.418.53c0 .187.077.267.255.245.362-.046.722-.106 1.084-.15.77-.095 1.54-.192 2.31-.274.631-.067 1.264-.11 1.895-.171.378-.037.468.034.51.462-.281.019-.562.04-.843.055-.72.036-1.44.05-2.157.11-.616.05-1.228.15-1.84.233-.317.043-.633.093-.948.143-.178.028-.217.077-.172.253.04.159.091.316.153.466.073.175.173.23.356.188.555-.123 1.106-.26 1.661-.38a18.444 18.444 0 013.058-.403c.213-.01.425-.031.637-.051.336-.033.496.07.62.4.033.087.075.171.128.293-.239 0-.446.002-.653 0m2.67-4.921a52.018 52.018 0 00-1.728-.151c-.425-.031-.851-.074-1.276-.063-.912.022-1.824.078-2.736.116-.95.04-1.89.138-2.813.384-.517.138-1.03.288-1.467.629-.293.228-.556.485-.657.872a4.607 4.607 0 00-.156 1.374c.035.822.284 1.586.621 2.317.203.44.517.788.906 1.058.286.198.602.292.94.228.384-.072.765-.16 1.143-.26.943-.246 1.887-.489 2.857-.596a122.74 122.74 0 012.118-.212c.342-.032.687-.075 1.028-.061.304.012.607.053.913.067a29.3 29.3 0 011.698.146c1.023.109 2.045.23 3.068.342.197.022.395.031.592.046l.007-.046-.134-.052c-1.17-.427-2.387-.613-3.605-.799-.642-.098-1.284-.19-1.924-.296-.077-.013-.177-.08-.206-.15-.054-.128-.068-.276-.089-.417-.022-.148.037-.212.187-.197.716.073 1.433.134 2.15.211.881.094 1.762.203 2.645.298.131.014.267-.01.401-.016l.007-.067c-.237-.07-.472-.148-.71-.209a29.5 29.5 0 00-3.394-.63c-.407-.053-.817-.086-1.225-.13-.117-.012-.244-.025-.287-.165-.044-.144-.067-.295-.1-.447.038-.01.057-.02.077-.02.111-.005.223-.012.334-.012 1.27.002 2.534.073 3.796.22.15.018.305.003.457.003l.007-.047c-.064-.022-.126-.05-.191-.065-1.355-.3-2.723-.5-4.103-.619a3.602 3.602 0 01-.482-.065c-.148-.034-.219-.2-.176-.39.033-.145.152-.074.227-.072.294.008.588.032.881.05.815.05 1.63.104 2.446.145.344.017.69.003 1.035.003a.232.232 0 00-.108-.052c-.68-.117-1.358-.242-2.038-.347-.837-.13-1.675-.25-2.514-.363-.227-.03-.345-.152-.384-.378-.008-.047-.019-.093-.033-.164.095-.01.175-.03.254-.026.567.034 1.134.062 1.7.112.798.071 1.594.168 2.392.236.69.059 1.307.288 1.809.802.428.44.78.937 1 1.529.258.699.513 1.399.774 2.096.04.106.104.201.156.301L53 8.191c-.04-.33-.076-.661-.123-.99-.115-.8-.322-1.57-.7-2.28-.55-1.033-1.31-1.81-2.414-2.158-.955-.302-1.94-.44-2.927-.547M68.67 31.095c-2.434-.028-7.53-.097-10.84-.095-3.536.002-7.072.02-10.608.035-2.799.01-5.597.02-8.396.04-3.962.029-7.925.054-11.888.104-3.673.047-7.345.122-11.017.19-2.408.044-4.816.096-7.223.147-1.17.024-2.34.048-3.509.084-.393.012-.786.062-1.18.094A3.552 3.552 0 014 31.78c.102.023.203.06.306.067.594.038 1.188.091 1.783.097 1.444.014 2.888-.001 4.331.006 2.805.014 5.608.055 8.411.05 5.18-.009 10.361-.038 15.541-.066 3.147-.017 6.293-.05 9.439-.071 3.794-.026 7.588-.043 11.383-.071 2.53-.019 6.123.052 8.6-.02 2.349-.066 4.678-.13 7.027-.215.043-.001.086-.01.13-.016.001-.022.047-.302.049-.323-.103-.021-.205-.055-.308-.06-.674-.024-1.348-.054-2.022-.062"/><path d="M58.503 9.523c1.11.502 2.002 1.254 2.485 2.45.115.284.186.587.266.884.044.162-.013.24-.167.235a62.815 62.815 0 01-1.282-.07c-.079-.004-.142-.035-.133-.144.082-1.014-.257-1.89-.822-2.686-.16-.226-.334-.442-.53-.7.084.014.138.01.183.03M53.748 7.6c-1.857-.07-3.713-.019-5.57.045a362.7 362.7 0 00-4.787.197c-.655.031-1.308.094-1.962.153-.684.063-1.367.133-2.05.211-.61.069-1.217.15-1.825.231-.185.025-.37.067-.554.1l.007.06c.176.01.353.03.53.027 2.284-.048 4.569-.123 6.854-.143 2.491-.022 4.983 0 7.475.014.803.004 1.608.028 2.41.076.568.035 1.133.132 1.701.19.497.051.956.208 1.335.55 1.027.932 1.505 2.135 1.566 3.54.006.135-.082.154-.158.154-.045.001-.103-.065-.134-.115-.027-.044-.025-.107-.035-.16a5.691 5.691 0 00-.795-1.994.918.918 0 00-.49-.402c.045.09.07.151.103.206.412.681.564 1.436.58 2.23.006.254-.016.273-.252.293-.553.049-1.106.098-1.659.15-.741.07-1.483.149-2.226.212-.742.063-1.487.111-2.23.168-.045.004-.09.027-.134.042l.005.048c.096.012.192.032.289.035.83.022 1.661.024 2.49.065.924.045 1.845.155 2.77.183 1.993.06 3.987.085 5.96-.31l.618-.128.005-.078c-.132-.041-.262-.096-.397-.121-.25-.046-.503-.068-.752-.114-.123-.023-.215-.098-.193-.255.03-.205.065-.247.247-.234.691.046 1.382.116 2.073.143.724.028 1.45.02 2.174.024.087 0 .175-.031.263-.048-.03-.05-.055-.071-.083-.077-.845-.17-1.687-.355-2.536-.5-.63-.109-1.267-.173-1.902-.243-.221-.025-.348-.113-.417-.348a4.919 4.919 0 00-.648-1.361c-.703-1.035-1.675-1.669-2.799-2.08-1.028-.375-2.1-.485-3.175-.566-.305-.023-.35-.062-.413-.366-.151-.736-.325-1.465-.603-2.162-.284-.71-.587-1.41-1.042-2.025-.032-.043-.074-.078-.11-.117l-.05.028c.535 1.468.985 2.958 1.1 4.573-.198 0-.386.006-.574 0m13.055 25.681c-1.536-.031-2.113-.062-3.648-.094-2.952-.063-2.188-.016-5.14-.066-2.58-.044-5.161-.07-7.742-.085a1539.7 1539.7 0 00-11.771-.036c-2.968.007-5.936.054-8.903.088-3.955.046-7.91.077-11.865.153-2.444.048-4.888.165-7.332.254-.133.005-.266.04-.399.062l-.003.06c.066.012.132.03.199.033.287.018.574.035.861.046 1.467.058 2.935.13 4.402.165 2.513.061 5.026.14 7.539.138 7.831-.006 15.663-.045 23.495-.077 2.644-.011 5.288-.029 7.931-.064 3.782-.052 3.85-.118 7.631-.187 1.844-.034 2.729-.091 4.573-.142.123-.003.246-.037.369-.056l-.002-.175c-.065-.006-.13-.016-.195-.017M63.979 35c-2.323.002-4.646-.003-6.97.015-3.246.026-6.492.073-9.74.106-2.644.027-5.29.046-7.934.07-4.43.037-8.859.079-13.288.112-2.63.02-5.259.025-7.888.038-.053 0-.106.008-.159.013.03.051.062.067.095.07.74.071 1.48.172 2.222.206 1.983.091 3.967.167 5.951.224 2.127.061 4.254.117 6.382.133 2.576.02 5.153.017 7.729-.012 3.753-.043 7.507-.09 11.26-.188 2.965-.078 5.93-.226 8.893-.363 1.329-.062 2.656-.174 3.983-.264.16-.01.32-.026.48-.04l.005-.054c-.087-.013-.174-.035-.261-.04-.254-.013-.507-.026-.76-.026M34.436 8.916c-.085.023-.18 0-.27 0-.799.004-1.596.005-2.394.016-.385.005-.769.032-1.154.047-.254.01-.317-.04-.393-.301-.02-.069-.037-.138-.065-.24l1.145-.042c.351-.012.703-.019 1.053-.036.305-.015.457-.298.31-.583-.024-.043-.127-.058-.19-.053-.303.023-.604.058-.905.09-.411.044-.822.091-1.234.134-.172.018-.23-.05-.21-.235.043-.381.082-.41.439-.436a95.3 95.3 0 001.883-.158c.315-.03.43-.22.34-.543-.009-.031-.07-.07-.104-.068-.248.02-.497.044-.744.076-.52.067-1.038.14-1.558.21-.027.004-.055 0-.084 0-.002-.024-.006-.039-.004-.053.065-.444.066-.436.49-.487.634-.075 1.268-.163 1.902-.246.114-.014.18-.076.197-.204.058-.412-.003-.482-.388-.403-.594.122-1.186.252-1.779.377-.06.013-.122.018-.198.03a.545.545 0 01.205-.46c.183-.16.401-.21.63-.229l1.9-.15a1.91 1.91 0 01.2-.007c.18.007.273.124.261.338-.116.014-.234.025-.352.042-.184.026-.221.093-.199.29.033.29.052.343.387.295.086-.013.172-.025.259-.025.18.002.24.072.237.266 0 .056-.008.112-.014.18l-.588.066c-.228.025-.355.317-.218.517.021.03.093.037.139.032.186-.023.371-.054.556-.083.245-.038.327.02.377.273.023.115.04.23.066.375l-.824.088c-.029.003-.058.002-.087.003-.329.012-.47.212-.392.56.028.125.125.114.21.102.266-.035.532-.08.799-.117.123-.018.247-.03.402-.048.032.22.072.434.087.65.003.049-.073.135-.126.15m.329-1.717c-.178-.681-.337-1.368-.521-2.048-.15-.555-.48-.935-1.03-1.04a5.698 5.698 0 00-2.782.136c-.485.148-.781.499-.921 1.01-.047.172-.1.342-.139.517-.084.379-.19.755-.232 1.14-.068.606-.09 1.219-.135 1.828-.044.614.19 1.006.75 1.122.426.088.866.094 1.3.136l.004-.045c.274 0 .548.012.821-.002a40.956 40.956 0 001.785-.12c.299-.03.6-.09.887-.182.288-.09.447-.325.447-.66 0-.375.004-.75-.005-1.125-.002-.091-.044-.184-.076-.272-.048-.133-.118-.259-.153-.395"/><path d="M40 1.066c-.728-.104-1.45-.072-2.17.006a19.84 19.84 0 00-4.016.863 1.869 1.869 0 01-.8.086c-.086-.01-.171-.035-.256-.052l-.001-.043 1.387-.526-.026-.08c-.564.123-1.146.196-1.687.38-.9.305-1.776.672-2.654 1.03-.354.145-.619.408-.824.72-.374.564-.532 1.198-.623 1.85a65.97 65.97 0 00-.205 1.645 25.11 25.11 0 00-.123 1.284c-.017.28.104.517.337.695.1.075.203.103.323.044-.003-.017-.002-.036-.01-.048-.343-.469-.33-1.004-.242-1.523.166-.99.376-1.974.585-2.957.13-.614.47-1.083 1.1-1.319.242-.09.485-.177.73-.262.972-.336 1.965-.531 3.006-.394.653.087 1.18.344 1.453.962.02.043.074.071.134.127-.023-.53-.23-.892-.64-1.146-.102-.064-.217-.106-.32-.167-.038-.022-.08-.07-.08-.106-.002-.029.054-.072.093-.085.136-.043.275-.076.414-.111a27.355 27.355 0 013.787-.692c.444-.047.886-.12 1.328-.18M28 2.598c-4.673-1.024-9.344-.628-14 .4.064 0 .13.004.194 0 .675-.033 1.35-.061 2.025-.102.957-.058 1.914-.13 2.871-.188 1.153-.07 2.307-.175 3.46-.184 1.64-.014 3.28.046 4.92.073.187.003.374 0 .53 0M26 3l-10 .769v.042L26 4V3zm0 2l-8 .51v.032L26 6V5zm-1 3V7l-5 .635v.046L25 8m27 5.613l-.005-.095-.598-.082c-1.047-.146-2.094-.296-3.14-.435-.085-.01-.172.058-.257.09.057.112.11.235.173.331.209.317.418.61.72.575.934-.105 1.87-.185 2.804-.281.102-.011.202-.067.303-.103m-18.209 2.242c-.574.027-1.148.054-1.721.102-.358.03-.713.095-1.07.144l.008.056h.213c.55-.01 1.099-.02 1.648-.032.306-.007.611-.017.917-.033.098-.005.22-.022.214-.153-.006-.139-.136-.088-.209-.084M27 12.596c.011.274.145.41.398.404.322-.008.608-.276.602-.566-.005-.255-.222-.443-.5-.434-.288.01-.511.276-.5.596m20.176 7.347c.194-.388 1.072-.508 1.421-.194.165.147.232.312.127.502-.103.185-.3.268-.629.297-.241-.064-.488-.116-.722-.193-.224-.074-.287-.233-.197-.412M47.49 21c.502.002.885-.212 1.25-.443a.545.545 0 00.186-.244c.16-.356.052-.678-.247-.958-.302-.282-.697-.406-1.162-.336a7.746 7.746 0 00-.843.178c-.504.135-.772.546-.64.952.16.5.766.853 1.456.851m-8.345-6.001c.635-.046 1.27-.109 1.906-.133.878-.033 1.756-.036 2.634-.053.045 0 .09.003.134-.01.13-.04.184-.187.18-.464-.001-.224-.07-.315-.194-.316-.04 0-.08-.013-.12-.015a9.277 9.277 0 00-2.439.235c-.527.117-1.053.26-1.579.395-.219.057-.443.092-.667.361.074 0 .11.002.145 0m2.518 1.026c-.537.012-1.074.05-1.663.077.185.488.412.647.668.664 1.301.085 2.602.156 3.903.23.14.008.281 0 .429 0-.113-.733-.307-.999-.708-.996-.876.006-1.753.008-2.629.025m.525 1.786c-.186.001-.233.105-.146.264.063.114.167.122.279.113l1.967-.145c.235-.018.47-.037.706-.054l.006-.062c-.041-.008-.083-.02-.124-.023-.369-.029-.737-.07-1.106-.082a43.467 43.467 0 00-1.582-.01m-6.068-.813c.38-.042.76-.08 1.14-.13a26.48 26.48 0 001.282-.189c.222-.04.363-.267.458-.68-1.058-.011-2.043.31-3 .887l.006.1c.038.005.077.016.114.012m8.634-3.887c.151.005.25-.046.246-.193-.343-.07-2.699-.015-3 .087.134.01.248.023.362.027.797.028 1.595.054 2.392.079m-1.138 11.165c.591-.84.44-1.673-.048-2.499a.529.529 0 00-.193-.17 18.42 18.42 0 00-.837-.444 1.45 1.45 0 00-1.72.283c.185-.022.336-.044.487-.06.46-.045.89 0 1.272.242.888.566 1.008 1.627.246 2.304a1.253 1.253 0 01-.995.323c-.17-.016-.34-.047-.51-.071a.94.94 0 01-.685-.412c-.102-.15-.195-.306-.314-.448-.068-.082-.18-.14-.272-.21-.015.012-.031.022-.047.033.016.092.023.185.048.276.083.307.172.617.467.841.261.198.543.38.825.558.093.059.213.098.328.124.785.173 1.536-.085 1.948-.67"/><path d="M41.119 21.841c-.191.01-.26.106-.232.318l.232-.318m6.701-4.928c.486.23 1.05-.014 1.17-.506.032-.128-.012-.176-.136-.139-.067.02-.13.058-.196.086a.624.624 0 01-.687-.108c-.64-.536-.547-1.56.177-1.965.104-.058.205-.12.308-.18v-.076c-.086-.008-.173-.034-.255-.022-.376.06-.683.245-.911.562-.552.766-.283 1.962.53 2.348m18.876-1.005c.479.203 1.083.059 1.304-.322-.128-.01-.25-.019-.372-.03-.406-.04-.738-.194-.958-.493-.254-.345-.11-.742.325-.907.107-.04.224-.061.35-.095-.429-.178-.988.045-1.24.49-.271.478.003 1.107.591 1.357"/></g></svg>