<svg xmlns="http://www.w3.org/2000/svg" xmlns:xlink="http://www.w3.org/1999/xlink" width="128" height="96" viewBox="0 0 128 96"><defs><path id="a" d="M0 0h128v96H0z"/></defs><g fill="none" fill-rule="evenodd"><mask id="b" fill="#fff"><use xlink:href="#a"/></mask><path fill="#B7BEAC" d="M78.465 46.75c-1.04-.063-2.041-.17-3.196-.104.688.419 2.57.411 3.196.104m-9.942-5.29c2.344-.061 5.231.488 7.325.17-2.119-.196-5.445-.476-7.325-.17m-11.648 4.68c0 .045.065.09.076-.003-.545-.334-1.132.227-.076.004m.817-4.865c-.042 0-.086.069.004.08-.006-.133.213-.052.227-.17-.666-.111-1.36-.146-1.947.003.56.06 1.411.134 1.716.087m24.09-10.924c.368-.514.092-2.79-.301-3.689-.1.91.309 2.861.301 3.69m28.87 30.325c-.754-.805-1.035-2.14-1.382-3.4.514 1.07 1.092 2.074 1.382 3.4m-1.462-5.41c-.151-.138-.297-.284-.26-.634.146.147.27.314.26.634m-1.383-7.346c-1.567 2.856-5.277 4.346-9.003 4.648-.159-.81.078-1.862.2-2.825 3.175-.04 6.823-1.764 8.092-4.047 1.097-1.978 1.072-4.78.63-7.591.646 1.336 1.153 3.265 1.077 5.505-.054 1.669-.57 3.184-.996 4.31m-.306 4.037c.019-.11.192-.074.307-.093.03.89.603 1.17.703 1.982-.577-.36-.457-1.502-1.01-1.89m-4.105 2.51c-1.218.525-2.435.733-3.776.966-2.471.428-5.048.568-7.622.244.162-.908-.1-1.965.451-2.354.565.19 1.144-.076 1.565.174.305.448-.044 1.194.146 1.685.398-.442.104-1.209.321-1.704.58-.179 1.434-.133 1.865-.08.206.613-.123.927-.012 1.61.314-.377.173-.746.255-1.378.43-.265 1.43-.677 1.858-.24 3.977-.699 7.524-1.805 9.478-4.428l.157-.007c-.522 2.636-2.379 4.515-4.686 5.512m-9.177 6.105c-.289-.335-.258-1.488-.148-1.765.317.472.053 1.077.148 1.765m.048 1.206c-.338-.03-.328-.801-.117-.962.124.26.182.726.117.962m-.655 7.03c-.619-.59-.166-1.875-.351-2.963-.072-.352.238-.34.288-.575-.37-1.043-.26-2.71.012-3.624.472 1.924.047 4.92.05 7.162M90.01 52.623c-.216-.884-.03-2.034.2-2.744.65-.056 1.248-.056 1.72.088.109.813.232 2.202-.204 2.743-.578-.022-1.207.013-1.716-.087m1.757 3.064c-2.914.036-4.674.054-7.322-.09.154-.895.362-1.338.376-2.27.654-.113 1.794-.21 2.264.145.018.68-.224 1.42-.003 1.852.311-.316.144-1.427.466-1.952.531-.153.935-.02 1.71-.073.516.425.041 1.423.232 1.923.304-.466.121-1.118.4-1.71.465-.294 1.531-.269 1.87.083.012.795.07 1.286.007 2.092m3.522 2.667c.033 1.31.223 3.094.018 4.346-.214 2.579.479 6.93-.329 9.35-.221-4.842.266-9.265-.048-14.887l.233-.01c.44.212.115.74.126 1.201m-5.805 10.39c-.342-3.88-.402-7.88-.07-11.507.104.023.129.136.24.15.063 3.207.054 8.176-.17 11.356m-1.607 2.644c-.54-.292-.37-1.126-.145-1.685-.365-.757-.172-1.77-.102-2.57l.231-.01c.2 1.67.065 2.625.016 4.265m3.902.478l-.023-.563c.378-.163.33.674.023.563M87.2 62.24c.331.035-.058.574-.047.806-.099-.076-.016-.63.047-.806m3.409 9.594c-.469-4.114.092-9.89-.13-14.966.102.025.126.136.24.151.206 4.625-.055 9.724-.11 14.815m-6.527-3.828c-.18-2.523.19-5.13.312-7.82.07.033.14.064.161.154-.205 2.355.167 5.516-.473 7.666m.203 1.198c-.304.002-.241-.35-.177-.555.29-.077.114.375.177.555m4.02 3.452c-.587-1.034.118-2.29.024-3.301.316.826.027 2.56-.024 3.301m-.712-.292c-.405-2.98.151-6.902.216-10.231.088-.017.138.011.158.074.266 1.642-.342 3.14-.284 4.6.026.684.294 1.338.313 1.999.034 1.224-.358 2.435-.403 3.558m-4.761-8.41c-.105-.128-.22-.427-.101-.559.226-.008.2.446.1.56m.932-1.973c-.038-.794-.069-2.36.197-2.905.19.903-.03 2.084-.197 2.905m.206-4.596c.377.327.093 1.272.144 1.604-.441-.356.02-1.244-.144-1.604m-4.112-1.676c-1.257-.526-3.284-.044-4.766-.36.158-1.013-.113-1.523.223-2.263.584-.096 1.243-.2 1.87.081.089.467.023.41.117.96.29-.187.018-.909.348-1.061.697-.028 1.358-.014 1.948.079.015.592-.068.987-.007 1.771.393-.297.214-1.137.403-1.627.593-.122 1.378-.361 1.716.088.08.515-.085.796-.026 1.29.409-.255.122-1.172.485-1.47.941-.036 1.484-.062 2.338.06-.03 1.039-.178 1.487-.373 2.35-1.53.119-3.013-.26-4.276.102m1.031 4.464c-.34-.585-.254-2.42-.05-3.217.603.556-.057 2.147.05 3.217m-.116 6.846c-.383-.645.03-1.673-.109-2.732.35.721.003 1.681.11 2.732m-.099 1.453c-.177-.2-.102-.816-.041-1.045.304.31-.015.712.041 1.045m-.105 3.225c-.326-.287-.062-1.207-.068-1.689.115.5.162 1.13.068 1.689m-2.772-7.045c.076-.002.065.094.084.155.029.933-.278.86-.084-.155m-.129 6.524c-.26-.48.051-1.085-.067-1.688.317.32.564 1.397.067 1.688m-2.81-15.818c-.915.148-1.806-.039-2.487.106-.072-.615.146-1.862.056-2.497 1.07-.034 1.694-.084 2.497.136-.019.62.092 1.456-.066 2.255m-.62 2.039c.252.067.106.467.191.878-.326.003-.102-.613-.19-.878m.115 2.894c-.326-.146.018-.742-.126-1.203.408.17-.03.768.126 1.203m-.16 3.79c.075-1.285.002-2.298.09-3.627a6.9 6.9 0 01.22 1.681c.01.601.035 1.45-.31 1.945m-.507-2.957c-.204-.889-.089-1.727-.102-2.572.314.516.096 1.837.102 2.572m-1.633-5.806c-.937.065-1.668.241-2.416-.058-.095-.635.035-1.575.143-2.26.723-.2 1.615-.133 2.417.059-.077.766.077 1.516-.144 2.259m-1.108 13.247c.102-1.396-.002-2.992.22-4.275-.004 1.183.237 3.268-.22 4.275m-.37-7.309c.504 1.198.045 3.517-.02 5.313-.23-1.686.023-3.585.02-5.313m-.153 5.882l-.017-.401c.235-.133.261.514.017.4M69.406 55.27c-.777.048-1.672.21-2.343-.142.157-.896-.147-1.777.455-2.271.725-.007 1.088-.066 1.792.003.15.64.195 1.76.096 2.41m-.325 13.375c-.016 1.027.097 2.143-.348 2.994-.266-4.592.402-8.192.193-12.726-.037-.32.352-.232.37-.5-.083-.31-.275.28-.31.014.016-.6-.087-1.318.247-1.619.065.04.128.078.236.07a395.878 395.878 0 00-.388 11.767m-1.093 3.83c-.137-4.894.247-10.377.24-15.464.023-.106.133-.132.145-.247.091-.018.142.012.16.074.023 4.898-.063 10.636-.545 15.637M66.68 55.307c-1.718-.265-3.035-.035-4.834-.197.093-.998.136-1.372.136-2.421a6.027 6.027 0 011.718.088c.345.558-.067 1.394-.073 2.096.674-.24.36-1.678.464-2.031.148-.16.769-.141.932-.04.161.21.075.7.12 1.04.381-.1.132-.8.428-.984.401-.03.88.012 1.163-.129.296.781.302 1.988-.054 2.578m-5.725 12.638c.043-3.555.827-7.853.799-11.223l.233-.01c-.204 3.5-.389 7.296-1.032 11.233m-.749-12.926c-.36-.666-.105-1.544-.014-2.335.586-.069 1.04.01 1.558.014.144.909-.276 1.614-.063 2.338-.231.069-1.205-.14-1.48-.017m-.435-3.12c-.705.012-1.365.102-1.714-.09-.118-.599.107-.873.261-1.217-.13-.41-.3-.232-.335-.63-.093-.962 1.35-.774 2-.488-.151.73.003 1.754-.212 2.425m-.264 3.15c-.533-.083-.808-.16-1.403-.022-.297-.703.123-1.7-.173-2.406.621-.055 1.06.096 1.712.008.18.892.187 1.791-.136 2.42m-1.767-3.306c-.446.1-.97.241-1.395.14-.524-.63-.06-1.605-.253-2.404.238-.412 1.14-.27 1.628-.23-.073.944-.01 1.772.02 2.494m-.102 3.304c-.574-.137-1.433.04-1.878-.242.071-.583.12-1.426.223-2.182.763-.024 1.234-.059 1.792.004-.065.806.06 1.611-.137 2.42m-2.341-.14c-.687.055-1.073.155-1.56-.096.083-.744-.046-1.692.3-2.186.44-.203.795.034 1.479-.063.295.61.055 1.789-.22 2.344m-1.307 4.32c.08 1.305-.327 2.768-.459 4.125-.012-2.455.315-4.426.75-6.631l.232-.01c-.027.677-.136 1.925-.523 2.516m-2.123-4.416c-.244-.553-.073-1.608.067-2.257.478.023 1.122-.14 1.48.018.208.728.174 1.64-.141 2.34-.34-.176-1.07.084-1.406-.1m-.281 2.667c.065-.333.02-.324.047-.726.257.1.234.66-.047.726m-1.916-3.137c.07-.63.047-1.348.237-1.862.608-.066 1.1-.004 1.636.01.182.794-.064 1.777-.295 2.427-.512.091-1.139-.311-1.578-.575m1.055 8.888c-.268-.387.074-.855.025-1.289.232.353-.08.85-.025 1.29m-1.428-8.471c-.313.035-1.136.09-1.558-.015.035-.91.105-1.33.225-2.183.372-.167 1.189-.18 1.48.018-.036.6.064 1.545-.147 2.18m-2.125 7.253c-.25 1.878-.52 3.804-.944 5.594.458-3.264.875-7.52 1.504-11.091.09-.018.139.013.158.073.253 1.744-.469 3.549-.718 5.424m-1.046 6.966c-.236-.13.03-.43-.025-.642.235.131-.028.43.025.642m-.104-14.322c-.15-.64.016-1.56.147-2.178.482-.088.926-.16 1.4-.06.047.843-.172 1.434-.225 2.182-.37.19-.95.254-1.322.056m-.618.107c-.523.042-.798-.301-1.25-.108-.234-.743.037-1.592.143-2.26.53-.061.949 0 1.402.021.214.582.193 1.953-.295 2.347m-1.05 10.75c.168-2.83.668-6.012 1.046-8.899a.35.35 0 00.236.07c-.215 3.01-.848 5.844-1.283 8.828m-1.935 6.119c.5-5.027 1.65-10.012 2.281-14.987.092-.017.14.013.161.074-.618 5.16-1.339 10.218-2.442 14.913m-.098-20.036c-.337-.784-.105-1.818.053-2.578.513.01 1.186-.157 1.483.098.17.855.112 1.625.021 2.493-.518-.006-1.154.122-1.557-.013m1.212 3.087c-2.098-.101-3.311-.105-5.456-.17.221-.69.079-1.729.455-2.273a3.147 3.147 0 011.562.175c.014.619-.258 1.333-.08 1.854.383-.5.304-1.282.317-1.785.353-.287 1.054-.326 1.477-.062-.037.684-.236 1.351.073 1.848.461-.283.02-1.425.317-1.865.378-.11 1.11-.062 1.557.015.274.827-.132 1.414-.222 2.263m-1.486 7.629c-.09.095-.131.236-.383.177-.46 1.743-1.029 3.808-1.411 5.614-.08.38.137.88-.346 1.061.467-2.407.961-5.27 1.558-7.793.439.04.615.372.582.94m-3.654-1.775c.108-1.42.337-2.722.702-3.893.09-.018.14.011.16.073-.206 1.35-.432 2.68-.862 3.82m.268 2.805c.123-1.92.731-4.045 1.086-6.002-.133 1.911-.735 4.041-1.086 6.002m-1.544 8.115c.138-2.678 1.065-5.273 1.392-8.027-.077 2.734-.795 5.53-1.392 8.027m-.314-2c-.174.15.046-.473.052-.645.177-.148-.045.474-.052.646m-.315 1.864c-.2-.477.163-1.08.169-1.616.26.532-.141 1.102-.17 1.616m.817-4.943c.111-.552.315-1.177.324-1.623.303-.305-.111.946-.18 1.294-.128.628-.19 1.291-.324 1.704-.127.143.086-.909.18-1.375m.905-4.627c.21.588-.253 1.2-.236 1.862-.205-.584.16-1.289.236-1.862m-7.068-7.426c-.147-.036-.33-.283-.48-.303-.23-.027-.891.36-1.172-.109-.29-.046-.33.151-.618.106-.07-.541.15-1.445.227-2.101.486-.328 1.158.003 1.717.086.062.62-.672 1.53.073 1.85.236-.445.162-1.187.402-1.628.42-.438 1.248-.21 1.862-.16-.024.254-.454 1.796.074 1.473-.012.009-.023.02-.013.055.251-.074.254-1.047.408-1.467 1.78.079 2.8-.058 4.291.22.078.776-.208 1.476-.228 2.102-1.902-.209-4.627.34-6.543-.124m5.814 7.238c-.178-1.41.548-2.623.7-3.973.172 1.401-.58 2.59-.7 3.973m-4.31-.703c-.004-1.423.591-2.938.84-4.38.09-.018.137.01.157.073-.248 1.515-.388 3.135-.997 4.307m-.458 2.194c-.193-.495.04-1.252.168-1.698l.31-.013c-.088.638-.298 1.16-.478 1.71m-3.038-2.044c-.083 1.261-.364 2.335-.886 3.177.274-2.385 1.21-4.76 1.982-6.926-.053 1.205-.643 2.92-1.096 3.75m-2.16.494c-.056.136-.234.775-.216.492.012-.693.182-1.263.397-1.788.196-.479.44-.971.723-1.399-.062.687-.558 1.842-.905 2.695m-.936 5.835c.43-1.396.767-2.878 1.151-4.315.1 1.587-.554 3.132-1.15 4.315m-2.084 2.422c.856-3.59 1.858-7.714 3.055-11.236.13.782-.41 1.7-.67 2.684-.73 2.761-1.462 5.94-2.385 8.552m-1.088.047c1.28-5.154 2.782-9.28 4.018-14.417.126-.028.138.07.237.07-.514 1.55-.754 3.744-1.5 5.296-.178 1.95-.997 3.736-1.495 5.457-.404 1.382-.36 2.667-1.26 3.594m3.247-16.235c-.79.019-1.37-.2-1.962-.4-.013-.127.024-.308-.093-.317.353-.464.468-1.156.71-1.721.647-.055 1.004.218 1.495.338-.166.705.024 1.566-.15 2.1m-2.597-.694c-.662-.259-.838-.172-1.341-.426.157-.6.231-1.275.311-1.946 1.503-.296 1.744 1.495 1.03 2.372m-2.06-.88c-.644.108-1.074-.026-1.337-.345-.033-.749.402-1.302.234-1.942.55-.412 1.05.28 1.573.417-.14.638-.265 1.294-.47 1.87m-2.359-4.486c.072-.602.3-1.055.403-1.626.235-.069.285.068.47.06.12.54-.102 1.318-.157 1.938-.349 0-.463-.263-.716-.372m.383 3.766c-.576-.109-.936-.46-1.428-.664-.031-.83.108-1.496.387-2.028.675-.058.88.412 1.347.586.067.896-.146 1.644-.306 2.106m-2.297 4.847c.416-1.356.98-2.572 1.644-3.692.16.017.16.211.32.227-.512 1.292-1.157 2.455-1.964 3.465m-.46-13.503c.783-.088 1.132 1.019 1.617 1.541-.585-.461-1.245-.84-1.617-1.541m.686 7.457c-.56.01-.726-.417-1.115-.596-.107-.928.27-1.392.303-2.187.443.175.92.311 1.195.675-.21.622-.223 1.435-.383 2.108m-.315-5.943c.928.192.205 1.51.002 2.012-.149-.029-.201-.165-.394-.143-.147-.614.352-1.189.392-1.87m-1.516 1.032c.023-.856.355-1.415.378-2.27.373 0 .402.383.643.537-.372.366-.332 1.124-.477 1.71-.136-.138-.257.081-.544.023m.067 3.617c-1.517-.24-1.191-1.997-.75-3.187.337.322.745.563.975 1.006-.127.82-.132 1.465-.225 2.181m-.457 6.139a47.604 47.604 0 01-1.067 2.539c-.368.82-.657 1.741-1.309 2.31.245-.621.149-1.132.72-1.48.186-1.007.878-1.535 1.067-2.54.474-.218.348-1.008.888-1.165.061.267-.118.3-.299.336m-2.505 5.498c-.313-.072.017-.44.132-.569.203.124-.241.28-.132.569m1.53-8.437c.1-.396.375-1.291.957-1.489-.123.685-.674.96-.957 1.49m-.747-9.063c-.13-.888.472-1.701.596-2.6.536.475.136 2.589-.596 2.6m.243 4.174c-1.069-.146-.741-1.933-.433-3.04.241.152.498.28.644.537-.069.836.202 1.996-.211 2.503m-1.765 4.584c.453-.729.879-1.483 1.475-2.075-.399.732-.893 1.772-1.475 2.075m-.802-8.417c-.27-.703.116-2.031.197-2.907l.232-.01c.152 1.122-.294 1.803-.429 2.917m-.755 2.526c-.22-.164-.009-.569.29-.495.027.282-.25.276-.29.495m-.735 1.078c-.615.927-1.354 2.391-2.062 2.986.696-1.426 1.72-2.536 2.573-3.812.243-.051-.333.555-.511.826M6.14 52.17c.134-.367.593-1.749 1.317-2.068-.297.823-.85 1.406-1.317 2.068m2.56-6.065c.126-.028.136.07.236.07-.833 1.63-1.687 3.238-2.936 4.471.631-1.77 1.912-2.922 2.7-4.541m-1.658 1.358c.195.402-.67 1.108-.87 1.647-.08-.596.586-1.142.87-1.647m3.275-3.76c.091-.017.14.01.159.072-.37.91-.827 1.737-1.543 2.32.26-.992 1-1.522 1.384-2.392m-.86-.127c.302.209-.278.854-.503 1.07.212-.315.259-.785.503-1.07m.589-.828c.328.367-.403.385-.358.739-.185-.229.275-.506.358-.74m2.164-.414c.227-.005.296.17.401.305-.455.67-.225 1.572-.525 2.437-.698-.397-.033-1.973.124-2.742m-.369-9.242c.116.326.054.677.036.885-.406-.035-.163-.685-.036-.885m.198-.892c.217.137-.023.488-.052.646-.344-.1.092-.37.052-.646m.489-1.39c.106.334.047 1.179-.418 1.226-.054-.594.31-.787.418-1.226m1.032-1.492c.162 1.501-.425 3.611-.648 5.26-.423-1.787.172-3.825.648-5.26m-1.054 8.738c.131-.368.057-.457.201-.813.124-.029.137.07.236.07-.031.357-.24.542-.437.743m.73.773c.248-.081.173.202.322.228-.041.245-.102.469-.37.5.002.493.036 1.548-.386 2.029-.13-.98.255-1.748.435-2.757m2.076-12.402l.31-.013c-.084 1.952-.493 4.01-.847 6.072-.345 2.014-.412 4.146-1.169 5.845-.1-.586-.322-1.038-.529-1.508.966-3.316.87-7.667 2.235-10.396m5.445-4.015c.357-.115.671-.406 1.075-.449.74-.076 1.874.254 2.813.283.55.019.907-.044 1.327.104-1.263 1.117-2.56 2.203-3.84 3.304-.542.018-.91-.105-1.4.06 1.007-1.078 2.383-1.805 3.311-2.96-.363-.509-.882.163-1.156.371-1.014.775-2.125 1.838-3.086 2.629-.511-.152-1.154.188-1.713-.01 1.113-1.156 2.67-1.889 3.608-3.212-.76-.139-1.619.836-2.28 1.386-.737.613-1.501 1.242-2.106 1.86l-1.32.056c1.067-1.748 2.697-2.752 4.767-3.422m7.398.006c-1.094 1.099-2.408 1.987-3.456 3.127-.468-.081-.767.09-1.325-.025.65-1.262 2.172-1.693 2.84-2.937.01-.096-.023-.144-.085-.16.67-.284 1.488.086 2.026-.005m1.96.32c-.87.95-2.077 1.579-2.857 2.617-.477-.022-1.12.139-1.478-.019.886-1.01 2.155-2.07 3.08-2.786.555-.09.877.08 1.255.188m2.027.075c-.946 1.132-2.249 2.585-3.95 2.502.701-1.033 1.856-1.635 2.703-2.53.485-.068.823.026 1.247.028m.547.057c.568.115.924.03 1.25.107-.13 1.139-1.332 1.257-1.704 2.166l-1.71.072c.586-.907 1.775-1.247 2.164-2.345m51.057-.402c-3.832.407-7.478.701-11.484.97-1.248.086-2.564.41-3.799.405-.546-.004-1.162-.216-1.722-.25-2.936-.17-6.146-.266-9.35-.165-1.27.041-2.586-.147-3.814.002-.6.072-.85.44-1.461.463-.717.03-1.582-.244-2.348-.301-5.588-.42-11.358-.931-16.95-1.372 16.737-.341 34.389.079 50.928.248m4.682.283c3.417-.163 5.906.444 8.25 1.822-7.947.264-16.203.355-24.744.41-1.004.006-2.386.233-2.677-.771 6.698-.29 13.633-1.198 19.171-1.461m8.878 25.458c2.152-1.618 5.458-3.795 7.807-5.322.473-.308 1.224.028 1.804.326-2.48 2.15-5.425 3.854-8.016 5.894-.599-.226-1.038-.626-1.595-.898m-.479 1.63c.741.11 1.29-.067 1.874.162-.294.948.045 1.971-.363 2.59-.493.048-1.104-.02-1.476.146-.023-1.143-.264-1.801-.035-2.897m-69.502.624c-.162-.702.24-1.383.306-2.105.615-.02.976.246 1.567.255-.13.724-.014 1.686-.46 2.112-.502-.052-1.005-.105-1.413-.262m-.502 1.068c.403.246 1.187.067 1.644.252-.11.837-.111 1.326-.145 2.18-.662-.129-1.096-.121-1.571-.336-.055-.822.245-1.374.072-2.096m-.77-3.669c.497-.055.735.183 1.1.275-.244.641-.309 1.457-.457 2.19-.423 0-.846.002-1.098-.193.238-.676.335-1.486.455-2.272m-.469-.062c-.186.725-.352 1.47-.454 2.273-.394-.063-.735-.181-.954-.442.18-.629.122-2.724 1.408-1.831m-2.528-2.87c-1.013-.854-2.2-2.225-3.098-3.49.079-.29.621-.452.842-.359.373.339.555.888.98 1.167.24 1.047 1.037 1.468 1.42 2.354.706.747 1.729 1.58 2.12 2.405-1.138-.263-1.635-1.245-2.264-2.077m.887 2.698c-.3.437-.157 1.294-.316 1.866-.394.049-.563-.152-.714-.372.11-.71.117-2.251 1.03-1.494m-3.158-1.073l.388-.016c.273.463.158 1.552-.392 1.869-.398-.457.195-1.339.004-1.853m3.374-18.896c.04.18.427-.03.4.224-.578 3.942-1.299 7.817-2.027 11.676-.425.137-.706.412-1.23.456.618-4.775 1.386-9.4 2.33-13.862l1.399-.06c-.135.669-.139 1.465-.872 1.566m1.435 6.7c-.264 1.39-.852 2.759-.767 4.217-.487.13-.815.409-1.303.54.543-4.276 1.342-8.446 2.206-13.052L27.209 26c-.74 2.77-1.092 5.594-1.614 8.358m3.054-7.374c-.078.412-.057.858-.107 1.212-.11.75-.476 1.45-.613 2.198-.42 2.3-.746 4.633-.808 7.12-.446.243-.93.452-1.454.624.77-4.008 1.495-8.06 2.323-12.012-.002-.29.652-.355.85-.196.068.264-.108.62-.191 1.054m.08 9.816c-.282.197-.656.305-.995.444.546-3.86 1.154-7.661 1.966-11.27.2-.22.668-.189 1.08-.208-.585 3.56-1.74 6.986-2.052 11.034m1.759-.8c-.266.133-.47.326-.842.357.315-3.849 1.204-7.149 1.911-10.624l.856-.036C31.895 29.249 31.06 32.5 30.487 36m2.624-10.334c.401.042.998-.13 1.168-.05.134 1.27-.66 2.627-.848 4.142-.234 1.88-.548 3.8-1.029 5.436-.389.068-.574.331-.998.364.449-3.582 1.32-6.317 1.707-9.892m1.222-.616l-1.4.06c.507-.781 1.452-1.144 1.867-2.011.516-.018 1.078-.09 1.405.1-.276.644-1.262 1.268-1.872 1.851m1.012-.042c.362-.739 1.244-.98 1.563-1.757.561-.04.926.137 1.484.097-.8.76-1.459 1.654-3.047 1.66m2.248-.178c.748-.517 1.165-1.7 2.514-1.393-.609.682-1.024 1.548-2.514 1.393m2.175-.172c.596-.736 1.138-1.37 2.448-1.07-.251.896-1.188 1.137-2.448 1.07m2.33-.099c.34-.592.886-1.137 1.762-.8-.319.686-.825.803-1.761.8m1.94-.162c-.093-.373.3-.28.208-.654.37.088.88.02 1.25.108-.048.598-.813.515-1.458.546m.49.542c.331.017.798-.112 1.014.037-.042 1.715-.398 3.125-.593 4.692-.355.102-.584.322-.998.365.164-1.725.18-3.589.577-5.094m-2.768 6.797c.29-.239.703-.363 1.07-.528.89.792 1.549 1.844 2.218 2.884-.062.354-.367.477-.758.514-.791-.702-1.575-2.076-2.53-2.87m-1.683.716c.35-.261.857-.37 1.221-.616.282 1.101 3.841 3.232 1.556 3.878-1.171-.853-1.754-2.478-2.777-3.262m-1.146.533c.18-.19.434-.308.763-.355.76 1.302 1.836 2.248 2.556 3.593-.124.138-.342.191-.452.342-1.06-1.079-1.834-2.477-2.867-3.58m.1 2.49a29.016 29.016 0 01-1.33-2.037c.32-.032.429-.262.77-.274.929 1.196 1.782 2.478 2.714 3.668-.596 1.287-1.603-.576-2.155-1.357m-3.165-1.233c.428-.162.854-.322 1.225-.536.929 1.391 1.895 2.742 2.96 3.978-.161.335-.6.41-.828.68-.456-.025-.561-.349-.806-.69-.755-1.059-1.936-2.28-2.55-3.432m-1.451.705c.245-.177.61-.242.839-.438 1.11 1.413 2.255 2.787 3.21 4.37-.244.128-.423.319-.683.432-1.287-1.268-2.384-2.752-3.366-4.364m.275-.897c-.271.335-.728.493-1.221.616.345-2.974.95-6.363 1.737-9.17.334.02.799-.111 1.014.038-.65 2.461-1.244 5.743-1.53 8.516m1.537-.549c-.264.032-.365.22-.695.192.329-2.959.891-5.568 1.306-8.267l.856-.036a1005.76 1005.76 0 00-1.467 8.111m1.988-.89c-.42.092-.635.376-1.073.45.06-2.445.813-5.085 1.173-7.698.255-.034.629-.212.856-.036-.295 2.585-.832 4.478-.956 7.284m1.684-.715c-.213.158-.612.14-.846.278.037-1.987.464-4.91.97-6.963l.777-.033c-.315 2.373-.783 4.14-.901 6.718m2.918-6.884c.476.003.638-.161.937.04-.026 1.96-.582 3.415-.645 5.339-.254.196-.532.368-.915.442.287-1.83.51-4.076.623-5.82m-1.389 6.174c-.27.08-.403.286-.768.275.023-2.05.684-4.506.761-6.31l.855-.037c-.508 1.96-.493 4.09-.848 6.072m-8.77 4.559c.239-.26.714-.298.99-.524 1.412 1.24 2.188 3.195 3.602 4.434-.224.25-.515.436-.832.6-1.427-1.312-2.315-3.222-3.76-4.51m-1.304.538c.214-.23.71-.167.845-.277 1.256 1.528 2.499 3.071 3.615 4.756-.219.126-.451.24-.605.43-1.49-1.404-2.676-3.155-3.855-4.91m1.675 4.92c-.22-.425-.613-.64-.898-1.008-.794-1.042-1.5-2.236-2.232-3.286 1.078-.802 2.192 1.308 2.73 2.058.753 1.05 1.337 1.882 1.816 2.578-.027.361-.447.348-.6.59-.46-.114-.59-.498-.816-.932m-4.965-3.49c.39-.144.732-.335 1.148-.452 1.457 1.64 2.615 3.614 3.953 5.386-.354.127-.56.393-.915.52-1.504-1.696-2.838-3.583-4.186-5.454m-1.91.967c.262-.37.923-.36 1.301-.619 1.503 1.698 2.827 3.596 4.188 5.455-.193.408-.6.615-1.06.77-1.626-1.701-3.043-3.635-4.428-5.606m-1.686.635c.283-.143.64-.213.918-.362 1.753 1.697 3.05 3.908 4.666 5.757-.256.297-.591.517-.983.686-1.687-1.856-3.263-3.837-4.601-6.081m2.56 7.617c-.154.088-.328.153-.376.338-2.096-1.786-3.514-4.338-5.32-6.454.056-.21.564-.389.692-.27 1.808 1.971 3.301 4.295 5.004 6.386m-4.235-6.66c.94-1.386 1.698.376 2.226 1.191.915 1.41 2.654 3.17 3.44 4.282-.102.367-.708.664-.906.681-1.814-1.795-3.234-4.035-4.76-6.154m24.683-7.732c.02.302-.382.202-.45.421-.943-.592-1.337-1.803-2.202-2.48-.436.896 1.148 1.9 1.511 2.752-.04.348-.326.461-.679.511a21.551 21.551 0 01-2.14-2.887 21.24 21.24 0 002.066-.893c.64.848 1.352 1.616 1.894 2.576m-1.421-8.31c-.046-.497 1.003-.389 1.088-.047-.432-.072-.834.193-1.088.046m2.486 7.702c-.584.46-1.039-.357-1.353-.746-.367-.458-.813-1.017-.994-1.488 1.258-.104 1.758 1.314 2.347 2.234m-.194-2.89c.217.962 1.173 1.094 1.258 2.2-.114.1-.315.114-.38.258-.66-.713-1.355-1.39-1.88-2.253.292-.127.624-.39 1.002-.204m-.037-.966c-.28.172-.465.434-.915.442-.112-1.172.274-2.513.396-3.718.342.042.432-.156.773-.114.21 1.108-.191 2.287-.254 3.39m2.051 2.652c-.706-.465-1.012-1.38-1.633-1.943.394-1.092 2.555 1.664 1.633 1.943m1.287-.941c-.1.085-.229.142-.3.254-.5-.614-1.099-1.12-1.402-1.953l.232-.01c.635.408.922 1.205 1.47 1.709m-1.112-2.529c-.726-.434.01-1.802-.025-2.574l.31-.013c.242.815.035 1.834-.285 2.587m1.949 2.01c-.162.078-.22.254-.458.262-.259-.688-1.093-1.18-1.162-1.803.84-.151 1.262.874 1.62 1.541m-.806-2.621c-.519-.332-.086-1.58-.004-2.093.121-.012.297.027.306-.093.168.377.111 1.848-.302 2.186m1.337 2.277c-.357-.552-.834-.967-1.152-1.562.598.28.892.9 1.152 1.562m15.702 1.344c-.187-.043-.367-.093-.402-.305.712-.22 1.354-.665 1.835-.883.096.03.164.096.165.235a6.42 6.42 0 00-1.598.953m5.833 3.695c-.405-.077-.626-.363-.957-.522.778-.44 2.173-1.474 2.957-1.977.236-.15.765.228.953.442-.814.85-2.023 1.32-2.953 2.057m1.597 1.059c-.38-.273-.913-.373-1.124-.838 1.092-.662 2.237-1.273 3.19-2.067.529-.007.917.144 1.108.516-1.043.81-2.345 1.374-3.174 2.389m1.597.978c-.513-.152-.859-.491-1.276-.751 1.49-.727 3.062-3.26 4.985-1.902-1.12.998-2.508 1.736-3.709 2.653m13.014 8.138c-.582-.185-.965-.594-1.513-.82 1.781-1.167 4.21-3.451 6.127-4.527.448-.251 1.301.421 1.814.567-2.013 1.717-4.362 3.116-6.428 4.78m7.538-2.333a83.882 83.882 0 00-5.068 3.759c-.611-.302-1.498-.547-1.995-1.205 2.221-1.545 4.348-3.18 6.588-4.705.753.162 1.33.522 2.051.716-.279.682-1.015 1.053-1.576 1.435m4.742-.201c.546.363 1.453.326 1.75.972-2.649 1.756-5.225 3.58-7.885 5.325-.46-.295-1.074-.416-1.36-.907 2.545-1.753 5.073-3.518 7.495-5.39m-6.075 3.88c-.499.377-1.335 1.251-1.818 1.285-.615.043-1.232-.718-1.676-1.056 2.394-1.456 4.429-3.257 6.738-4.794l-.01-.24c.952.05 1.622.416 2.29.788-1.377 1.314-3.664 2.614-5.524 4.017M82.18 35.892c.704-.493 1.436-.982 1.964-1.531a5.286 5.286 0 011.817.647c-.76.946-1.982 1.485-3.027 2.222-.306.215-.795.477-.818.92.648.094 1.314-.587 1.981-1.05.68-.472 1.39-.884 1.896-1.288.184-.147.397-.47.601-.51.576-.112.97.446 1.583.577-1.263 1.299-3.184 1.969-4.304 3.403 1.454-.418 2.585-1.459 3.878-2.337.918-.627 1.407-.965 2.636-.275-1.376 1.55-3.595 2.299-4.823 3.989 1.997-.7 3.533-2.511 5.383-3.61.618.064 1.078.3 1.577.496-1.155 1.182-2.654 2.047-4.081 3.073-.404.29-.999.618-1.122 1.173.612.074 1.159-.447 1.603-.792 1.368-1.06 2.868-2.12 4.312-3.161.566.12 1.015.37 1.503.58-1.702 1.78-4.078 2.92-5.892 4.596-3.59-2.209-7.263-4.324-10.624-6.792a55.772 55.772 0 001.9-1.208c.596-.4 1.582-.898 1.728-1.522.645.116 1.22.311 1.587.74-.938 1.09-2.522 1.565-3.395 2.718.757.17 1.503-.611 2.137-1.058m-8.416-4.147a29.67 29.67 0 001.596-.954c.173.14.392.23.56.378-.267.39-.818.683-1.36 1.024-.424.267-1.066.86-1.444.866-.708.014-1.144-.88-1.838-1.128.869-.579 2.128-1.948 3.218-1.344-.576.792-2.065.714-2.344 1.789.488.13 1.08-.343 1.612-.631m-1.247-1.96c.029.163.216.148.246.312-.328.795-1.568.722-1.886 1.529-.285-.071-.476-.247-.716-.373.71-.56 1.457-1.087 2.356-1.467m-.478-4.166c.125-.027.137.07.238.07.015 1.096.454 2.357.37 3.445-.565.165-.571-.67-.429-1.027-.224-.73-.512-1.995-.18-2.488m-.392 3.799c-.493.639-1.385.897-1.967 1.453-.191.02-.244-.117-.395-.145.298-.798 1.57-.67 1.809-1.526.277-.032.293.23.553.218m-.543-3.839c.435.85.485 2.003.44 3.2-.37-.057-.345-.72-.356-1.111-.021-.74-.02-1.282-.084-2.089m-1.139 2.623c-.715.506-1.659.793-2.443 1.231-4.447-.345-9.61.436-13.725-.542-.032-.897-1.106-1.244-1.249-2.04-.137-.755.382-1.48.369-2.43.491-.663 1.53-.279 2.715-.277 1.76.001 4.248-.225 6.61-.2 2.292.023 4.744-.058 6.017.549.44.208 1.169.827 1.446 1.146.092.103.074.34.246.31-.01.74.15 1.638.014 2.253m-20.622-3.629c.25-.058.363.038.548.057-.175.992-.071 2.253-.584 2.923-.554-.338-.019-1.48-.01-2.173.004-.34-.12-.524.046-.807m-3.255.38c.17-.158.824-.146 1.011-.043-.123 1.405-.574 2.495-.54 4.047-.237.062-.616.389-.768.275-.161-1.277.556-3.162.297-4.279m-24.634 3.14c.059-.56.463-.795.329-1.542l1.01-.044c-.772 4.77-1.781 8.864-2.251 13.86a2.83 2.83 0 01-1.148.532c.403-2.819.7-5.577 1.232-8.183.304-1.485.56-2.98.993-4.388.15-.266-.445-.095-.165-.235m-1.472-1.787c.541-.016.687-.105 1.165-.049-.296 2.622-1.085 5.369-1.474 7.948-.111.741-.021 1.532-.538 2.117.032 1.589-.578 3.203-.66 4.938-.3.152-.568.336-.997.364a220.988 220.988 0 012.504-15.318m-4.794 14.53a11.58 11.58 0 01-.907-1.25c.775-4.118 1.402-8.949 2.21-12.972.077-.208.411-.174.693-.188-.537 5.167-1.326 9.654-1.996 14.41m-.276.897c.323.002.453.222.564.459-.732.28-.118 1.585-.775 2.046-.288-1.086.331-1.628.21-2.505m1.573.337c-.39.26-.466-.236-.718-.373.74-5.02 1.474-10.629 2.273-15.308.31.015.74-.106.936.04.034 2.46-1.07 5.355-1.012 7.85-.61 1.092-.423 2.948-1.005 4.067.205 1.094-.297 2.516-.474 3.724m1.91 4.989c-.126-.113-.309-.157-.476-.222.146-.686.126-1.53.708-1.8.286.556-.167 1.331-.232 2.022m-.814-4.796c.514-.547 1.103.466 1.603 1.139.7.94 1.212 1.601 1.887 2.416-.297.207-.565-.23-.643-.536-1.157-.773-1.88-2.034-2.847-3.02m4.947 4.944c.017.633-.124 1.117-.166 1.696a.944.944 0 01-.707-.132c-.033-.788.116-2.258.873-1.564m-2.155-3.29c-.572-.687-1.276-1.266-1.564-2.107.171-.07.297-.182.538-.184 1.238 1.772 3.116 3.273 4.094 5.057-1.407-.44-2.14-1.652-3.068-2.766m10.718 7.19c-.467-.146-.907-.327-1.567-.255.13-.703.041-1.61.302-2.186.512.17 1.013.02 1.484.098.126.67-.14 1.61-.219 2.343m2.557-2.284a12.726 12.726 0 01-.363 2.592c-.649.05-.913-.098-1.639-.09.118-.866.143-1.82.364-2.59.572 0 1.132.012 1.638.088m2.341.144c-.002.898-.195 1.618-.292 2.427-.568-.009-1.262.13-1.714-.008.053-.903.064-1.846.367-2.511.332-.043 1.287-.118 1.64.092m2.045 2.488c-.358.074-1.22.044-1.713-.007.263-.728-.058-2.013.363-2.591.487.099 1.163-.019 1.639.09.352.977-.523 1.392-.29 2.508m2.026.075c-.612-.047-.926.053-1.48-.097-.209-.971.11-1.885.367-2.513.526 0 1.04.006 1.484.1-.053.85-.329 1.483-.371 2.51m.758-2.526c.31.015.743-.107.937.04.351.7.144 1.85.1 2.49-.52.087-1.035.2-1.326-.025-.018-.923.307-1.827.289-2.505m3.505.01c.596-.029 1.142.004 1.563.174-.085.972.15 1.919-.213 2.505-.414-.12-1.088.048-1.408-.18.158-.873-.208-1.795.058-2.499m3.298 2.678c-.671-.018-.974-.012-1.487-.18-.07-.84.09-1.46.066-2.256.305-.254 1.045-.23 1.474-.144.04.836.091 1.882-.053 2.58m1.713.006c-.522-.001-1.195.167-1.409-.181.092-.838.102-1.631.141-2.34.353-.175 1.118-.158 1.402.022.068.73.199 1.808-.134 2.5m2.186.148c-.54-.064-1.2-.058-1.56-.094-.248-.814-.322-1.902.051-2.578.456-.182 1.221-.042 1.713.007.2.842.126 2.072-.204 2.665m2.1-.09c-.591.02-1.271.139-1.567-.175.158-1.01-.07-1.64.22-2.344.41-.208 1.1-.08 1.48.019.057 1.048.043 1.623-.134 2.5m2.16-2.425c-.029.847.058 1.806-.133 2.5-.672.055-1.308.07-1.72-.168.123-.948.008-1.727.367-2.511.55 0 1.115-.019 1.486.18m6.237.216c-.16.816-.064 1.537-.218 2.343-.412.225-.964.14-1.476.063-.242-.823.083-1.706-.029-2.654.594.062 1.377-.09 1.723.248m1.944-.083c-.121.787-.052 1.754-.212 2.505-.602-.084-1.064.19-1.483-.1-.208-.773.088-1.712.134-2.5.72-.02 1.107-.064 1.561.095m1.037 2.613c-.187-.041-.358-.102-.623-.055-.22-.633-.7-3.004.908-2.614.111.91.096 2.136-.285 2.669m4.728-2.536c.904-.008 1.86-.074 2.574.13-.19.87-.006 1.634-.212 2.506-.626.058-1.884.177-2.418-.138.003-.93-.116-1.676.056-2.498m-2.855 2.617c-.414-.095-1.037.046-1.33-.185-.104-.691.044-1.673.137-2.421.38-.15 1.266-.208 1.557.015-.285.813-.152 1.875-.364 2.591m.53-2.357c.406-.544 1.415-.26 2.17-.253-.258.84-.082 1.658-.285 2.587-.78-.094-1.398.128-2.033-.155-.105-.597.233-1.352.148-2.18m7.545-.16c-.076.994.023 1.708-.208 2.586-.699-.1-1.467.199-2.18.01 0-.796-.103-1.817.05-2.657.817-.02 1.598-.004 2.338.061m2.415.059c.003.993.027 1.777-.205 2.664-.564-.094-1.282-.015-1.87-.081-.16-1.03-.232-1.96.126-2.662a8.276 8.276 0 011.95.079m2.57.052c.055.933-.134 1.608-.206 2.584-.613.157-1.309.105-2.026.004-.128-.788 0-1.941.205-2.663a11.835 11.835 0 012.028.075m4.69 2.455c-.306.511-1.765.315-2.405.184-.222-.63.155-1.34.004-1.852-.415.35-.149 1.354-.474 1.79-.52.197-1.032.148-1.633.07-.253-.926.085-1.716.207-2.664 1.018-.095 2.467.074 3.741.083 1.17.006 2.41-.308 3.203.264-.05.605.042 1.778-.216 2.424-.633.035-1.292.173-2.024.007-.323-.505-.032-1.69-.404-2.318-.25.392-.071 1.324.002 2.012m5.129-2.23c0 .652-.06 1.896-.287 2.588-.519.2-1.326.047-1.867 0-.065-.728-.031-1.972.122-2.743.747-.026 1.555-.122 2.032.155m4.312 2.715c-.585-.069-1.133.163-1.713-.01-.258-1.053.228-1.686-.036-2.814.49-.1 1.225-.011 1.637.011.531.67-.055 1.775.112 2.813m-55.3-4.408c-3.77-.086-8.012.143-11.165-.813.37-.733 1.59-1.316 2.417-1.873.235-.221.348.232.63.214 2.066-.22 4.393.34 5.838-.087.562.307 1.144.175 2.03.155.438-.01.97.126 1.326.104.089-.006.065-.178.228-.17 1.362.056 2.859.287 4.605.286.067-.047.33-.255.152-.086 1.603.312 3.356.04 4.91.112-1.45-.573-4.305-.092-5.86-.556-.109.234-.59.11-.69.352-3.302-.726-6.57.037-9.83-.546-.525.345-1.493-.127-2.182-.069-.383.032-.523.415-.772.194.375-.596 1.024-.965 1.58-1.355.572-.399 1.1-.843 1.748-1.122.854.08 2.018.226 2.798-.119.403.24.845.167 1.251.19.443.023.874.158 1.41.181 1.098.045 2.19-.196 3.265-.14.276.015.584.198.864.205.495.013.984-.159 1.474-.143.722.026 1.645-.066 2.49-.026.313.016.56.194.865.204 1.66.064 3.351-.021 5.14.024-.63-.48-1.99-.233-3.202-.265-.389-.011-.846-.148-1.322.056-2.934-.444-5.502-.188-8.421-.287-.976-.033-1.936-.134-2.963-.114-.98.018-1.982.006-3.04-.111.745-.965 1.875-1.362 2.876-2.057.647-.448 1.302-1.088 2.038-1.614 1.48-1.062 2.71-1.756 4.321-2.921.637-.461 1.52-1.334 2.123-1.458.434-.09 1.38-.015 1.868.001 2.652.081 5.243.081 8.492.12-1.057-.36-3.335-.408-4.754-.12-1.213-.367-3.902-.071-5.305-.256 1.685-1.206 3.383-2.398 5.153-3.52 1.2.203 2.74.205 3.98.233 2.785.063 5.719.139 8.492.122-1.045-.252-2.323-.28-3.44-.336-2.925-.149-5.894-.03-8.725-.112.618-.592 1.974-1.998 2.845-.927-.214.038-.555-.207-.7.03 4.146.499 9.107.145 13.555.15C77.4 36.445 87.47 43.076 97.97 49.225c-19.715-.038-39.942-.502-59.21-.941m57.716 4.466c-.707.093-1.192-.061-1.869-.003-.382-.828-.059-1.975-.031-2.734.462-.328 1.082-.042 1.784-.156.13.934.033 1.818.116 2.893m8.876-5.852c-.526.557-1.301.876-1.973 1.291.298-.463 1.175-1.045 1.973-1.29m-5.824 2.34c2.444-1.952 5.053-3.744 7.723-5.48.094.368-.317.868-.334 1.382-2.491 1.356-3.978 4.077-7.39 4.098m.987-22.177c2.778 2.39 4.206 5.855 6.044 9.081.496 2.194 1.365 4.031.884 6.562a5635.783 5635.783 0 00-33.291-12.91c.235-1.148-.084-3.244-.323-4.172-.317 1.411.258 2.941.164 4.099-.274-.14-.608-.212-.872-.367.155-1.343-.73-2.65-.308-3.848.641.068 1.238.024 2.1-.01.335 1.598.157 2.63.476 4.083.293-1.213-.058-2.726-.078-3.939a309.483 309.483 0 0115.478-.336c2.214.005 4.586-.305 6.614-.122.803.073 2.492 1.347 3.112 1.88m6.675 30.784c.627 2.16 1.479 4.487 1.973 6.516-.578-.86-.803-2.002-1.135-3.09-.349-1.144-.75-2.219-.996-3.5.09-.017.139.012.158.074m-70.906 6.399c-.28-.407.195-1.401.31-1.945.351.473-.153 1.442-.31 1.945m-.353.9c.014-.269.21-.366.126-.73.288.11.179.637-.126.73m-20.465-5.568c.25-.896.459-1.51 1.001-2.217-.005.745-.536 1.655-1.001 2.217m-3.5-3.794c.076-.807.69-1.766 1.31-2.31-.276.922-1.067 1.354-1.31 2.31m-1.183 3.511c.42-1.302 1.435-2.705 2.34-3.803-.65 1.393-1.497 2.594-2.34 3.803m-1.61-5.244c-.408 1.315-1.273 2.19-1.973 3.223.162-1.236 1.304-2.21 1.891-3.3.139-.03.162.069.082.077M7.065 53.9c-.094-.784.753-1.343 1.088-1.977.162.85-.897 1.206-1.088 1.977m109.907-.411c-.1-.25-.42-.259-.637-.376.097-.164.505-.032.373-.419-.046-.817-.667-.985-1.07-1.403-.33-.574-.58-1.104-.921-1.651-.48-.763-1.448-1.574-1.57-2.266-.065-.37.133-.651.191-1.055.16-1.1.373-2.642.316-3.797-.19-3.82-1.619-6.311-3.165-9.12-1.48-1.697-2.38-4.043-4.037-5.543-1.053-1.5-2.785-2.768-4.821-3.82-1.643-.845-3.43-1.691-5.144-2.035-2.49-.496-5.209-.449-8.037-.462-8.862-.038-18.86-.37-28.357-.402-7.771-.029-14.931.003-22.268-.02-1.926-.003-3.842.007-5.683.002-2.39-.007-4.623-.291-6.539.037-1.958.335-3.709 1.782-4.865 2.942-1.015 1.018-1.836 1.907-2.6 3.09-.376.576-.808 1.103-1.183 1.659-2.126 3.169-3.277 7.366-3.043 11.559.698 1.172-.3 2.004-.82 2.853-1.097 1.792-2.383 3.636-3.377 5.134-.13 1.164.08 1.427-.052 2.577.032.282.28-.214.312.067-.247.33-.709.457-.657 1.075.237.404.637-.061.788.208-.085.435-.717.907-.337 1.301 1.457-.982 1.852-2.7 3.185-4.078.331-.936.893-1.52 1.388-2.312.347-.56.719-1.297 1.266-1.424-1.538 3.149-3.853 5.56-5.578 8.528.122.197.38.246.337.63-.253.379-.967 1.105-.406 1.546 1.04-1.046 2.015-2.822 3.188-3.998-.612.929-1.229 2.261-1.815 3.297-.329.58-.91.979-.953 1.489-.035.439.172 1.564.994 1.486.171-.172.252-.43.2-.813 1.256-1.64 2.18-3.594 3.614-5.064.069-.424.43-.981.743-.916-.912 2.095-2.326 3.928-3.51 5.702-.377.568-1.016 1.203-.934 1.972.538.234.657-.546 1.061-.69 1.4-2.38 2.986-4.578 4.315-7.024.337.062.291-.238.536-.263.488-.494.585-1.755 1.33-1.748-1.416 2.283-2.931 4.474-4.242 6.86-.194-.004-.235.136-.382.178-.245.608-.767 1.177-1.175 1.82-.334.53-1.144 1.276-.542 1.955 1.328-1.44 2.247-3.682 3.541-4.9a18.984 18.984 0 01-1.598 2.885c-.588.882-1.71 1.56-1.602 2.806 1.049.03.975-1.64 1.947-1.935-.187 1.086-1.618 1.72-1.209 2.87.572-.064.8-.76 1.043-1.171.846-1.424 1.67-2.786 2.402-4.209.246.028.197-.224.38-.256.013-.298.174-.453.204-.734.555-.271.651-1.39 1.19-1.42a2.11 2.11 0 01-.66 1.075c-.562 1.337-1.164 2.611-1.872 3.782-.717 1.185-1.554 2.342-1.952 3.787.168.099.228-.05.47.06.824-.891 1.065-2.337 2.058-3.066-.038 1.526-2.015 2.626-1.164 3.993 1.042-1.106 1.31-2.825 2.093-4.113.379-.619 1.063-1.043 1.01-1.974.69-.863 1.342-2.099 1.589-3.128.796-.968 1.241-2.272 2.051-3.225-.51 1.023-.725 2.256-1.271 3.273-.32.597-.874 1.07-1.177 1.66-.43.83-.632 1.763-1.069 2.541-.127.226-.4.37-.52.586-.178.316-.173.723-.35 1.06-.673 1.293-1.826 2.415-1.861 4.024.792.05.956-.96 1.26-1.583.344-.702.685-1.45 1.17-1.9-.033-.29.128-.394.13-.651.472-.272.465-1 .962-1.248-.44.791-.72 1.65-1.067 2.54-.492 1.271-1.484 2.488-1.482 3.847 1.18-.603 1.003-2.5 2.053-3.226.44-1.926 1.307-3.444 2.297-4.847-.089-.832.562-.96.555-1.714.817-.847 1.194-2.523 1.978-3.142-1.23 2.978-2.356 6.055-4.097 8.545-.374 1.81-1.368 3.439-1.67 5.06.831-.096.915-1.14 1.178-1.74.87-1.99 1.796-4.107 2.802-5.915a42.92 42.92 0 011.845-4.504c.203-.427.383-1.113.885-1.164-.805 2.439-1.85 4.769-2.91 7.043-.53 1.14-1 2.312-1.497 3.446-.503 1.15-1.208 2.32-1.34 3.518.613-.062.668-.654.893-1.084.483-.326.397-.902.566-1.393.45-1.304 1.296-2.466 1.638-3.853.35-.31.483-.827.728-1.239.165-.692.293-1.42.946-1.648.06 1-.584 1.855-.978 2.778-.4.932-.52 2.084-1.213 2.788-.226 1.464-1.196 2.614-1.244 3.997.785-.152.923-1.197 1.176-1.821.59-1.464 1.196-2.858 1.779-4.181.307-.696.494-1.484 1.015-1.894-.208 1.013-.837 1.626-.902 2.775-.53.574-.519 1.396-.773 2.125-.404 1.158-1.313 2.245-1.258 3.596.365.169.523.12.781.046.652-1.014.873-2.268 1.342-3.437.38-.941 1.076-1.815 1.208-2.95.428-.749.643-1.705 1.069-2.46.023-.922.51-1.785.83-2.61.312-.803.438-1.867 1.08-2.218-.352.928-.344 2.197-.978 2.858-.832 3.175-1.939 6.09-3.148 8.907.082.898-.87 1.563-.373 2.35.466-.046.285-.708.668-.834.927-2.906 1.779-5.882 3.009-8.5.108-.868.532-1.785.827-2.69.277-.853.271-2.15 1.072-2.38-1.21 3.958-2.741 8.988-4.147 13.136-.069.2-.858 1.656-.165 1.697.376.022.486-.694.582-.991.42-1.308.75-2.68 1.254-3.675.603-2.619 1.52-5.29 2.257-7.823.237-.81.4-1.852 1.082-2.22-.48 2.81-1.713 5.683-2.541 8.56-.485 1.689-.926 3.41-1.44 4.892-.149.423-.603 1.1-.094 1.532.484-.131.46-.771.576-1.151.127-.419.282-.88.416-1.306.806-2.575 1.468-5.47 2.491-7.832.34-1.584.638-3.207 1.381-4.406-.42 1.866-.92 4.137-1.544 6.182-.468 1.534-.935 3.049-1.538 4.412-.01 1.667-1.035 2.775-.917 4.305.448.179.912.042 1.103.356.478-.412.512-.08 1.007-.124.78-2.04 1.174-4.447 1.92-6.52-.167 2.497-1.356 4.425-1.523 6.665.412.002.476-.412.706.21.859-.627.95-1.983 1.764-2.65-.037 1.104-.83 1.884-.824 2.772.617.304.708-.426.827-.76.798-2.27 1.363-4.609 1.985-6.846.269-.964.378-2.022.745-2.768.272-.548.637-.857.714-1.64.1-1.009-.176-2.25.747-2.768-1.025 5.004-2.837 10.337-4.23 14.991.29-.075.376.081.625.053 1.163-3.237 1.75-6.802 2.868-10.103.098-.294.334-.507.432-.823.234-.73.25-1.617.45-2.434.13-.534.196-1.333.712-1.64-.048 1.195-.382 2.35-.715 3.492-1.025 3.487-1.946 6.933-2.856 10.423-.192.252-.41.817-.347 1.062 1 .098.92-1.346 1.156-2.223.275-1.014.47-2.093.903-2.774.188-1.238.389-2.466.957-3.34-.719 2.281-1.104 5.225-1.808 7.4-.106.322-.65.73-.114 1.051.578 0 .533-.88.648-1.316.45-1.716.937-3.46 1.279-5.044.196-.15.4-.697.518-.666-.4 1.799-.968 3.73-1.417 5.453-.151.576-.465 1.232-.242 1.78.493-.03.564-.786.655-1.153.931-3.76 1.921-7.768 2.98-11.235-.126 2.232-1.284 3.872-1.161 6.086-.044.215-.425.108-.372.417-.199.833-.518 1.708-.674 2.607-.222 1.243-.592 2.41-.719 3.49.291-.044.39-.094.602-.508.162-.312.1-.834.349-1.062-.008.7-.65 1.47.073 1.849.763-2.469 1.126-5.319 1.87-7.807-.164 1.956-.724 4.44-.982 6.642-.21.26-.463.821-.263 1.219.878.047.976-1.26 1.163-2.062.205-.866.588-1.832.75-2.689.252-1.348.345-2.606.708-3.731.095-.295.353-.54.436-.823.03-.11-.12-.229-.095-.4.017-.11.196-.222.22-.33.134-.633.082-1.087.493-1.309.036-.38-.089-.91.273-.978-.748 4.236-2.158 8.252-2.778 12.352.391.09.32-.26.612-.267.524-2.078.67-4.514 1.541-6.263.035 1.065-.27 2.254-.488 3.4-.218 1.148-.715 2.27-.571 3.245.604.026.574-.777.655-1.155.735-3.469 1.399-7.227 2.229-10.478-.467 3.975-1.585 7.698-2.036 11.435.755.114 1.104.008 1.873.082.836-4.32 1.73-8.956 2.506-13.307.101-.572-.025-1.42.552-1.794-.266.91-.091 1.884-.28 2.749-.735 3.314-1.305 6.86-2.085 10.23-.148.641-.647 1.578.005 2.092.249-.376.243-.842.339-1.302.727-3.508 1.459-7.246 2.306-10.481-.049 2.007-.678 4.236-1.145 6.408-.388 1.803-.993 3.602-.954 5.431.996-.155.338-1.667.934-2.05.326.663-.549 1.624-.232 2.02.064.38.373-.159.537-.182.037.636.344-.006.784.127.44-1.981.962-4.361 1.392-6.096.113-.453.085-.895.178-1.375.17-.867.92-1.729.438-2.676.48-1.477.335-3.547 1.137-4.716-.592 5.13-1.688 10.194-2.28 15.068.491.047.488-.061 1.015.118.613-2.022.893-4.356 1.459-6.42-.095 1.351-.444 3.286-.669 4.777-.06.418-.35 1.28.216 1.439.43-.684.319-1.56.451-2.353.406-2.433.932-5.296 1.321-7.864.262-1.728.238-3.468.811-5.025-.544 5.15-1.635 10.192-1.878 15.373.683-.146.42-1.003.486-1.47.547-3.797 1.198-8.565 1.752-12.71.055-.405-.085-1.115.416-1.306-.67 4.952-1.494 10.377-2.107 15.543.275.187.591-.123 1.011-.043.574-2.249.773-4.808 1.188-7.296.235-1.402.34-2.845.851-4.059-.533 2.874-.918 6.316-1.34 9.313-.084.587-.7 1.796-.072 2.176.469-.789.502-1.808.67-2.764.507-2.882.845-6.045 1.357-8.912.14.763-.394 1.896-.195 2.905-.748 2.053-.457 4.36-.835 6.394-.158.848-.717 1.774-.212 2.505.77-.247.449-1.532.93-2.052.183-2.997 1.337-5.468 1.702-8.121.037-.272-.242-.81.195-.973-.288 3.385-1.097 6.709-1.635 9.808-.061.35-.335 1.035.13 1.282.45-.448.428-1.243.547-1.874.388-2.084.665-4.318 1.233-6.17-.177 2.101-.553 4.496-.912 6.397-.106.555-.551 1.365-.01 1.69.619-.73.574-1.9.74-2.928.495-3.083.688-6.961 1.318-9.876.191-.883.15-2.434.746-2.768-.227 2.152-.674 4.411-1.057 6.645-.092.523-.018 1.09-.092 1.614-.272 1.908-.65 3.854-.79 5.586-.04.478-.853 1.37.064 1.608.395-.312.34-.933.412-1.386.606-3.762.957-7.796 1.732-11.262a111.614 111.614 0 01-1.498 11.252c-.09.478-.433 1.177-.014 1.61.65-.54.326-2.006.906-2.615.076.829-.754 1.911-.134 2.502.53-.063.195-.95.579-1.151-.01.52-.327.876.196 1.037.564-.848.43-2.028.578-3.082.323-2.32.625-5.257.947-7.526.09-.635-.005-1.424.47-1.87.465.721-.152 1.494-.3 2.265-.521 2.737-.595 6.274-.967 8.894-.062.425-.558 1.07.055 1.366.477-.213.364-.887.413-1.304.184-1.598.32-3.116.515-4.692.26-2.111.261-4.32 1.168-5.845.004.494-.117.87-.343 1.143-.292 3.14-.79 6.555-1.179 9.548-.042.33-.318.991.127 1.201.543-.66.482-1.686.597-2.602.346-2.774.525-5.95 1.306-8.265.228 1.469-.292 3.172-.433 4.768-.174 1.951-.302 3.94-.633 5.66.27.034.21.44.562.38.507-.317.2-.933.256-1.38.054-.44.302-.827.338-1.302.06-.803.054-1.896.195-2.906.108-.766.123-1.563.457-2.192.083 2.477-.513 5.384-.546 7.75l.544-.023c.727-3.43.674-7.604 1.755-10.699-.009-.714.073-2.376.495-3.16-.192 2.526-.637 4.752-.962 7.124-.18 1.31-.126 2.684-.307 3.956-.124.844-.766 1.673-.292 2.508.723-.284.615-1.355.697-2.042.319-2.653.748-5.636.761-8.242.487-.85.541-2.438.482-3.562.336-.223-.058-1.137.498-1.15-.388 2.39-.582 5.177-.931 7.85-.313 2.375-.634 5.752-1.023 7.528.14.066.203.217.472.141 1.058-4.651.83-10.164 1.838-14.405.224 1.146-.026 2.384-.167 3.629a618.162 618.162 0 01-1.11 9.223c-.064.499-.388 1.338.222 1.68.389-1.044.438-2.236.565-3.405.392-3.596.685-7.375 1.285-10.759-.032 2.153-.516 4.288-.616 6.063-.056 1.015-.01 1.955-.118 2.903-.17 1.523-.888 3.126-.664 4.857.617-.26.574-1.173.706-1.88.136-.736.18-1.558.46-2.114-.067.753-.095 1.626-.215 2.425-.078.505-.545 1.278.061 1.526.518-.347.282-1.124.324-1.624.326-3.995.987-8.379 1.297-12.45.152.81-.126 2.084-.189 3.148.14.15.155.442.26.632-.384 2.668-.574 5.496-.842 8.165-.08.795-.362 1.603-.14 2.34.551-.294.54-1.24.622-1.958.233-2.037.319-3.89.553-5.658.128-.965-.136-2.311.75-2.688.01 2.304-.476 5.302-.779 7.841-.098.826-.539 2.082.102 2.571.388-1.113.26-2.494.394-3.799.174-1.686.4-3.368.58-5.015.049-.457-.08-1.296.566-1.392.501.652.184 1.594.096 2.41a265.477 265.477 0 00-.699 7.837c.77-.121.568-1.205.63-1.797.16-1.592.156-3.171.28-4.682.06-.733.056-1.682.383-2.108.166 2.867-.262 6.203-.128 8.538a1.1 1.1 0 001.082-.208c.636-4.865.145-10.207.953-15.172.219 4.106-.332 8.547-.28 12.487.006.47.002 1.024-.018 1.53-.017.465-.344 1.183.14 1.524.24-.055.1-.47.206-.654.078-.101.296-.696.143-.327-.395-3.688.444-9.194.32-13.455-.012-.4-.335-.917.112-1.132.542 1.762.166 3.63.069 5.632-.035.67.153 1.323.156 2.006.004.621-.211 1.254-.237 1.86-.09 2.15.132 4.03-.073 5.96.227.165.788.307 1.094.113.222-.124-.033-.7.283-.737.337-.042.026.642.41.549.414-.653.215-1.555.22-2.345.01-2.922.016-6.192.198-8.702.039-.562-.055-1.51.553-1.713.047 2.053-.236 4.405-.278 6.693-.033 1.736.16 3.514-.032 5.071-.054.445-.446 1.07.131 1.363.548-.612-.067-2.333.509-2.918.18.958-.495 2.492.197 3.05.452-1.212.002-2.823.302-4.199.13.578.193 1.793.188 2.81-.002.553-.285 1.327.295 1.516.254-1.54.24-3.381.27-4.921.053-2.543.04-5.201.488-7.345-.222 3.31-.403 7.136-.44 10.482-.004.432-.29 1.44.297 1.597.365-.782.391-1.746.438-2.676.18-3.566.051-7.53.501-10.886.11 4.893-.383 9.278-.006 13.522.68-.695.334-2.002.345-3.073.025-2.594.07-6.14.286-8.463-.016 2.873.104 5.646.02 8.368-.028.967-.314 2.152.119 2.975.618-.335.31-1.292.312-1.947.007-1.946-.065-4.43.227-6.045.362 2.858-.259 5.886.084 7.965.648-.717.349-1.86.353-2.833.012-2.43-.082-5.069.015-7.486.053-1.362-.247-3.337-.03-4.666.038-.236.037-.615.44-.663-.024 4.79-.345 10.831-.082 15.538.283-.3.33-.97.334-1.382.02-1.82-.081-3.898-.006-6.037.075-2.2.093-4.472.136-6.365.014-.711-.251-1.349.326-1.542.047 4.54-.003 9.662-.284 14.338-.024.4-.288 1.058.131 1.363.366-2.8.502-6.819.56-9.441.01-.455-.233-1.223.332-1.382-.166 2.913-.093 6.001-.333 9.19-.055.713-.434 1.658.148 1.763.438-1.55.315-3.495.335-5.246.014-1.218.294-2.441.327-3.555.016-.581-.38-1.43.318-1.784-.42 2.954-.075 7.183-.44 10.482.726.124.831-.343 1.144-.611.064.179-.115.632.177.555.69-.313.289-1.348.31-1.946.012-.21.063-.39.057-.565-.087-2.744.071-6.012.122-8.697.03-1.67.227-2.962.534-4.208.344 3.93-.173 9.35-.242 13.532-.01.65-.41 1.868.389 1.914.124-4.344.315-9.522.452-14.104.013-.497-.14-1.225.326-1.543.34 4.805-.335 10.264-.23 15.705.492-.02.7-.31.99-.525-.16-3.665.164-6.297.112-8.94-.012-.567-.384-1.515.475-1.71.157 2.423-.396 7.01-.449 10.162-.006.282.053.757.191.957.526-.62.258-1.584.294-2.427.086-2.048.08-4.386.53-6.22.026 2.707-.277 6.097-.125 8.617.567-.184.318-.793.342-1.222.138-2.375.08-4.884.417-7.18.207 2.911-.09 5.576-.131 8.456.496-.052.658-.022 1.1.274.416-.144.812-.31.984-.684-.076-4.551-.016-9.902.297-14.098.142 3.39.058 7.137-.041 10.706-.01.352.057.743.044 1.124-.027.81-.468 2.233.343 2.723.216-3.773.121-8.456.131-12.32.003-1.295-.2-2.892.254-3.392.477 4.798-.462 10.874.236 15.685.126.005.477.323.783.128.154-2.908.069-6.856.309-9.833.075 2.926.006 6.869-.078 9.743.337.04.718.19 1.012.037.627-1.833.297-4.788.263-7.095-.009-.635.208-1.236-.144-1.683.359-.174.15-.89.583-.99-.112 1.98.224 3.945.16 5.948-.034 1.063-.504 2.421-.019 3.462.461-.85.116-2.467.568-3.325-.065.703.012 1.41.012 2.255 0 .513-.373 1.464.297 1.595.355-4.71.173-10.782.384-15.79.383 4.485.165 10.887-.082 15.537.506.13.803.363 1.254.187.412-2.47.077-5.085.089-7.569 0-.685-.077-1.576.381-2.108.477.315.145.874.132 1.362-.064 2.418.096 5.692-.056 8.373.854-.102.482-1.31.46-2.112-.02-.829-.148-1.778.307-2.106.56.965-.378 3.615.405 4.33.619-.596.108-2.27.581-3.004.47.843-.134 2.602.43 2.96.482-.178.204-.809.187-1.134-.16-3.238-.173-6.912-.063-9.415.346 1.937.164 5.28.403 8.11.07.839.01 1.703.325 2.322.664-.307.29-1.064.25-1.54-.083-.975-.126-2.08-.203-3.13-.198-2.706-.012-5.633-.324-8.116-.078-.633-.472-1.989.135-2.5.207 4.849.719 10.436 1.058 14.845.644-.233.345-1.124.327-1.543-.084-2.105-.336-3.562-.358-5.135-.033-2.296-.477-4.562-.507-6.821-.006-.5-.02-1.097.25-1.54.191.43.056.895.055 1.366 0 1.254.187 2.668.32 4.092.238 2.604.371 5.347.535 7.622.045.616-.207 1.447.309 1.84.35-.409.277-1.813.2-2.746-.183-2.271-.732-5.141-.357-7.067.255 2.647.41 5.442.636 8.182.044.55-.139 1.569.31 1.918.485-.21.214-.841.178-1.375-.169-2.543-.345-5.783-.491-8.43-.293-.258-.42-1.405-.155-1.926.326.803.261 1.71.339 2.642.246 2.922.617 6.21.82 8.818.921-.194.371-1.373.303-2.105-.245-2.703-.704-5.655-.64-8.263.432.519.234 1.363.315 1.998.212 1.7.545 4.122.777 5.842.102.758-.083 1.705.4 2.238.737-.242.283-.992.25-1.54-.103-1.718-.21-4.214-.686-5.525.562-2.575-.746-5.14-.466-7.787.538 3.813 1.232 8.405 1.749 12.643.062.509-.164 1.2.448 1.51.08-4.102-1.282-8.478-1.345-12.257.566 2.936 1.033 6.197 1.532 9.11.164.961.178 2.053.733 2.785.32-.952-.082-2.114-.283-3.206-.573-3.112-.887-6.476-1.615-9.268-.119-.46-.61-1.24-.065-1.608.197 1.743.821 3.71 1.055 4.946.47 2.495.817 5.096 1.314 7.59.053.262.027 1.19.658.858-.375-2.686-1.166-6.08-1.37-8.956.543 2.903 1.235 6.43 1.68 8.943.643.093.392-.621.35-.981-.321-2.791-1.382-5.765-1.501-8.388.449 2.258 1.138 4.633 1.592 6.774.168.778.195 1.781.707 2.062.48-.194.089-.78.035-1.046-.575-2.911-1.566-5.923-1.981-8.69.478.589.492 1.481.714 2.303.56 2.073.853 4.626 1.651 6.289.52-.492.154-1.326.002-1.931a122.7 122.7 0 01-.943-4.145c-.159-.736-.507-1.445-.55-2.071-.021-.3.137-.667.118-.97-.029-.443-.371-.833-.127-1.202.217.344.293.846.589 1.102-.033-1.306-1.02-2.343-.609-3.596.514.832.678 1.877.97 2.856.92 3.09 1.497 6.015 2.388 9.154.584-.727-.174-1.783-.414-2.558a33.741 33.741 0 01-1.13-4.941c-.444-1.558-1.11-3.117-1.197-4.618.614.44.489 1.36.706 2.063.279.9.864 1.796.894 2.94.066.205.267.26.332.469a1.772 1.772 0 00-.05.726c.729 1.516 1.201 3.729 1.613 5.324.45-.037.487-.465.591-.83-.935-2.199-1.584-5.163-1.942-7.725.2 1.091.82 2.202 1.143 3.33.37 1.29.298 2.694 1.155 3.574.11-1.776-.96-3.395-.978-5.028-.537-.575-.881-1.809-.662-2.951.643 2.552 1.763 5.013 2.244 7.471.373-.235.392-.811.814-1-.864-3.312-2.002-6.313-3.098-9.367.413.383.7.994.92 1.571.646 1.685 1.223 3.168 1.824 4.753.287.757.324 1.78.861 2.055.112-1.022-.46-2.085-.823-3.104-.376-1.045-.822-2.071-1.136-3.091.156.16.508.105.708.212a.945.945 0 00.03.723c.649 1.259.905 2.957 1.719 4.031 1.488-1.498-.667-3.312-.663-4.88.8.588.847 2.456 1.74 2.662-.272-1.457-1.152-2.23-1.467-3.641.698.617.786 1.917 1.725 2.261-.12-.841-.883-1.617-1.347-2.518-.415-.811-1.218-1.92-.885-2.699.716 1.492 1.576 2.817 2.273 4.33.943-.46-.048-1.646-.247-2.323.447.226.524.867 1.052 1.001.125-.517.09-.79-.206-1.278.28-.295.333-.789.262-1.22m-9.346 13.915c-.018.097-.3.316-.062.405.037-.235.128.12.237.071.162-.179.012-.44-.175-.476m-.003-.08c-.005-.244.026-.532-.251-.472.011.239.012.49.251.472m-2.01-7.481c-.018-.062-.069-.09-.16-.073.427 2.543.92 5.014 1.988 6.838-.123-1.21-.788-2.53-1.237-3.651.043-.824-.314-2.04-.59-3.114m-68.602-6.094c.62.058.548-.902.415-1.305-.527.03-.536.91-.415 1.305m42.704-6.887c.125.074.314.061.164.233.219-.024.535.046.537-.185-.163-.045-.543-.277-.701-.048m-.933.039c.342.08.565.212.857.042-.289.015-.747-.38-.857-.042m-6.16-.222c.061.015.093.063.083.159.287-.133.45.064.538-.186-.267.126-.505-.203-.621.027m-4.132-.145c.884.283 2.771.304 3.898.155-1.325-.215-2.685-.3-3.898-.155m-.858-.044c.179.027.513.31.702.05-.13-.082-.547-.274-.702-.05m-2.725.035c.123-.103.55.163.936.041-.025-.43-1.077-.273-.936-.041m-2.735-.286c.592.385 1.276.212 2.343.222-.472-.421-1.66-.04-2.343-.222m-2.883-.039c.766.254 1.754.073 2.186.149-.609-.341-1.297-.29-2.186-.149m-1.872-.08c.014.223.559.176.782.046-.248-.09-.528-.191-.782-.046m-1.873-.082c.024.334.393.185.547.057-.243.05-.279-.132-.547-.057m-3.271-.02c.17.13.581.236.7-.03-.291.125-.573-.187-.7.03m3.231-2.956c-.017.191-.367.064-.298.334 1.75.181 3.013.178 4.677.123-1.323-.475-2.924-.103-4.379-.457m17.996-3.664c.528.368 1.217.037 1.878.243-.582-.469-1.124-.122-1.878-.243m-34.507 1.548c3.137.268 5.327-.123 7.711.076.385.033 1.372.045 1.715.087 1.52.19 3.045-.135 4.283-.02.598.055 1.255.414 1.868 0-4.565-.386-9.14-.298-13.796-.378-.582-.01-1.353-.32-1.781.235m16.647-2.316c-.253-.008-.834-.212-.93.12.371.044.82.117.93-.12m-1.866.079c.465-.002.454.007.86.043-.174-.21-.773-.46-.86-.043m-6-.148c1.511.006 4.255.393 5.76-.002-2.086-.008-3.786-.16-5.76.002m-1.56-.094a11.841 11.841 0 00-2.653-.128c0 .11.043.174.087.238 1.03-.178 1.68.285 2.566-.11m-3.428-.016c.278.051.284 0 .626.055.078-.347-.628-.296-.626-.055m13.635-1.707c-1.012-.124-1.698-.242-2.415-.057.335.251 1.835.259 2.415.057m-2.653-.129c-1.042-.01-2.25-.333-3.267.06-.022-.268-.198-.206-.32-.228-.941-.18-2.256-.067-3.268.059-.315-.16-1.132-.317-1.317.135 2.814-.098 5.501.39 8.172-.026m31.642-8.991c-.045.598-.214 1.873.326 2.319.03-.653.218-2.05-.326-2.32m-1.735-.57c-.1 0-.111-.099-.237-.071-.083 1.411.166 2.28.306 3.77.553-.551.114-1.548.062-2.337-.032-.52-.056-.956-.13-1.362m-3.733 2.09c.04.62-.252 1.42.299 1.677-.086-1.592.044-3.31-.583-4.884-.052.9.214 2.11.284 3.207m-1.77-3.386c-.057 1.779.256 3.157.256 4.496.512-.432.118-1.89.037-2.979-.043-.6.114-1.257-.294-1.517M60.14 27.012c.274.257 1.282.247 1.659.457 1.585-.83-1.978-2.704-1.66-.457" mask="url(#b)"/></g></svg>