<svg xmlns="http://www.w3.org/2000/svg" xmlns:xlink="http://www.w3.org/1999/xlink" width="128" height="96" viewBox="0 0 128 96"><defs><path id="a" d="M0 0h128v96H0z"/><path id="c" d="M0 .46h51.603V77H0z"/></defs><g fill="none" fill-rule="evenodd"><mask id="b" fill="#fff"><use xlink:href="#a"/></mask><g mask="url(#b)"><path fill="#FFF" d="M69.097 24.453a9.6 9.6 0 01-1.087-4.443c0-5.528 4.7-10.01 10.494-10.01C84.301 10 89 14.482 89 20.01s-4.699 10.01-10.496 10.01c-1.023 0-2.01-.14-2.946-.4 0 0-1.707 1.193-4.558.566 0 0-.784 2.107-2.628 2.1 0 0-.697.523-1.102.855-.406.333-.541 1.392-.811 2.056-.272.664-.81 1.657-3.646 1.79 0 0-.146.78.67 1.783 0 0 .95.339 1.49 1.002 0 0-.557.77-.82 1.579-.26.81-.548 1.86-.548 1.86s1.233.807 2.044 2.067c.81 1.26 1.147 3.05 1.147 3.05s.901.558 1.024 4.788c0 0 5.998 1.711 8.7 5.293 2.696 3.577 2.834 8.82-.676 16.778-3.511 7.958-4.523 9.55-4.523 9.55s-2.431 1.328-9.318 1.26c-6.888-.067-10.196-1.26-10.196-1.26s-3.038-5.969-4.996-10.346c-1.959-4.377-4.255-11.605-.879-15.585 3.376-3.979 6.211-5.04 7.9-5.438 0 0-.27-4.444.879-4.907 0 0 .281-3.192 2.537-4.348l.735-.662s-.1-1.29-.708-1.888c-.607-.596-1.127-1.052-1.127-1.052s.655-1.002 1.465-1.467v-1.659s-1.89-.398-2.902-.796c-1.013-.397-1.69-1.193-.879-2.188.81-.995 1.283-1.458 1.283-1.458l-.81-1.26s-.878.396-1.149.065c-.269-.332.07-.861.744-1.26l-2.296-2.72s-.927.094-1.138-.284c-.211-.378.564-1.002-.483-1.837-1.08-.863-4.387-1.194-8.034-1.06 0 0-.54.596-1.959.132l-.066 1.127s-1.621-.796-1.892-1.791c-.27-.995 1.232-2.429 1.798-2.573l.094.85s1.012-.597 2.025 0c0 0 4.928-.2 6.617-.067s3.78 2.322 4.187 2.917c0 0 1.08.198.81 1.26l1.89 2.919s1.147-.066 1.013.861l.878 1.394s.742-.2 1.283-.332l.135-2.189-.81-.265s.607-1.658 1.485-2.056c.877-.398 2.048.685 2.272 1.371l.225.685-.81.265v2.056s1.784.192 3.458 1.556l1.809-2.218-.83-.725s1.528-2.06 2.26-2.16c.731-.1 1.222.361 1.222.361s-.626-1.456-.288-2.318c.337-.863.342-1.194.342-1.194"/><g transform="translate(38 9)"><mask id="d" fill="#fff"><use xlink:href="#c"/></mask><path fill="#E3B58F" d="M26.457 23.47c.068 0 .135.01.2.02.034.025.067.045.1.072l.16.13.085-.106c.483.203.898.632 1.235.965-.547-.168-1.395-.552-1.78-1.081zm1.166 3.306c-.24-.005-.243-.243-.368-.36-.237.012-.451.002-.614-.06.037-.195-.042-.28-.06-.422.379.513.981-.096 1.472.06.017.42-.404.409-.43.782zm-2.76-1.382c-.5-.593-1.048-1.139-1.534-1.745.623.292.846.975 1.595 1.143-.001.141.105.179.06.36.518.083.773-.235 1.29-.059-.422.148-.968.174-1.41.301zm.72 4.156c.067.098.14.19.2.294-.628-.046-.698-.64-1.042-.962-.032-.191.085-.237.122-.361.133.214.283.412.433.61.08.136.173.274.286.419zm.323.294c.22.084.438.172.49.42-.173.112-.573 0-.735.122-.063-.086.387-.179.245-.542zm1.227 6.075c-.353.044-.793-.346-1.044-.602-.16.017-.306.02-.244-.18.547.144.925.453 1.288.782zm.675.48c.302.911.77 1.672.736 2.767-.197-.069-.094-.431-.307-.482-.291.116-.176.362-.246.602-.55-.324-.463-1.075-.491-1.745.273.296.264.865.675 1.022-.103-1-.251-1.957-.92-2.404.243-.216.378.188.553.24zm1.104 3.368c-.136.227-.549.185-.921.18-.058-.42.557-.175.553-.542.158.087.346.142.368.362zm-.797.722v-.24c.257.062.415-.128.551 0-.007.254-.328.198-.551.24zm.982 1.322c-.116.072-.542-.076-.553.241-.242-.114-.378-.337-.245-.66.101-.108.206.052.429 0-.015-.246-.32-.21-.491-.302.197-.216.65-.332.86-.06v.781zm.183.841c.327.083.153.653.245.965-2.47.864-5.715.68-8.466 1.022-1.016-.29-2.365-.194-3.56-.362-.461-.066-.808-.32-1.165-.3-.015 0-.027.004-.04.008a17.75 17.75 0 01-.024-1.125c.63.348 1.035-.288 1.354-.568 1.11.354 2.668-.096 3.435.602.096.155-.047.414.246.48.202-.061.028-.492.306-.48.274.152.1.746.429.842.176-.228-.099-.898.369-.842.007.372.091.673.368.782.16-.207-.142-.655.061-.903.539.132.919-.197 1.35.06-.237-.031-.253.155-.43.181.072.471.32.953.919.722.157-.107-.06-.58.186-.601.175.148.141.503.306.66 1.29.029 2.367-.16 3.559-.359.074-.238-.188-.453 0-.603.252.114-.024.747.491.603.213-.206-.128-.609.06-.784zm3.37 2.355c1.29.561 2.854 1.371 4.207 2.433.432.399.881.776 1.258 1.228.125.818.764 1.133.858 1.985.868 1.093.993 2.915 1.35 4.509-.082.348-.021.635.062.963-.184 1.342-.124 3.073-.798 4.089-.004.615 0 1.24-.43 1.443-.077-.877.71-1.689.552-2.645.15-.155.12-.487.246-.662.168-2.106.001-4.656-.92-6.315-.248 0-.171.313-.185.542-.415-.025-.245-.907-.673-.723-.195.775.237 1.544.305 2.406-.484-.466-.312-1.576-.675-2.165-.462-.252-.332-1.39-.982-1.263.133.834 1.141 1.82.37 2.828-1.393-.093-.521-1.716-1.228-2.406.372.215.413.757.858.902.34-.54-.231-1.157-.612-1.384-.454.168-.556-.059-1.043-.12-.071-.263.093-.447 0-.842.488-.242.76-.114 1.288.06.054-.796-.899-1.124-1.227-1.744-.468-.182-.85-.45-1.226-.721-.937-.126-1.444-.671-2.393-.783-.226-.218-.738-.16-.736-.601 1.415.115 2.187.863 3.558 1.023-.83-.671-2.274-.738-3.13-1.383-.222.024-.75.086-.858-.301 1.348-.172 2.175.615 3.374.782-.65-.586-1.716-.764-2.637-1.083-.516.022-.858-.122-1.35-.121-.09.228.167.117.122.301-.603-.15-1.29-.22-1.964-.301.107-.545 1.076-.189 1.412-.06.988-.416 2.172-.07 3.248.129zm5.894 18.454c.2-.535.086-1.066.492-1.443.228.393-.167 1.194-.492 1.443zM38.3 62.38c-.158.893-.798 1.818-.92 2.947-.133.11-.162.323-.307.422-.11.533-.166 1.12-.614 1.323.54-1.959 1.334-3.667 2.024-5.474.142.06.127.276.123.482-.024.175-.209.194-.306.3zm-.062 2.166c-.137-.026-.025-.297-.06-.422.23-.05.112.371.06.422zm-.675 1.443c.064-.48.251-.838.43-1.204.23.297-.023 1.133-.43 1.204zm-.122.66c-.185-.165.046-.431.122-.541.186.167-.045.433-.122.541zm-.78 2.245l-.312.684c-.08.092-.144.2-.197.32-.128-.908.6-1.497.798-2.286.147.316-.18.792-.289 1.282zm-.82 1.788c-.209.18-.18.692-.426.598.264-.203.058-.865.43-.962a.16.16 0 01.144.043l-.149.321zm-.918 1.94c-.002.002-.003.003-.003.005-.108.19-.254.374-.287.591l-.256.517a.253.253 0 01-.065.01c-.005-.55.43-1.177.675-1.683.091.216.03.392-.064.56zm-1.287 1.064c-.052-.306.217-.78.245-1.203-.17-.206-.373-.17-.611-.06.82-1.62 1.484-3.394 2.268-5.051.057.026.11.053.123.12-.548 1.666-1.35 3.085-2.025 4.63.362.063.725-.364.92-.66a23.347 23.347 0 011.719-3.85c.333.154.082.483-.123.6-.427 1.829-1.603 3.24-2.024 4.873-.331.036-.192.533-.492.601zm-.551-.42c-.136-.009-.026-.256-.062-.362h.184c-.02.142-.074.247-.122.362zm-.184 1.623c.007-.153.09-.233.245-.241-.02.141-.039.283-.245.241zM32.84 57.63h.183c.097.137.097.582 0 .721-.4-.031-.115-.366-.183-.72zm-.43 17.197c.034-.193-.042-.279-.062-.42.109.009.13-.073.246-.059-.02.201.082.521-.185.48zm1.226-13.77c-.19-.115.143-.215.185-.302.143.236.374.226.614.242-.225.409-.675-.233-.799.06zm.185 4.811c.157.007.122.2.123.36-.222.057-.086-.235-.123-.36zm2.638-.783c.27.436-.163 1.035-.43 1.325.01.45-.108.777-.43.9.163-.625.407-1.682.86-2.225zm-.49-6.313v-.542h.183c-.027.212.1.58-.184.542zm3.068.541c.07-.01.107.013.121.06-.298.762-.169 1.576-.613 2.165-.022-.683.332-1.519.492-2.225zm-.614-.42c-.01-.15-.01-.291.06-.362.185.004.18.426-.06.361zm0 .059c.16.3.016.817-.245.903-.04-.234.069-.698.245-.903zm.122-.48c-.194-.013-.143-.445-.062-.542.189.085.238.425.062.541zm-.86 3.968c-.064.137-.185.219-.367.24-.084-.382.242-.364.245-.66.176.007-.053.412.123.42zm.123-1.263c-.036-.215.072-.29.123-.422.264.012.073.474-.123.422zm-.245-1.864c-.389-.04-.476-.376-.674-.602.538-.576.979-1.245 1.656-1.684.026-.227-.16-.427 0-.6.29-.025.263.263.368.42-.432.838-.928 1.616-1.35 2.466zm1.595-.361a.39.39 0 01.062-.301c.233-.044.133.39-.062.3zm-.367-6.135c.24.046.203.365.246.602-.179-.104-.234-.333-.246-.602zm-1.288.542c.205-.022.1.261.183.36-.305.055-.254-.197-.183-.36zm.98 1.865c.13.545.825.39.921.842-1.351-.215-3.067-.495-3.743-1.563-.03-.19.087-.237.124-.362 1.15-.114 1.484 1.061 2.698 1.083zm-8.833-6.555c-.184.011-.217-.215-.124-.302.206-.062.097.188.124.302zm1.103 6.975h.184c.03.19-.086.237-.123.362-.135-.009-.025-.256-.06-.362zm1.043.121v-.421c.263-.07.263.492 0 .421zm-.245-4.27c-.158-.047-.214-.192-.185-.42.257 0 .277.233.185.42zm.062.962c.209.196.223.583.244.962-.389-.123-.254-.707-.244-.962zm.244-3.068c-.275-.07-.065.338-.368.241-.11-.137.143-.306.247-.421a.595.595 0 00-.185-.36c.043-.189.163-.078.306-.061.005.304-.077.344 0 .601zm.799-1.262c-.19.162-.535-.035-.554-.24.21.055.39.14.554.24zm.551 3.909c-.02-.14.01-.231.063-.301.182.006.162.359-.063.301zm.492-3.428c.096.006.233-.028.245.06.067.212-.376.162-.245-.06zm-2.394-1.563c.027-.073.079-.125.184-.121 1.294.477 2.65.892 3.498 1.804-1.097-.69-2.375-1.2-3.682-1.683zm-.428 5.172c.34.53.315 1.377.49 1.924.21.027.344-.023.49-.059.062.54.294.915.92.9-.175.419-.722-.034-.981.121-.046-.325-.758-.54-.92-.362-.254-.073.023-.173.061-.3-.308-.177-.38-.589-.736-.721-.43.04.023.944-.307 1.083-.523-.54.011-1.398-.368-1.986.525-.979-.172-1.774.124-2.704.446.62-.136 2.572 1.227 2.104zm-.124-.721c-.178-.004-.227-.139-.306-.241-.02-.24.14-.303.123-.542.098-.015.106.058.183.06-.108.212-.048.496 0 .723zm-1.962-2.526c-.262-.198-.126-.435-.185-.782.311.054.378.574.185.782zm.122 2.105c-.17-.004-.146-.285-.062-.362.168.001.146.284.062.362zm.12 3.066c.03.189-.163.159-.182.3-.195-.053-.208-.241-.122-.42.195-.052.189.094.305.12zm-.242-1.023c-.038-.726-.179-1.278.06-1.923.417.337.237 1.61-.06 1.923zm-1.535-3.788c.246.252.233 1.003.061 1.324-.43-.04-.153-1.043-.06-1.324zm.061-.06c-.166-.025-.251-.286-.122-.421.173.074.203.245.122.42zm-.122-1.143h.185c-.104.293.04.467-.124.66-.205-.03-.139-.54-.061-.66zm0-1.383v-.421c.194-.077.194.498 0 .421zm0 .24c.18.124.24.482.122.722-.192-.092-.102-.46-.122-.722zm3.313 15.035c-.328-.677.223-1.362.184-1.923.204.506.334 1.659-.184 1.923zm1.656-4.389c-.074.266-.18.504-.245.78-.804-.41-.974.69-1.166 1.262-.197.055-.083-.197-.245-.178-1.355.857-.556 3.901.369 4.69-.073.31-.395.376-.676.481-.28-.307-.486-.687-.98-.782a49.73 49.73 0 000-2.586c-.465.069-.324.727-.676.902-1.248-.119-.701 1.52-1.044 2.286-.332-.515.353-1.496-.121-1.924-.722.125-.472 1.137-.676 1.623-.159.148-.439-.225-.675 0-.278.4-.291.996.061 1.323-.05.432-.41.56-.428 1.023-.239.09-.423-.33-.614-.481-.458.457.142 1.255.552 1.443-.055 1.324.125 2.527-.307 3.428.143 1.043-.123 2.023-.368 2.826.044.14.156.448-.123.421.03-2.19.55-4.587.553-6.494-.645.362-.673 1.501-.613 2.224-.28.53-.1 1.508-.43 1.985.255.751-.104 1.892-.185 2.587-.201-.762-.07-1.869.123-2.527-.235-1.123.556-2.66.062-3.79-.35.079-.181.666-.369.903-.115 1.238-.102 2.447-.245 3.669-.078.661-.334 1.327-.368 1.984-.018.317.283.866-.123 1.082-.152-2.371.493-4.572.43-7.517.041-.24.183-.38.246-.6 0-.262-.124-.402-.185-.6.19-.776.211-1.66.122-2.469.215-.486.31-1.12 0-1.562.03-.272.402-.462.184-.783-.657-.022-.558 1.625-.552 2.226-.093.209-.102.502-.184.721-.332-.137-.035-.636-.245-.962.24-.65-.024-1.494.245-2.164-.246-1.23.725-3.055-.122-3.79-.575.524.077 1.945-.307 2.586.161 1.745-.381 3.05-.061 4.692.308.041.306-.222.552-.24-.074.821.128 1.68-.184 2.345.133 2.391-.385 4.53-.246 6.555-.244.355-.238 1.165-.307 1.502-.468.058-1.037.046-1.533-.119-.193-2.641.336-6.085.183-8.42-.764.272-.088 1.957-.49 2.586.277.328.024.857-.06 1.324.02.74-.064 1.501-.063 2.406 0 .73.094 1.726-.43 2.043-.185-1.694.45-3.55.124-5.112.196-.901.337-2.244.123-3.248-.514.164-.312 1.198-.307 1.685-.213 1.04-.024 2.402-.247 3.428.285.654-.305 1.577.062 1.925-.258.318-.13.952-.245 1.322-.32.013-.118-.486-.307-.6.341-2.278.294-4.895.307-7.098.056-.204.15-.371.183-.601-.043-.276-.247-.398-.43-.542-.351.18-.137.636-.121.903.055.951.011 1.88-.123 2.887-.029.19.088.235.123.36-.17.964-.16 2.15-.246 3.069-.04.432.206 1.055-.184 1.201-.485-.494.144-1.663-.244-2.345.185-.418.182-1.022.307-1.504-.237-.776.2-2.016-.186-2.826.115-.732.468-1.953-.246-2.286-.362.465-.237 1.461-.122 2.045-.076 2.432.023 4.753-.061 7.157-.351.063-.252-.313-.43-.42.13-2.478-.054-4.786.186-7.037-.336-.676.222-2.236-.554-2.526-.277.218-.086.893.063 1.083-.162.35-.191 1.098 0 1.443-.1.944-.202 1.839 0 2.706-.258 1.54.195 3.205-.307 4.691-.573-1.008 0-2.468-.431-3.849.132-.051.1-.264.185-.36-.297-1.324.161-2.952-.121-3.97-.284-.036-.288.2-.431.3.19 1.722-.184 3.543 0 5.414.058.59.444 1.646-.123 2.224-.307-2.267-.313-4.48-.184-6.917-.155-.308-.214-.713-.491-.901-.224.122-.166.517-.306.722.443 1.383-.003 3.571.43 5.052-.058.643.081 1.219-.124 1.623-.497-.158-.284-.703-.306-1.022-.12-1.713-.357-3.46-.308-5.172.03-.985-.262-1.946-.306-2.886-.06-1.246-.051-2.497-.246-3.73-.023-.424.11-.695.062-1.143-.34-.374-.345-.773-.552-1.201-.325 1.444.44 3.041.122 4.51.366.914.077 2.074.492 3.068-.274 2.275.459 4.828.368 7.215-.351-.233-.153-1.163-.615-1.442.006-.187-.027-.334-.122-.421.038-1.451-.068-3.344-.369-4.812.09-2.264-.047-4.79-.613-7.036-.214.05-.171.353-.306.481.42 3.525.708 6.916.92 10.705-.34-.128-.18-.745-.49-.902.196-1.311-.484-2.807-.246-3.969-.11-.94-.571-2.531-.369-3.729-.418-.472-.101-1.666-.613-2.045.392-.849.233-1.716.123-2.646-.582.136-.4 1.03-.246 1.443-.143.584-.024 1.372.123 1.865.094 3.703.84 6.233.858 9.742-.255-.417-.33-1.24-.306-1.744-.017-.186-.133-.27-.183-.421.108-1.038-.57-2.893-.614-3.908-.013-.307.182-.657-.185-.844-.355.11.036.664-.183.964-.602-.354-.016-1.812-.86-2.045-.178.532.113 1.65-.06 2.285-.189-1.181-.787-2.524-.614-3.669C8.996 57.916 9 53.6 9.22 49.028c-.282.085-.323.406-.553.542.041-.159.112-.321.192-.483.475-.526.95-1.021 1.432-1.463.355.431-.062 1.406.155 1.885-.18.325-.069.937-.185 1.323.36.796-.242 2.096.614 2.645.154-.048.329-.077.551-.06.377.86-.225 2.864.799 3.369-.174-1.278-.21-2.947-.49-4.09-.456-.02-.285.37-.37.602-.75-.354-.616-1.696-.551-2.645.06-.883-.011-1.467.246-2.166-.102-.39-.18-1.168.008-1.538l.228-.186c.024-.005.043-.02.07-.02a50.19 50.19 0 000 4.33c.45-.028.347-.364.185-.602.365-.208.086-.785.429-1.083.012-.974-.405-1.752.122-2.344.254.73-.1 1.908.307 2.585.743-.723.138-2.357.614-3.368.287.892-.088 2.122.43 2.647.546-.085-.038-.52.06-.662.684-.252.269-1.582.675-2.104.308.351-.003.966.184 1.383 1.094.011.295-1.572.736-2.105.332.265-.027.896.184 1.323h.307c.528-.305.312-1.339.553-1.925.287.398-.035 1.56.306 1.925.609-.145.057-1.428.553-1.684.398-.04.752.262 1.166.12.057.486-.172 1.247 0 1.744.392-.365.46-1.133.366-1.804a.445.445 0 01.676 0c-.068.733-.284 1.899 0 2.466.216-.682-.046-1.796.306-2.466.473-.032.59.16 1.105-.06.37.271.013.679 0 1.022-.009.253.11.536.123.782.114 2.4-.522 5.147-.369 7.877.147.26.144.664.492.724-.084-3.232.4-6.803.06-10.225.126-.093.55-.093.676 0-.142.767-.23 2.08 0 2.827-.31 1.557-.097 3.522-.306 4.991.179.117.323-.215.49-.3.11-1.63-.081-3.622.184-4.93-.075-.66-.208-1.978.122-2.588.54.704.227 2.02.246 3.187.012.799-.018 1.538 0 2.166.642.04.366-.762.367-1.324.005-.871.051-1.97.185-2.646-.156-.381-.23-1.167.185-1.322.192.265.195 1.072-.062 1.262.692 1.24-.384 3.133.675 3.909.259-.163-.008-.454-.061-.66.027-1.6-.008-3.205.06-4.632.256.015.24-.077.43 0-.226 1.47.171 3.046-.061 4.57.037.787.064 1.582.43 2.045.179-1.751-.1-4.454.182-6.494.466.105.146.981.37 1.322-.216 1.054.011 2.29-.184 3.127.167 1.087.078 2.074.06 3.128.84-.355.007-2.013.43-2.586.027-.206-.024-.336-.06-.48.156-.636.193-1.36.183-2.047-.01-.785-.232-1.745.123-2.404.402.02.192.5.123.721.237.81.021 2.063.184 2.947-.16.184-.243.994.06 1.084.543-.505.147-1.557.43-2.285-.332-.523-.058-1.28-.061-1.926-.001-.354-.249-.651-.06-.842.524.08.35.984.366 1.383.018.244.106.418.123.662-.203 1.548-.197 2.65.122 4.03-.34.508-.53 1.559-.183 2.103.777-.274.066-1.643.552-2.163.444.708-.243 1.996.553 2.284.218-1.517-.149-4.219.12-5.653-.186-.5-.28-1.306-.059-1.924.493.817-.051 2.184.368 3.006-.452 1.542.245 3.73-.184 5.413.268.586-.14 1.573.307 1.985.152.051.33.078.552.059.083.198.144.42.368.482-.295.092-.286.481-.368.782.12.181.246.361.613.3.125-.017.12-.162.246-.179-.057-.345-.287-.672-.062-.964-.175-.427-.763-.455-.981-.841.29-.097.585-.335 1.165-.3.144.178.11.534.244.72.293-.023.444.127.676 0-.036.224.158.381 0 .542-.185-.134-.55-.405-.797-.12.12.502.602.227.86.24.1.242.012.67.307.723 1.4-1.02 3.443-1.91 5.52-1.325.193-.011.45.04.553-.06.246.368.715-.015.86.301-.077.431-.71-.054-.921.24-.09-.013-.022-.177-.123-.18-.922.132-1.707.099-2.945.18-.073 1.042.536 1.791.613 2.466.205.28.605.37.92.542.053.412-.154.57-.307.782-.286.076-.482-.044-.798.06-.852-.757-1.577-2.188-.982-3.668-.27.034-.355.25-.49.42-.52-.13-.458.312-.92.242zm-.307 1.201c.28.104.144.494 0 .663-.172-.18-.12-.449 0-.663zm-.184 2.166c-.151-.572.129-.92.123-1.325.162.044.121.284.246.363-.232.214-.015.866-.37.962zm0 .722c-.25-.076.064-.343 0-.602.273.035.073.518 0 .602zm-.06.48c-.156-.005-.146-.223-.062-.3.158.007.146.224.062.3zm-.184 1.805c-.212-.044-.041-.181 0-.3.214.046.07.21 0 .3zm-1.291 1.383c.127.146-.001.373 0 .481-.126-.051-.063-.418 0-.481zm.186 7.458c-.537-.233-.566.197-.982.24.019-.303.266-.382.245-.722.07.332.857-.037.737.482zm-.86 2.646c.095-.245.702-.254.86-.242-.06.302-.558.176-.86.242zm.186-7.457c-.026-.127.04-.16.06-.241.108.014.14.102.123.24h-.183zm.244 3.186c.278.113-.027.426.062.722-.163 0-.352.023-.43-.06.125-.218.32-.367.368-.662zm-.43-1.745c.102.028.102.457 0 .483-.278-.016-.046-.403 0-.483zm-.613 3.55c-.37-.053-.084-.674 0-.842-.026-.215-.222-.264-.306-.42.098-.248.135-.318 0-.543.222-.047.593-.032.613-.42.37.444-.064 1.644-.307 2.225zm-.551 1.924c.074-.307.094-.67.183-.962.42.196-.07.727-.183.962zm-.184.421c.147-.116.402.05.429.241-.228 0-.422-.028-.43-.24zm-.307-1.383c-.138-.027-.025-.297-.062-.422.178 0 .145.34.062.422zm-.062-4.631c-.174-.483.082-1.13.123-1.744.223.286.144 1.325-.123 1.744zm.553 1.143h.183c.084.315-.429.726-.062 1.081-.334.435-.297 1.234-.551 1.746-.095-.774.34-1.858.43-2.827zm.061-5.714c-.208-.7-.083-1.678.122-2.405.352.664.033 1.663-.122 2.405zm.06 5.053c-.003-.223.062-.38.124-.543.125.109.072.55-.124.543zm.185-.723c-.222-.124-.058-.313 0-.48.127.05.064.42 0 .48zm.123-.54c-.132-.391-.043-1.083.122-1.385.29.465-.145.845-.122 1.384zm.613-4.27v.24c-.237.047-.237-.288 0-.24zm-.429 2.165c-.072-.187-.01-.506.061-.721.362.087.23.65-.06.72zm-.737-1.083c.092.305.198.82-.122.962-.166-.307.173-.576.122-.962zm-.552 4.39c.072-.01.11.013.123.06.121.355-.15.804-.246 1.143-.25-.243-.097-1.031.123-1.203zm-.49 4.028c-.424-.74.148-1.68.246-2.464.217.637-.132 1.752-.246 2.464zm-.369 1.806c-.071-.09-.076-.247-.183-.3.102-.141.23-.257.246-.484.183.162.189.498.306.723-.145-.001-.18.104-.369.061zm-.675.06c-.12-.318.099-.772.124-1.143.125.018.122.16.184.24-.045.27-.199.333.06.48-.034.227-.108.418-.368.422zm-.123-4.932c.13.083.183 1.09-.183 1.083-.164-.358.175-.7.183-1.083zm.247 3.428c.067-.657.1-1.542.306-2.225.484.46-.009 1.763-.306 2.225zm.428-2.285c-.316-.457.093-1.585.186-2.225.16.63-.051 1.498-.186 2.225zm.675-6.074c.09.014.144.495-.06.42 0-.16-.025-.343.06-.42zm-.735 1.264c.612.138.389-.54.735-.662-.048.725.087 1.45-.306 1.923-.148-.055-.163-.24-.429-.18-.479.596.042 1.804-.553 2.285-.224-.797.447-2.323-.122-3.066.368-.309.386-.74.551-1.144.323.175-.163.664.124.844zm-.92 7.335c-.53-.326.23-1.567-.062-2.164.107-.016.14-.104.123-.24.228.057.264.628 0 .66.313.529-.044 1.172-.061 1.744zm-.369 1.263c-.007-.185.075-.286.123-.421.192.035.221.225.246.421-.079.081-.29.081-.369 0zm-.491-.78c.197.013.14.388-.06.359-.046-.183.062-.219.06-.36zm.184.9c-.144-.017-.229-.094-.43-.06-.032-.232.158-.245.186-.42.222.013.303.38.244.48zm-1.166-.12c.154-.27.085-.758.246-1.022.43.267.03.74.246 1.082-.177-.006-.403.032-.492-.06zm-8.833-.48c.043-.22-.152-.335 0-.482.074.128.23.176.245.361-.124.001-.08.164-.245.121zm-.52.263c.016-.02.041-.033.09-.022.009.022.025.037.037.059l-.127-.037zm-.217-1.046c-.15-.033.027-.389-.184-.36.01-.071.11-.05.184-.06.086.08.086.341 0 .42zm-.308-2.044c.261.313.315 1.126.308 1.504-.407-.315-.422-1.041-.308-1.504zm-.49 1.504c-.2-.41-.38-1.24-.43-1.985.285.041.105.54.43.542-.258.463.324 1.116 0 1.443zm-1.35-4.27c-.01-.148-.01-.291.062-.361.137.047.202.403-.062.36zm-.49-3.848c.264.56.309 1.34.368 2.103-.33-.467-.445-1.433-.368-2.103zm.306 2.584c.283.024.236.371.246.663-.214-.092-.259-.349-.246-.663zm-1.165-1.863c.208-.006.181.223.184.421-.123-.082-.137-.268-.184-.421zm-.983-1.504c.21-.005.183.223.185.42-.2-.005-.13-.271-.185-.42zm-.55-1.383c-.336-4.364-1.474-8.44-.738-12.75.046 3.29.376 7.007.8 10.705.309.727.309 1.568.366 2.405-.163-.1-.2-.323-.428-.36zm-.615-1.324c-.149-.195-.152-.532-.183-.842.283.063.151.534.183.842zm-.858-4.69h.121c.387.243.147 1.1.37 1.503.048.21-.093.23-.062.422.13.5.444 1.374.306 1.744-.211-.376-.328-.841-.306-1.444-.413-.61-.391-1.525-.43-2.224zm-.43-1.142c-.316.69.24 1.9.122 2.886-.436-.748-.498-2.261-.367-3.187.182 0 .209.156.367.18.317-.27.157-1.017.061-1.383 0-.746.183-1.272.185-1.924.098-.018.106.056.183.06.05.208-.09.23-.06.42.181.733-.066 1.66 0 2.466.049.598.382 1.216.06 1.564-.432-.116.038-1.12-.55-1.082zm.061 3.428c.045-.185-.106-.177-.06-.361H7.5c.096.09.11.412-.122.36zm-.43-4.21c.192-.028.197.128.186.3-.108-.056-.215-.112-.186-.3zm.37-3.067c.172.737-.063 1.918-.307 2.705-.267-.792.123-1.956.306-2.705zm.182-.723c.278.12.004.504-.06.661-.277-.119-.004-.5.06-.66zm1.044-2.225c.223.562-.365.845-.55 1.203-.18-.524.414-.787.55-1.203zm3.596-3.497c.106-.041.215-.08.33-.111-.006.295-.318.291-.306.6-.183-.154-.448.119-.543-.101.173-.13.345-.269.519-.388zm.559-.355l.056-.034c.148-.038.41.115.39-.204.1-.016.106.057.184.062-.06.182-.161.322-.184.54-.196-.047-.13-.354-.49-.24.002-.063.019-.098.044-.124zm2.533-1.018c-.241.308-.769.32-1.228.54.221-.364.802-.376 1.228-.54zm1.123-3.47c.177.035.407-.108.596-.14.15-.114-.28-.162-.185-.42 1.96-.048 3.783.409 5.582.542.117.007.289.004.43 0 .771-.03 1.705-.02 2.453-.061.593-.033 1.327-.46 1.84.06-.66.092-1.341.168-1.963.302.104.44.928.063 1.106.298-.807.294-1.83.374-2.7.604-2.177-.275-5.148-.296-7.17-1.06.004-.042.006-.084.011-.125zm.678-1.898c1.377-.319 3.03.17 4.395.256 1.792.112 3.635-.413 5.276-.18-.809.477-2.114.2-3.19.48.593.195 1.791-.043 2.515.18-1.662.355-4.066.708-6.136.423-.192-.03-.248.073-.305.179-.565-.447-1.814-.22-2.455-.722.003-.256.389-.14.552-.24-.148-.197-.37-.322-.692-.35.013-.01.026-.02.04-.026zm.23-.705c.049-.24.124-.55.235-.888.098.161.002.51.249.526.107-.455.537-1.34.349-1.842a4.035 4.035 0 011.198-1.275 2.64 2.64 0 01.97-.011c.331-.43.74-.12 1.225-.301.301.771-.053 2.385.552 3.128.176-.664-.363-1.204.123-1.743.401.577.067 1.546.551 1.984.151-1.24-.324-2.37.063-3.249.11 1.115.222 2.228.613 3.069.39-.646-.223-1.5.123-2.106.355.011.016.412.123.722.416.602.058 1.648.553 2.105.148-.58-.087-1.351.182-1.744.2.466.154 1.172.306 1.683.22.046.422-.186.492.06-.451.27-1.238.24-1.718.12-.716.174-1.428.29-2.392.181-.772.262-1.882-.094-2.822-.06-.288-.08-.302-.425-.553-.54-.065.224.153.171.123.36-.123.025-.456.149-.553 0 .01-.06.01-.12.008-.179zm2.733-6.138c.122.056.248.103.388.123-.089.037-.18.074-.263.118a2.572 2.572 0 00-.125-.241zm2.045 3.671c.027-.328-.11-.495-.06-.843.15.115.398.813.06.843zm2.823-3.67c-.029-.189.054-.267.244-.24.03.189-.053.27-.244.24zm.184 1.324c-.09.093-.24.126-.43.122-.057-.4-.209-1.002.307-1.024-.012.38-.13.69.123.902zm.614-1.804c-.147-.16.048-.353.305-.3-.027.172-.129.274-.305.3zm.048 1.811l-.001.006c-.155-.008-.33.003-.354-.133.092-.584.003-.986.307-1.324.047.348-.006.753.061 1.202.023-.001.04-.009.061-.013-.044.157-.072.26-.074.262zm-.54 1.557v-.241c.87.591 1.929.995 2.27 2.105-.562-.812-1.415-1.339-2.27-1.864zm.123 2.946c.238.05.192.372.43.422.286-.003.59-.233.86-.06-.254.336-.759.057-1.228.18-.103-.1-.05-.353-.062-.542zm-.798-10.403c.126-.05.267-.086.405-.125 0 .09.008.212.036.357-.189.071-.38.002-.44-.232zm-.612-2.646c0-.166.288-.143.367-.061-.052.115-.27.162-.367.06zm.244 2.646c.179 1.03.74 1.682 1.289 2.345-.958-.303-1.268-1.562-1.596-2.286a.411.411 0 01.307-.06zm-5.306 3.046a6.21 6.21 0 01.244-.29c.498-.122 1.066.013 1.565-.05-.193-.272-.898-.042-1.042-.36.15-.055.266-.14.49-.122.105-.199.246-.36.306-.6a6.16 6.16 0 01-.288.076v-.951c.114-.113.31-.144.351-.328-.02-.142-.29-.036-.246-.241.76-.3 1.006.599 1.656.421.331.457.172 1.394.614 1.744-.016-.598-.268-1.281.062-1.624.34.536.108 1.284.49 1.804-.494.126-1.21.003-1.841.241 1.633.22 3.066.212 4.541-.18.079.122.298.11.244.36-1.723.553-3.82.407-5.827.482.169.194.31.417.429.66.79-.153.944.317 1.533.36.327.264.152 1.017.553 1.203.259-.126-.033-.791.245-.9.213.356.143.875.43 1.264.314.001.685-.185.736.178-1.212-.015-2.524.244-3.596.04l-.005-.055c-.001-.012-.008-.1-.027-.229.041.005.077.01.13.005.125-.321-.174-.697-.244-1.022.118-.104.342-.105.49-.18-.033-.65-.732-.645-.797-1.265-.462.06-.875-.354-1.196-.441zm4.14-2.866c-.009-.248.427-.063.613-.121.031.234-.494.232-.613.12zm.798 2.226c-.046.185-.443.242-.613.119.068-.166.443-.241.613-.119zm-7.607-4.15c.035-.196-.042-.28-.06-.422.076-.082.289-.082.366 0 .04-.621.723-.613.982-1.022-.21-.063-.554.257-.92.24.819-1.001 1.967-1.678 3.373-2.105-.069.153-.15.294-.245.422.655-.13.938-.776 1.78-.543.021.244-.355.094-.306.363.012.266.386.182.49.36-.062.214-.185.54 0 .661.428-.2-.196-.849.368-.962-.005.744.46 1.225.184 1.865.267.318 1.194-.267 1.595.24-.595.134-1.399.125-1.902.181-.161.017-.202-.083-.183-.241-.675.361-1.752.243-2.762.241-.55-.435-1.557-.29-1.961.12 2.227.744 4.245.498 6.686.662-.474.307-1.276.112-1.84.42.267.404 1.261-.276 1.349.3-2 .313-5.459.555-6.994-.78zm.744-3.723c.154.022.284.084.36.234-.01.09-.034.162-.053.243l-.307-.477zm-.868-.607c.354-.516.879-.863 1.597-1.022-.271.559-.96 1.02-1.597 1.022zm-1.888-3.422c.34.023.65.18.847.476-.11-.296-.389-.424-.492-.723.002-.378.295-.474.553-.601.615.297.71 1.108 1.533 1.203.15.595.557.937.737 1.502-.313.264-.6.553-.932.796l-2.246-2.653zm-.626-.547c-.257-.009-.343.109-.553 0 .922-1.575-.924-2.102-1.842-2.768-.047-.228.291-.076.432-.12-.233-.675-1.148-.634-1.841-.6-1.287-.353-2.557-.114-4.05-.3-.29.076-.567.163-.981.12-.202.062-.207.316-.247.54-.273-.152-.43-.417-.611-.66-.045-.305.188-.338.123-.663.115-.13.26-.218.423-.28.386-.014 1.33-.049 2.405-.074 1.017.02 2.068.017 3.183.053.224.16.574.2.798.361 1.92.001 2.25 1.563 3.25 2.465.07.287-.078.365-.182.483.31.036.449-.22.612 0-.16.442-.705.51-.92.902.337-.013.757-.462 1.228-.542-.104.661-.955.59-1.227 1.083zM9.647 14.75c.279-.294.873.035 1.166.12-.323.11-.827.047-1.166-.12zm-1.533-.241c.282-.027.488-.11.674.059-.06.149-.713.24-.674-.06zm-.92.119c.072-.193.608-.169.735-.12-.097.317-.395.062-.735.12zm-.8 0c.003-.164.291-.142.37-.06-.002.165-.29.143-.37.06zm-.488-.12c.2.003.432-.025.429.181-.104-.099-.45.038-.43-.18zm-1.044.181v-.18c.1-.091.453-.091.552 0 .037.278-.337.152-.552.18zm-1.665.696a2.88 2.88 0 01-.719-.113c.017-.074.025-.148.053-.224-.015-.164-.346-.02-.308-.24-.01-.13.219-.026.308-.058.064-.225-.208-.12-.246-.241a2.66 2.66 0 00.184-1.082c.213-.173.433-.338.858-.302.096.246.165.522.185.842-.125.218-.547.146-.736.301-.072.181.006.327-.061.602.284.212.67.326 1.104.396a1.51 1.51 0 01-.622.119zm14.733 6.762a.443.443 0 00.123-.181c.226.058.315.252.429.42-.122.302-.36.491-.736.541-.329-.137-.483-.448-.736-.661-.058-.677.694-.33.92-.12zm2.822-2.947a3.64 3.64 0 01.257-.762 3.22 3.22 0 01.261-.346c.14-.112.312-.15.525-.035a5.156 5.156 0 01-.122.843c-.401.007-.564.248-.92.3zm2.025 5.714c-.263-.511-.171-.999-.368-1.565.284.339.959 1.199.368 1.565zm-.185-4.752c.03.247-.154-.047-.245.12.2.275-.138.699.123 1.082.183.014.208-.221.368-.06-.205.504-1.061.03-1.473.36-.265-.265.277-.643-.123-.902.173-.213.162-.602.307-.841.391.037.983-.12 1.043.24zm-.245-1.746c.228-.063.2.128.307.182.011.13-.218.026-.307.06v-.242zm1.275.134c.069.099.122.196.16.287-.08.03-.137.057-.21-.12-.033-.105.006-.139.05-.167zm1.547 4.8c-.361-.036-.943-.355-1.104-.784.386.243.826.434 1.104.783zm-.106-.807a.67.67 0 01.106.144c-.3.035-.448-.076-.49-.295.125.045.25.093.384.15zm2.866 3.03c-.042.348-1.052.587-1.102.181.355-.064.697-.352 1.102-.18zm-1.716-1.442c.369-.06.658.476 1.042.6-.417.108-.693-.441-1.042-.6zm3.25-2.165c-.523.408-.608 1.246-1.348 1.443-.129-.075-.261-.147-.369-.24.104-.834 1.13-2.134 1.717-1.203zm-.244-1.625c-.1-.966 1.664-2.08 2.146-.901-.468.382-1 .704-1.287 1.263.08.276.105.248.122.541-.168.057-.262.185-.43.24a7.952 7.952 0 01-.858-.78c.002-.22.253-.196.307-.363zm1.778-9.682c-.24-.575 1.06-.376 1.044.06-.37-.07-.68-.308-1.044-.06zm.062-1.923c.13.157.203.55-.123.54-.019-.24-.002-.445.123-.54zm8.406 4.51c.21.014.266.179.306.36-.256.031-.294-.153-.306-.36zm9.447.3c.322.085.695.121.614.603-.37-.14-.487-.343-.92-.301-.07-.269.447.035.306-.302zm-2.025-5.05c-.249-.337-.495-.679-.612-1.145.25.304.842.568.612 1.144zm-14.479-.663c-.133-.665.151-1.178 0-1.683-.156-.13-.348.054-.428-.062.214-.57.638-.937 1.042-1.322.655.242.648 1.129 1.472 1.203-.1-.733-1.288-1.01-.92-1.805.398.432.762.897 1.228 1.264-.025-.777-.686-.932-.922-1.504.105-.478.705-.473 1.106-.663.13-.212.038-.643.428-.6.147.438.205.963.737 1.022.112-.401-.448-.634-.491-1.081.153-.072.074-.37.369-.302.017.706.635 1.286 1.227 1.624.101-.766-.746-1.11-.982-1.743.252-.217.564-.37.982-.422.124.038.017.304.246.24.527-.466 1.217-.77 2.085-.9-.113.322-.073.714.368.66.113-.359-.238-.49-.122-.66.447-.073.966-.178 1.472-.183.426-.002.998-.046 1.289.242-.274.188-.563-.2-.86 0 .009.394.29.518.613.6.259-.166.273-.574.676-.6-.338.283-.154 1.098.122 1.323-.392.18-.079.795-.307 1.202.077.326.438.374.43.782-.198-.033-.286.041-.43.061 0 .16.025.343-.06.42.196.068.363.165.612.18.179-.203-.226-.381-.06-.54.259.41.78.876 1.349.781-.135-.008-.13-.151-.122-.3.08-.083.266-.06.43-.061.034-.694-.66-.997-.677-1.443.472.491 1.446 1.076.983 1.925.515.02 1.211-.074 1.41.542a.231.231 0 00-.306 0c-.078.183.21.305.062.359-.275-.111-.355-.414-.799-.36-.045.487.358.532.369.963-.373-.036-.293-.515-.614-.603-.22.508-.19 1.33-.122 1.865.718.164 1.416.4 2.21.482.17-.349-.051-.78-.185-1.023.462-.004-.056-.683.427-.721.222.123.288.4.432.601-.39.433-.143 1.502.613 1.383.01-.171-.054-.412.122-.422.242.127.242.487.554.542.296.052.314-.172.611-.12.173.638.161 1.435.124 2.165.166.158.742.416 1.057.427.17-1.265.1-2.341-.357-3.438-.531-.221-1.508-.687-1.804-1.138.183-.12.163-.441.429-.482.145.398-.032 1.113.614 1.021.164-.34-.063-.767-.185-1.021.076-.05.106-.143.118-.254a9.364 9.364 0 011.123 4.433 9.28 9.28 0 01-.201 1.918c-.047-.241-.114-.462-.241-.624h-.492c-.154.277.317.393.308.721-.315-.22-.498.028-.615.06-.139-.18-.026-.515 0-.722-.323-.343-1.21-.136-1.35-.66.364-.107.876.293 1.289.059-.062-.7.048-1.432-.428-1.924-.619-.048-.87-.09-1.474-.12-.034.471-.14.975-.06 1.442.074.31.485.287.49.663-.234-.03-.39.017-.49.12-.06.424-.036.928-.247 1.202-.012-.409-.124-.72-.124-1.142-.425-.472-1.175-.308-1.838-.481-.093.432.487.523.306.841-.323-.204-.386-.662-.798-.78-.21.402.044.824.184 1.081-.209.074-.3.266-.245.602.392.334 1.116.25 1.41.541-.363.135-.892-.085-1.349-.06-.244.734-.064 1.576.184 2.165-.664.848-.219 2.58 1.104 2.285.14-.217-.536-.358-.306-.662.32.117.459.63.92.422.055-.377-.489-.483-.307-.782.26.18.486.852.92.481-.155-.71-.952-1.11-1.165-1.562.913-.04 1.226.12 2.024.299.084-.318.531-.282.675-.54.038-.298-.158-.366-.121-.662.22.028.354.097.552 0 .03-.252-.18-.266-.123-.542.535-.191-.066-1.06.367-1.383.168.197.373.356.43.662-.545 2.131-1.934 3.437-3.252 4.81-.583.211-1.024.561-1.658.721.042-.26-.104-.335-.182-.48-.298-.011-.215.352-.49.36-.24-.452.275-.997-.246-1.382a.41.41 0 00.307-.06c.013-.745.068-1.17 0-1.865-.614-.07-1.507-.424-1.902 0-.235-.13-.33-.399-.738-.36-.165.144.152.542-.06.72-.315-.476-.512-1.17-1.411-.902-.508-.44-1.353-.187-1.903-.601-.193-.03-.046.277-.184.302-.281-.184-.394-.535-.859-.542-.002.18.183.48-.062.542-.22-.165-.332-.434-.489-.663.28-.026.21-.395.49-.42.283.145.654.313 1.044.18-.121-.704-.85-.812-.92-1.563.863.456.742 1.878 2.085 1.864.07-.249-.13-.234-.122-.42.32.208.406.642 1.041.54-.086-.74-.886-1.293-1.225-1.984-1.035-.364-1.921-.05-2.761-.542.034.494.798.776.797 1.504-.217.188-.407.4-.49.721-.662-.04-.897-.19-1.474-.36-.113.256.29.31.123.422-.33-.058-.37-.4-.736-.423-.152.071-.074.369-.368.3-.228-.576-.806-.813-.981-1.443.309.166.367.807.92.542.116-.534-.343-.506-.368-.901.27-.078.252.287.43.12.017-.701-.381-.99-.736-1.323-.311-.62-.698-1.16-1.289-1.504.113.67-.065 1.709-.061 2.406-.313-.222-.289-.555-.554-.902.449-.694.294-1.547.307-2.467-.272-.31-.825-.175-1.104-.36-.06-.668.892.029 1.104-.36zM44.25 1.458v.421c.277.189 1.081-.137 1.103.302-.258.066-.433.216-.674.3-.394-.217-.644-.571-.797-1.023.062-.169.26.017.368 0zm1.779 1.023c-.025.376-.465.347-.798.42.227.906 1.441.193 2.025.36-.334.23-.729.116-.92.542.512.022.7-.274 1.166-.3-.159.485-.773.525-1.166.781-.078-.102-.245-.12-.307-.24-.016-.197.239-.127.246-.3-.272-.086-.16.203-.369.18-.396-.372-.786-.75-.982-1.322.34-.202.602-.15 1.105-.12zm1.963 1.683c.036.216-.071.292-.124.421.226.04.237-.129.43-.12-.118.445-.277.85-.674 1.023-.004-.399-.641-.174-.613-.602.424-.146.483-.649.98-.722zm.858 1.564c.188.266-.076.604 0 .962-.569-.046-.15-.745 0-.962zm.247-.601c.173-.01.176.147.183.3-.193.03-.25-.141-.307.061-.175-.101.067-.29.124-.361zM43.33 17.575c.063-.24.396-.084.429.06-.116.188-.266-.094-.43-.06zm1.042 2.106c-.344-.504-.729-.97-.982-1.563.636.238.708 1.03 1.167 1.443-.05.05-.168.034-.185.12zm-1.534-1.083a4.3 4.3 0 011.167 1.142c-.615.075-.876-.701-1.167-1.142zm-.675 1.444c-.232-.012-.232-.253-.49-.241-.191-.028-.196.129-.184.3-.584.078-.876.01-1.41-.06.217-.317-.158-.698-.676-.781.076.286.347.38.368.72-.221.017-.296-.109-.49-.118.048-.31-.13-.395-.124-.662-.549-.245-.952.024-1.412-.361-.582.915 1.137.38 1.228.901-.795.226-1.35-.516-1.963-.48.123-.325-.025-.574-.246-.722-.263.048.056.291-.12.422-1.408-.689-2.123-2.051-3.193-3.068 1.025.38 1.547 1.77 2.762 2.165.162 0 .157-.168.245-.24.254.05.36.248.614.3.298-.076-.102-.308.06-.421.592.182.564.97 1.473.842.22.106.47.181.614.362.169-.037.256-.152.43-.182.97.233 1.93.791 2.945.781-.096-.547-.658-.637-.736-1.203.328-.082.265.221.366.363.227.24.415.514.614.78.136.15.335.233.492.362-.184.467-.976-.202-1.167.24zm-7.608-.361c.273-.047.37.08.615.059-.053.148-.658.233-.615-.06zm-.675.78v-.24c.57-.136 1.376.176 1.78.061-.404.37-1.094.162-1.78.18zm2.087-3.308c-.116.267-.383-.123-.43-.299.146.097.27.215.43.3zm2.27.904c-.194-.01-.365-.042-.367-.24.118-.101.361.044.367.24zm1.166.3c-.2.017-.297-.071-.308-.24.201-.016.296.071.308.24zm.676.18c-.318.126-.69-.463-.553-.781.311.134.48.411.553.782zm1.349.423c-.188-.038-.314-.135-.307-.362.166.059.295.15.307.362zm-4.479-4.21c.218.127.22.466.43.601-.219.11-.408-.32-.43-.601zm-3.927-4.091c.228-.064.199.127.307.18-.081.154-.401.039-.307-.18zm.184 4.992c-.29-.258-.589-.506-.613-1.023.834.606 2.024.862 3.313 1.023.646.289 1.392.48 2.33.48.337.153.623.354 1.167.302.439.452 1.548.247 1.964.72-1.27.068-2.25-.574-3.437-.54-1.445-.372-3.023-.912-4.724-.962zm-.551 3.188c-.006-.427.393-.456.674-.602.184.16-.29.61-.674.602zm-.554 2.947c.094-.36.275-1.106.738-.723-.099.386-.536.44-.738.723zm.246-8.48c.15.034.137.227.183.36-.205.015-.315-.224-.183-.36zm.061 1.203c-.13-.053-.216-.148-.184-.36.207-.016.317.222.184.36zm-1.104 2.826c.056-.687.032-1.453.491-1.744.644.453.493 1.683 1.289 1.984-.161.412-.535.909-.983.841.033-.368.378-.43.554-.66-.226-.305-.619.118-.675.362-.376-.114-.32-.65-.676-.783zm-.307 5.231c-.247-.056-.327-.278-.428-.48.21-.025.183.18.307.241.419.091.568-.34.859-.18-.125.26-.453.317-.738.42zm-.49-.54c-.23.026-.28-.127-.37-.24.031-.793.878-.785 1.167-1.324.38.645-1.26.82-.797 1.564zM1.974 15.785c-.071.084-.143.168-.302.167-.21-.096-.316-.29-.553-.36 0 .012.005.023.003.034-.046-.04-.09-.082-.135-.124-.015-.114-.083-.174-.19-.197a1.7 1.7 0 01-.315-.488c.009-.002.013-.006.025-.008.548-.088.725.478 1.043.422-.106-.268-.37-.396-.062-.603-.533-.013-.852-.234-.95-.672.024-.057.053-.11.08-.163.52-.26.624-.923 1.176-1.15.161.736.168 1.606.216 2.547l-.036.595zM28.96 25.978a7.85 7.85 0 00.254-.8c.132-.47.282-1.002.5-1.18.337-.277.876-.683 1.047-.812 1.634-.037 2.46-1.562 2.69-2.072.51.1 1.018.15 1.512.15 1.638 0 2.682-.552 2.976-.73.948.254 1.931.383 2.924.383 5.922 0 10.74-4.588 10.74-10.228S46.785.46 40.863.46c-5.92 0-10.74 4.587-10.74 10.228 0 1.573.367 3.084 1.088 4.489-.014.113-.075.45-.325 1.086-.233.593-.06 1.411.101 1.941a1.76 1.76 0 00-.877-.106c-.78.106-2.14 1.89-2.406 2.246l-.108.146.827.72-1.567 1.916a7.633 7.633 0 00-3.237-1.447v-1.745l.865-.283-.286-.874c-.21-.637-1.141-1.597-2.069-1.597-.175 0-.34.034-.492.104-.948.428-1.572 2.102-1.598 2.173l-.07.192.864.283-.118 1.894c-.368.091-.785.2-1.002.258l-.765-1.21c.023-.265-.042-.488-.196-.66-.26-.294-.692-.35-.918-.357l-1.792-2.762c.067-.336.02-.63-.141-.875-.221-.34-.598-.478-.767-.524-.491-.665-2.57-2.813-4.31-2.948-.39-.031-.985-.047-1.766-.047-1.917 0-4.425.094-4.841.11a2.111 2.111 0 00-1.03-.262c-.362 0-.674.087-.882.166l-.088-.804-.23.057c-.423.11-1.226.782-1.666 1.522-.285.481-.383.931-.283 1.302.291 1.072 1.935 1.886 2.004 1.92l.276.136.072-1.18c.284.076.555.114.807.114.588 0 .917-.204 1.052-.313.49-.016.973-.025 1.446-.025 3.19 0 5.587.39 6.408 1.046.605.48.515.838.428 1.183-.05.2-.102.405.007.598.183.33.688.4 1.077.4.06 0 .112-.001.155-.003l2.09 2.472c-.41.283-.67.611-.727.92a.613.613 0 00.126.513c.112.136.287.206.518.206.255 0 .537-.086.712-.15l.637.99a23.13 23.13 0 00-1.19 1.362c-.355.435-.477.868-.364 1.286.133.5.606.932 1.33 1.216.857.336 2.302.667 2.785.773v1.389c-.796.504-1.41 1.433-1.437 1.473l-.095.144.13.114c.005.004.525.46 1.123 1.046.46.45.605 1.373.64 1.67l-.642.579c-2.102 1.094-2.548 3.806-2.62 4.394-1.035.647-.945 4.012-.902 4.888-2.756.696-5.335 2.487-7.876 5.474-3.555 4.183-.992 11.71.853 15.822 1.945 4.34 4.988 10.315 5.02 10.374l.035.071.076.028c.136.05 3.434 1.208 10.303 1.275l.503.002c6.509 0 8.856-1.239 8.951-1.29l.047-.025.028-.044c.043-.066 1.065-1.698 4.554-9.595 1.218-2.752 2.375-5.76 2.598-8.775.16-2.155.144-4.707-.916-6.659-1.47-2.712-3.44-4.343-6.189-5.656-1.544-.739-3.103-1.118-3.534-1.25-.12-3.55-.799-4.517-1.041-4.753-.072-.35-.422-1.903-1.166-3.057-.688-1.066-1.652-1.805-1.99-2.045.086-.31.307-1.094.51-1.722.25-.77.79-1.518.795-1.526l.09-.121-.096-.119c-.5-.613-1.311-.96-1.53-1.046-.517-.65-.6-1.18-.606-1.43 2.595-.159 3.307-1.052 3.657-1.91zM15.72 52.637c-.298-.021-.473.15-.368.361.246.032.185.032.431 0 .008-.149.009-.29-.062-.361zm-.06-3.43h-.245c-.099.28.316.209.245 0zm.06-.6c-.05-.116-.268-.162-.368-.06v.18c.128-.037.426.098.369-.12zm-.245 3.428c.012.17.108.255.308.24.041-.222-.098-.264-.308-.24zm.185-4.691c.012-.172.007-.328-.185-.3-.073.093-.196.234-.06.36.115.014.134-.068.245-.06zm0 8.359c.174.05.159-.085.307-.06.025-.245-.064-.38-.307-.361-.088.08-.088.341 0 .42zm-1.534-.421c-.07.073-.175.11-.123.302h.246c.01-.15.011-.293-.123-.302zm1.289-1.263c-.034.273.09.393.368.362.07-.071.068-.212.062-.362-.083-.084-.348-.084-.43 0zm.183.541c-.085.082-.117.42.062.422.115-.071.233-.45-.062-.422zm.247 3.31c-.01-.461.337-1.76-.185-1.926.014.484-.255 1.569.185 1.925zm-1.228-9.744c.026-.114.176-.108.123-.3-.071-.052-.165-.08-.308-.062-.032.213.052.311.185.362zm.245 7.156h-.183c-.002.119-.168.078-.124.241.074.308.041.722.185.961.164.708-.195 1.553.246 1.926.074-1.058.043-2.188-.124-3.128zm-.183-6.555c.013-.114-.07-.133-.062-.24-.173-.05-.159.084-.307.06-.016.195.073.29.245.3.013-.067.068-.092.124-.12zm.858 15.396c-.49-1.382.203-3.826-.55-4.992-.231 1.663.048 3.487.244 5.533.27-.015.207-.357.306-.54zm-.185-13.952h.369c.079-.36-.39-.242-.369 0zm3.499.06c.147-.026.133.11.306.06.41-.368-.408-.75-.306-.06zm-3.13 1.142c-.146.002-.181-.103-.369-.06a.278.278 0 01-.061.182c.15.123.402.15.43-.122zm-.306-.601c.077.082.3.092.306-.06-.078-.083-.3-.094-.306.06zm-1.228 5.233c-.21-.261-.497 0-.428.36.044.136.233.13.244.3-.142.815-.282 1.616-.062 2.527.459-.322.184-1.204.124-1.744.135-.607-.013-.819.122-1.443zm.553-1.023c.132-.01.13-.153.122-.3a.41.41 0 00-.307.058c-.018.158.022.26.185.242zm-.123-1.022c.006.152.011.31.184.3-.057-.104.003-.323-.184-.3zm-2.148-3.248c-.032.09-.09.152-.122.24.072.051.164.08.307.06.012-.171.007-.327-.185-.3zm-1.962 8.3c-.073-.21-.164-.403-.247-.602.13-.153.104-.46.185-.662-.226-.179-.145-.659-.43-.781h-.123c-.062.08-.1.18-.183.24-.057.72.414 1.143.183 1.684.509.744-.08 2.565.86 2.887-.16-.766-.332-1.672-.245-2.766zm.367-1.925c-.19.26-.3.986.123 1.082.467-.076.418-1.14-.123-1.082zm-.736-1.384c.05-.765-.086-1.457-.613-1.804a8.58 8.58 0 00.122 1.865c.167.066.316.01.49-.061zm.492 6.917c-.08.174-.08.425.06.541.098-.147.23-.257.184-.541h-.244zm.613-1.624c-.165.178-.183.78.121.84.06-.166.2-.853-.121-.84zm-1.228-7.818c-.26-1.873.127-3.58.123-5.232h-.123c-.572.287-.597 1.626-.613 2.404-.025 1.152.102 2.368.123 3.249.259-.047.327-.282.49-.421zm1.41-1.384c.22.015.323-.085.31-.3a.414.414 0 00-.31-.06c-.018.14-.118.25 0 .36zm0 .543c.237.047.239-.129.31-.242-.085-.019-.12-.084-.246-.06-.054.07-.082.161-.064.302zm-.06 8.479c.087-.187.074-.472-.184-.482-.116.144.021.425.183.482zm2.884-5.714c.075-.42-.85-.678-.675 0 .162.058.525.116.675 0zm-3.19.782c-.093-.07-.26-.211-.307 0 .041.118.278.19.307 0zm1.778-1.503c.218-.118.122-.53-.121-.541-.268.189.062.59-.185.782.172.151.263.382.49.48.18-.266-.07-.55-.184-.72zm.061 2.766c.354.94-.156 2.204.369 2.948.277-.847-.042-2.052-.123-2.948h-.246zm.736-5.532v-.12c-.036-.004-.072-.01-.06-.061h-.123c-.003.037-.008.071-.062.06v.12c.038.002.073.01.062.06h.123c.003-.036.01-.072.06-.06zm.125 1.924c.016-.197-.073-.29-.246-.302-.133.13-.024.33.121.362.015-.047.053-.07.125-.06zm-.37-4.39c0 .12-.165.076-.122.24.072.05.164.08.307.06.029-.189-.077-.246-.185-.3zm-1.595 8.299c.046.049.425.161.369-.06-.036-.126-.398-.076-.369.06zm.675-5.474c-.098.091-.089.343.124.301-.011-.196.143-.29-.124-.3zm.86-1.624h.305c.027-.205-.017-.342-.245-.3a.392.392 0 00-.06.3zm-.675.062c.18-.306-.133-.615-.369-.362-.032.272.091.394.369.362zm2.637 14.914c-.113.325-.102 1.106.369 1.203-.128-.396.017-1.06-.369-1.203zm2.946-11.849c-.013-.26.25-.905-.122-.962-.07.272-.293.904.122.962zm-.86 3.309c-.091.191-.075.473.123.54.097-.125.119-.558-.123-.54zm.43 4.45c-.05-.13-.16-.205-.123-.42-.001-1.091.082-2.128-.184-3.008-.11 2.018-.21 4.116.061 6.134.82-.35-.102-1.87.246-2.705zm-.307-4.51c-.004-.445.194-.996-.123-1.262-.045.4-.276 1.1.123 1.262zm1.227-7.458c-.165-.172-.514-.05-.736-.06.064.53.508-.05.736.06zm-1.288 2.347c.01-.15-.031-.25-.122-.301-.078.07-.141.392.122.3zm0 .3c-.141-.017-.231.014-.246.12.087.014.104.1.184.121.02-.082.088-.115.062-.24zm-.553 6.194c-.078-.002-.084-.078-.183-.06-.225.125-.244.62-.184.842.38-.005.496-.462.367-.782zm.185 6.975c.01-.188-.164-.2-.121-.42.15-1.606.097-3.519-.064-5.413-.013-.046-.051-.07-.121-.059-.004.077-.079.084-.062.18-.1 0-.035.168-.123.18-.15 1.93 0 3.656 0 5.594 0 .348-.226 1.086.306 1.202.445-.162-.063-.895.185-1.264zm1.044-13.83c-.071.071-.07.212-.062.36.306.115.341-.414.062-.36zm-.738-2.046c-.14-.017-.23.015-.245.12.048.014.073.05.061.122.161.018.201-.084.184-.242zm.738 6.977c-.048.21-.09.762.183.841-.098-.362.12-.772-.183-.841zm.736-.6c-.334.321-.024.772-.063 1.2.3-.097.384-1.057.063-1.2zm-.614-4.993h-.184v.36c.274.082.298-.242.184-.36zm.92.06c-.079-.004-.085-.077-.183-.06-.164.823-.111 1.606-.186 2.645.16.066.229.218.43.24-.09-1.172.034-1.902-.06-2.824zm-3.13 7.818c-.695.053-.375 1.08-.244 1.503.46-.129.157-1.008.244-1.503zm2.7.781c-.271-.435.162-1.562-.429-1.682-.14 2.209.24 4.807 0 7.215.036.21.474.268.505.413.098-1.648.165-4.141-.26-5.526.028-.172.218-.186.184-.42zm1.043 1.023c.051.45-.306.502-.368.842-.047 1.146-.03 2.402-.061 3.368-.022.701-.282 1.734.429 1.683.02-2.086.021-3.586.122-5.833-.013-.047-.05-.07-.122-.06zm-1.717-7.999c.198.098.32-.032.367-.24-.078-.081-.289-.081-.367 0v.24zm-1.35 2.767c.171-.293-.165-.541-.063-.961-.21.081-.313.915.063.96zm2.085 10.405c.006-.077.01-.165.015-.247a.091.091 0 01-.015.065c0 .088-.259.191 0 .182zm-.612-10.043c.203-.382.251-1.137.06-1.564h-.183c.107.564-.216 1.33.123 1.564zm.612-1.264c.23.47-.345 1.067.186 1.264.176-.357.138-1.081-.186-1.264zm2.7 10.224c-.104-2.057.182-3.869.185-6.314-.079-.004-.086-.077-.185-.062-.357.55-.35 1.9-.183 2.587-.197.723-.107 2-.124 2.886-.007.37-.183.957.307.903zm-.736-7.217c.273-.275-.01-1.018-.306-.903-.115.155-.086.683 0 .843.147-.026.132.11.306.06zm-1.718-8.239c.226.042.27-.094.247-.301h-.186c-.051.07-.081.16-.061.301zm.799 8.118c-.018-.525.311-1.735-.309-1.924.122.551-.524 1.807.309 1.924zm-.492-8.84c.024-.244-.022-.42-.246-.422-.09.088-.09.396 0 .482.117.013.136-.067.246-.06zm3.068 9.082c.303-.152.117-.503.123-.784.013-.628.306-1.609-.185-2.044h-.122c-.116.532-.032 1.142 0 1.804-.118.236-.307 1.048.184 1.024zm-6.504 3.187h-.184c-.013 1.574.088 2.788.124 4.09.01.42-.236 1.119.182 1.503.114-1.022.29-2.099-.06-2.887.154-.807.44-2.074-.062-2.706zm5.768-3.91c.149-.66.235-1.786-.062-2.226h-.184c-.182.526-.47 2.068.246 2.226zm.49 7.458c.34-.13.121-.693.122-1.022-.01-.19.164-.201.124-.42-.136-1.574.41-3.306-.062-4.511h-.122c-.015.084-.101.1-.124.179.07 1.478-.293 3.236-.183 4.872-.068.37-.278.883.245.902zm-.614-6.677c.11-.122-.003-.396-.184-.42-.118.135-.032.432.184.42zm-3.19-9.862a.362.362 0 00-.183-.48c-.191.128-.161.542.183.48zm-1.84 7.818c-.017.217-.016.416.246.361 0-.201 0-.401-.246-.361zm.858-1.142c-.103.094-.177.277.062.3-.033-.087.07-.31-.062-.3zm-.737 2.525c-.032.235-.101.7.125.843.297-.137.13-.734-.125-.843zm0-4.509v-.24c-.235-.05-.235.287 0 .24zm2.517-2.527c.22-.274.009-.624-.306-.36-.026.245.06.378.306.36zm-2.76-1.142c-.005.036-.011.072-.063.06-.018.158.086.198.246.18.018-.156-.023-.257-.184-.24zm.306 5.173c-.02-.141-.063-.26-.184-.302-.028.115-.134.151-.123.302a.24.24 0 00.307 0zm.797-6.316c-.035-.146-.052-.31-.246-.3-.014.086-.1.102-.122.18.109.053.155.168.368.12zm.737.722c.101-.119-.006-.077 0-.24-.236-.05-.236.287 0 .24zm0 .72c.014-.085.1-.1.122-.18-.152-.192-.38.14-.122.18zm-.798-1.982c.19-.285.232-1.003.122-1.384-.505-.083-.547 1.326-.122 1.384zm-2.148 18.342c.161.016.264-.022.246-.181-.078-.004-.085-.077-.185-.059.014.113-.069.13-.061.24zm20.676-53.884c.038-.56-.43-.622-.674-.903-.319.442.125.935.674.903zm.676-7.037c-.291.37.292.748.49 1.022.267-.47-.065-.896-.49-1.022zm.552 1.564c-.543-.535-.882-1.58-1.658-1.685.105.904 1.223 1.328 1.412 2.348.282-.027.236-.373.246-.663zm-1.166.962h-.37c.292.776 1.052 1.095 1.29 1.923.297.122.565.554.92.422.067-.507-.576-.317-.674-.661-.202-.743-.702-1.197-1.166-1.684zM40.2 8.796c.089.458.016.91.614.961.121-.061.098-.264.307-.24.109.248.553.59.737.24-.246-.14-.5-.273-.43-.72-.326-.384-.717-.702-.92-1.204h-.246c-.21.533.47.966.43 1.323-.224-.061-.269-.3-.492-.36zm-3.497-6.797c-.128.44.206.912.675.962 0-.542-.26-.827-.675-.962zM35.66 8.674c.043-.202-.19-.599-.367-.78-.185.34 0 .786.367.78zm1.165.302c-.457-.712-.88-1.463-1.594-1.925v.48c.537.441.826 1.433 1.594 1.445zM35.598 6.33c.239.052.22-.147.37-.18.186.159.488.52.857.302-.426-.545-.66-1.28-1.41-1.505.013.113-.069.132-.062.239.093.343.667.494.491.902-.25-.034-.245-.32-.551-.3-.07.35.164.4.305.542zm4.97 13.35c.246.042.247.32.491.362.02-.262-.392-.413-.491-.361zM39.526 3.504c.014.248-.05.57.183.601.575-.408-.357-1.098-.244-1.443.191.052.136.347.368.362.3-.4-.14-.94-.614-.963-.179.097.098.308-.062.36-.29-.156-.332-.557-.858-.48a3.45 3.45 0 001.227 1.563zm-.369-1.865c.014-.113-.067-.132-.062-.24h-.305c-.057.255.145.257.367.24zm.614 3.61c-.038-.676-.828-.276-1.042-.722-.153-.009-.296-.01-.368.06v.18c.67.264.597 1.258 1.288 1.503.182-.442-.218-.612-.246-1.022.163-.187.232.158.368 0zm3.252 7.396c.106-.036-.005-.286.122-.3.14.36.649.602 1.044.36.121.101.227.22.429.24.126-.097.143-.301.122-.54-.679-.379-.752-1.666-1.778-1.504.163.562.91.871.857 1.443-.381-.447-.655-1-1.288-1.202-.187.444.43.512.37 1.022-.074-.07-.218-.068-.37-.06-.376-.595-.573-1.677-1.472-1.563.068.455.406.645.553 1.022-.278-.267-.632-.464-.674-.963-.159-.139-.667-.505-.8-.12.534.56.81 1.37 1.413 1.864.625-.031.971.211 1.472.3zm-3.374-4.09c.132-.65-.376-.994-.799-.902.31.259.346.785.799.902zm-1.288-4.93c.382.205.466.705 1.104.66-.31-.582-.811-1.488-1.473-1.923-.052.53.089.873.307 1.142-.225-.04-.327.041-.43.12v.362c.12.082.352.056.492.12.128-.067-.117-.44 0-.481zm.305 3.248c-.011-.621-.711-1.55-1.042-.784 0 .322.158.487.246.723.229-.099.406.143.796.06zm.063 2.465c.075-.643-.557-1.094-1.044-1.384.043.223-.105.258-.061.482.336.331.569.764 1.105.902zm-.922-2.106c-.114.116.037.11 0 .3.734.506.823 1.64 1.78 1.926.206-.86-.97-1.36-1.288-2.106-.257.052-.289-.115-.492-.12zm.185-2.766c-.517.97.908 1.376.981 2.346.308 0 .345.264.614.3.172-.403-.278-.678-.492-.901-.192-.671-.783-.956-.918-1.684a.298.298 0 01-.185-.06zm-2.025 6.194c.195.294.22.854.858.722-.288-1.02-1.086-1.54-1.594-2.345-.07.316.01.407 0 .78.191.298.523.521.736.843zM25.415 62.74c-.144.14-.41.16-.491.362.14.082.382.066.368.301.1.65-.388 1.276-.185 1.803.34.052.24-.328.554-.299.057-.569.145-1.237-.185-1.566.042-.416.657-1.036.185-1.382-.204.14-.283.406-.246.782zm-2.638-23.934c0-.16.034-.356-.123-.362-.05.148-.106.348.123.362zm3.25 19.845c-1.052-.22-.504 1.541-.305 2.104-.063.372-.355.916.061 1.144.165-.018.11-.254.245-.3-.158-1.15.043-1.768 0-2.948zm1.72 1.925c-.01-.148-.01-.29.06-.361.139.048.202.402-.06.361zm2.576-2.887c.058-.124.316-.051.306-.24-.127-.137-.34-.189-.551-.241-.176.231 0 .535.122.662-.293.073-.262.465-.43.661-.167-.037-.151-.251-.367-.24-.136.208-.581.111-.675.36-.118-.292-.64-.169-.8 0-.05.216.18.36-.059.42-.095-.166-.175-.35-.307-.478-.37.02-.678-.02-.98-.062-.145.041-.166.2-.308.24.139 1.705-.45 3.57.367 4.57.265-.364-.05-.779-.06-1.322.514-1.028-.068-2.217.43-3.188.376.64-.217 2.212.06 3.006h.369c.172-.089.133-.389.306-.48.145-.001.18.106.369.06.72-.424.043-1.729.675-2.165v1.083c.659-.156.722-.894.919-1.504.613 0 .761-.457.982-.842-.088-.132-.328-.118-.368-.3zM15.967 20.222c-.082-.52-.502-.713-.799-1.022.064.82.63 1.146 1.228 1.443.008-.288-.094-.468-.429-.421zM38.85 51.254c.044-.262-.104-.339-.06-.601-.128-.037-.176-.15-.368-.122-.12.302-.12.653-.185.842.159.112.407-.09.613-.12zm-4.11-4.15h-.306c.727.91 1.694 1.586 2.391 2.525.095.088.056.31.063.483.342.366.652.761 1.042 1.082.112-.534-.418-.843-.428-1.445-.815-.986-1.53-2.07-2.762-2.645zm-8.283 10.884c.493-.036.776-.015 1.166-.06.223-.183.046-.757.368-.841 0 .262-.02.54.062.721.152.05.33.079.552.061.308-.454.137-.524 0-1.083-.253-.125-.422-.125-.676 0-.199-.205-.265-.541-.674-.542-.102.395.156 1.199-.184 1.444-.545-.463.432-1.473-.368-1.804-.375.417-.196 1.091-.429 1.564-.39-.552.16-1.79-.308-2.406h-.183c-.252.696-.165 1.942-.122 2.946.162 0 .35.023.428-.06.13-.054.023-.34.185-.36.203.001.062.34.183.42zm10.063-9.562c1.075.109.614 1.723 1.717 1.805.15-.514-.551-.643-.492-1.262-1.074-1.093-2.07-2.58-3.802-2.827.853.767 2.202 1.047 2.577 2.284zm-13.07-4.75c.09-.214.134-.47.247-.662-.193.01-.204-.16-.43-.12-.108.213-.113.774.184.782zm17.488-31.573c-.092-.554-.576-.72-.923-1.023-.355.556.348.99.923 1.023zm-5.217 1.324c.148-.265-.408-.63-.307-.844.584.211.505 1.071 1.289 1.083-.347-.881-.818-1.641-1.533-2.164-.27.286.027.624.123.902-.369.295-.184 1.14.428 1.023zm.308-1.745c-.013.639.586 1.186.981 1.624.3-.531-.355-1.429-.981-1.624zM24.126 58.53h-.184c-.147.414-.217 1.099-.123 1.565-.21.245-.228 1.129.246 1.08.23-.61.243-1.929.061-2.645zm14.91-47.99c.519-.129.316.451.735.421.153-.33-.184-.648-.245-.963h-.553v.422c-.193-.092-.24-.326-.551-.303-.255.72.61.84.614 1.504-.476-.44-1.27-1.064-1.044-1.805-.46.082-.666-.365-1.167-.42-.188.11.125.338-.06.42-.138-.205-.392-.296-.491-.54-.164.001-.351-.023-.43.061.248.778.851 1.21 1.288 1.804.28-.489-.102-.698-.183-1.143.193-.03.217.108.43.06-.026.526.41.599.49 1.022-.006.195-.366.043-.307.301.007.154.205.12.368.121.08-.15-.137-.292 0-.301.403.172.649.917 1.227.54.146.198.4.29.798.242-.01-.772-.803-.777-.92-1.443zm4.109 3.186c.252.076.332.318.43.542-.334.007-.42-.23-.43-.542zm-1.103-.42c.155.007.238.087.244.24-.206.042-.223-.102-.244-.24zm1.963-.06c-.04.359.194.451.184.78-.301-.287-.482-.69-.8-.96-1.203-.145-2.118-.283-3.189-.422.486.787.654 1.886 1.842 1.984 0-.106-.167-.349 0-.42h.182c.078.267.2.485.37.662.7.152 1.423.287 2.208.36.068-.676.13-1.351-.123-1.864-.233-.033-.384-.145-.674-.12zm1.901 5.472c.02-.24.004-.445-.124-.542-.223.125-.338-.015-.55-.058.142.282.213.632.674.6zm-.43-7.999c.493-.317.644.19 1.167.181-.062-.58-.452-.841-.675-1.263.738.198.595 1.26 1.411 1.384.27-.298-.094-.609-.123-.962.122 0 .078.164.246.12.286-.672-.24-1.283-1.043-1.023-.11-.114-.305-.142-.43-.24a.895.895 0 00-.43.18c-.177-.045-.158-.284-.429-.24.074.455-.058.766.245 1.022-.415.084-.255.784.06.841zm1.903 5.473c-.059.313.341.658.798.662.21-.428-.315-.914-.798-.662zM24.126 67.371c.534.006.82-.723.43-1.083-.638-.056-.563.698-.43 1.083zm.063-1.504c.752-.15.95-1.29.612-1.985-.983-.056-.369 1.466-.612 1.985zm10.06-55.327c-.035.256.02.421.306.36.19-.857-1.173-1.322-.982-1.984.446.245.526.849 1.044 1.022.175-.746-.568-1.461-1.288-1.142-.256.012-.19-.296-.49-.242-.033.09-.092.152-.123.242.704.392.793 1.386 1.533 1.744zm-7.3 44.683c.012-.067.068-.095.122-.121-.033-.287-.102-.542-.43-.542-.213.228-.088.692.308.663zM25.23 58.89c-.611-.985-.896 1.065-.553 1.383.64-.123.342-.952.553-1.383zM40.324 6.81v.24h.184c.016-.157-.024-.258-.184-.24zm-14.05 45.526c-.079-.005-.085-.079-.185-.062-.212.313-.362.688-.306 1.264.733.064.334-.822.491-1.202zm-1.533 9.079c.017-.156-.023-.258-.186-.24-.017.157.022.26.186.24zm-.492-3.547c-.031-.413.109-.655.062-1.083-.078-.002-.086-.077-.185-.06-.26.208-.415 1.125.123 1.143zm-.184-4.03c-.013.325-.196.748-.062 1.022.61.047.496-.947.062-1.021zm.184-1.262c-.236.148-.247.518-.246.9.305.138.773-.74.246-.9zM20.383 28.7c-.018.14-.13.26.063.3.084-.075.095-.294-.063-.3zM33.514 5.79c-.089-.295-.243-.524-.552-.603-.143.156.001.399.06.542.148.038.28.086.492.06zM20.263 65.025c.114.7-.395 1.478.305 1.683.097-.556.244-1.37-.185-1.683h-.12zm.305-6.433c-.352.455-.223 1.46-.245 2.283-.03 1.044-.116 2.13 0 3.007.523-.117.276-.723.306-1.142.047-.65.129-1.325.123-1.924-.007-.77.379-1.673-.06-2.224h-.124zm-.614-12.752c-.043.346.065.538.062.844-.147.6-.218 1.519-.124 2.164-.12.32-.222.76-.245 1.264-.038.87-.141 1.973.186 2.585.36-2.037.447-4.985.243-7.096 0 .12-.165.077-.122.24zm-.307 7.098c-.07.147-.204.432-.06.601h.305c.167-.224.14-.613-.245-.601zm1.474 12.69c-.27.353-.295 1.19.121 1.382.2-.285.358-1.238-.121-1.383zm1.41 4.209c.356-.014.095-.44.123-.662.232-.618.227-1.247.184-1.925.087-.242.204-.577 0-.781h-.184c-.193 1.3-.264 2.135-.122 3.368zm-.122-18.583c-.004.495-.58 1.853.245 1.863-.233-.68.298-1.447-.122-1.863h-.123zm.061 19.304c-.242.354-.173.884-.123 1.323-.227.344-.238.924-.184 1.384-.03.71-.367 1.64.062 2.225.542-1.456.19-3.235.367-4.872-.013-.047-.05-.069-.122-.06zm5.215-14.794c.01-.07.097-.066.184-.061-.051-.45.12-1.118-.123-1.384-.85-.034-.692 1.35-.06 1.445zm-5.584 10.224c.104-.255.324-.779.062-1.023-.078-.004-.085-.077-.184-.059-.002.075-.078.082-.061.178-.071.254-.125.52-.185.783.1 1.45-.139 3.467-.06 4.932.08 1.503-.6 3.16-.246 4.57.454-.557.136-1.871.49-2.525-.2-2.263.474-4.393.184-6.856zm3.006-11.848h-.183c-.119 1.028-.147 2.437-.247 3.789.148.036.282.086.492.06.02-1.282.32-2.751-.062-3.85zM42.103 4.826c.13-.518-.382-.902-.49-1.383-.231-.146-.84-.46-.492-.782.388.4.566 1.009 1.042 1.324.34-.41-.243-.882-.06-1.324-.535-.077-.88-.34-1.535-.3-.188.558.255.77.553 1.263.313.518.494 1.034.982 1.202zm-24.05 19.605c.428-.363 1.06-.525 1.41-.961-.64.115-1.23.598-1.41.961zM40.692 7.772c.618.557.886 1.457 1.532 1.985-.178-.986-.522-1.812-1.532-1.985zm-7.547-.36c.646.149.671 1.158 1.41 1.023-.422-.827-1.037-1.469-1.533-2.225-.304.593.124 1.02-.246 1.683.2.167.346.385.738.361.105-.478-.541-.493-.369-.842zM40.63 1.82c.65-.048 1.102.396 1.534.362-.084-.5-.553-.62-.674-1.083-.617-.213-.71.256-.921.601.049.013.072.05.061.12zm.185 4.15c.278-.013.392.136.368.42-.255-.009-.314-.21-.368-.42zm.798.961c-.203-.06-.362-.166-.369-.42.203.062.361.166.37.42zm.49.722c.02-.14.214-.112.184-.3.007-.906-1.133-1.474-1.227-2.285-.77-.347-.724.498-.735 1.083.427.663.694 1.484 1.779 1.502zM23.207 51.915h-.122c.032.765-.328 1.768.489 1.864.028-.476.257-1.69-.367-1.864zM42.103 6.088c.02-.622-.246-.96-.86-.961.312.296.44.773.86.961zm-.798-1.503c-.086-.478-.347-.782-.737-.961a.738.738 0 00-.122.54c.279.12.51.566.859.421zm-18.16 51.48c.082-.557.534-1.02.368-1.625-.78-.068-.39 1.273-.368 1.625zM41.98 8.194c-.168.24.082.498.244.602.173-.244.005-.58-.244-.602zm-7.546-4.33c-.025.425.183.622.368.842.184-.319.13-.87-.368-.842zM44.618 7.23c.201-.315-.15-.882-.124-1.021.588.334.159-.81-.368-.301-.227-.158-.339-.43-.796-.36.479.51.645 1.33 1.288 1.682zm-2.208 3.55c-.05-.013-.071-.05-.063-.12h-.244c-.094.261.28.325.307.12zm-7.855-3.186c.152-.273.004-.543-.061-.782h.246c.049-.208-.067-.254-.123-.36-.461.28-.622-.175-1.044-.062.136.592.645.813.982 1.204zm10.063.6c.087-.632-.773-.84-.799-1.563-.476-.214-.573-.8-.98-1.082-.055.147-.143.262-.122.482.597.757 1.146 1.56 1.9 2.164zM19.588 57.57c-.258.052-.328.57-.125.72.605.163.644-.753.124-.72zm24.17-49.555c-.093-.67-.527-1.008-.98-1.324-.217.74.28 1.284.98 1.324zm-.06 1.864c-.193-.052-.238-.248-.308-.421.13.114.323.163.307.421zm1.042.542c.066-.366-.235-.371-.306-.604h.306c.116-.649-.265-1.29-.981-1.32.054.386.562.649.49.96-.61-.16-.47-1.062-1.287-1.021-.112.185.055.27-.061.42-.14-.03-.313-.119-.43 0 .3.93 1.081 1.704 2.27 1.565zm-.796.541c.154.349.213.791.674.841 0-.24.122-.361.122-.601-.16-.183-.388-.3-.796-.24zm-20.86 45.404c-.072.507-.313 1.18.245 1.323.144-.285.108-.576.184-1.023-.093-.15-.21-.274-.43-.3z" mask="url(#d)"/></g></g></g></svg>