<?xml version="1.0" encoding="utf-8"?><svg xmlns="http://www.w3.org/2000/svg" width="37" height="37" viewBox="0 0 37 37"><g fill="#A8A7A7" fill-rule="evenodd"><path d="M22.719 2.56c-.024-.007-.044-.015-.065-.017-.01 0-.02.013-.03.02.02.012.037.03.057.033.01.001.024-.023.038-.037m13.463 14.58l-.041-.052c-.01.007-.026.017-.025.022.005.022.016.044.024.066l.042-.035m-.94-.47c-.092.041-.128.053-.16.072-.026.016-.047.04-.077.066.133.063.133.063.237-.137M12.204 1.614c.247.007.247.005.427-.125-.183-.028-.306.04-.427.125m1.973 1.736c-.036.062-.092.114-.088.16.01.094.09.138.197.156l.114-.171-.223-.145m21.195 13.738c.13.17.13.169.337.218l.064-.192c-.14-.01-.248-.21-.401-.026M13.978 3.165l-.144-.186-.453.248.383.15.214-.212m19.65 6a.258.258 0 00-.24-.153c-.191-.006-.332-.113-.478-.22-.161.154-.425.146-.508.387.106.094.205.035.295.003.224-.081.443-.105.675-.03.074.024.162.087.257.012m1.457 7.28a.812.812 0 01-.164-.622.55.55 0 00-.046-.262 29.56 29.56 0 00-.478-1.097c-.103-.22-.227-.432-.349-.644-.026-.045-.086-.07-.159-.127-.01.442.083.82.343 1.119.185.21.284.455.4.696.056.115.092.24.14.358.054.132.096.262.058.411-.02.08-.057.177.058.262l.197-.094m-6.03-11.16c.356.133.677.025.985-.148.106-.06.112-.173.029-.261a1.351 1.351 0 00-.142-.13c-.383-.302-.766-.604-1.151-.903-.058-.044-.126-.076-.187-.112-.065.072-.109.138-.168.181-.06.044-.139.064-.207.1-.183.095-.357.205-.486.37-.122.156-.065.34.123.388a.915.915 0 00.303.014c.113-.01.224-.046.337-.067.248-.046.387.028.479.264.036.094.056.195.086.304m-10.552-1.28c.32-.158.617-.28.888-.445.266-.163.535-.3.84-.367.302-.066.583-.179.84-.365a2.49 2.49 0 01.902-.404c.333-.08.656-.208.982-.318.195-.065.34-.182.37-.4a.433.433 0 01.18-.286c.046-.035.085-.08.14-.133-.684-.234-1.36-.368-2.035-.507-.387-.08-.788-.095-1.178-.164C19.76.497 19.08.5 18.403.476a2.694 2.694 0 00-.384.023c-.054.006-.129-.014-.16.09l.2.158c.197.153.3.346.274.603-.02.191-.008.383-.077.571a.534.534 0 00-.022.34c.097.26.04.467-.124.68-.195.251-.172.544.043.77.096.1.213.18.352.294m6.063 4.822c-.03.092-.056.14-.057.188a2.877 2.877 0 01-.144.837.713.713 0 00-.033.228c.004.221.24.383.433.28.231-.122.473-.194.73-.213a.505.505 0 00.406-.256c.062-.097.114-.202.16-.308a.625.625 0 01.302-.333c.252-.127.495-.272.744-.403.304-.16.623-.23.967-.162.112.022.232.006.345.025.137.025.28.05.406.108.204.091.342.265.472.444.073.1.117.226.26.3-.01-.115-.023-.203-.025-.29-.002-.101.053-.169.142-.21.08-.038.162-.027.216.028.098.1.222.201.26.326.118.375.413.543.728.695.059.028.141.007.219.008.023-.098.034-.175.06-.246.06-.157.168-.212.336-.185a.382.382 0 01.258.153c.13.176.27.346.31.572.023.132.115.202.23.234.172.047.349.08.523.119.162.036.33.056.486.11.285.095.407.303.363.599a1.85 1.85 0 01-.081.338c-.103.29-.252.385-.554.356-.217-.02-.432-.048-.65.01-.4.108-.785.045-1.165-.11a2.253 2.253 0 00-.482-.118c-.07-.011-.168-.001-.217.042-.21.185-.423.136-.647.04-.483-.206-.967-.414-1.454-.611a.477.477 0 01-.323-.437c-.007-.073-.02-.146-.03-.23a10.73 10.73 0 00-1.248.022c-.24.019-.452.087-.638.233a1.48 1.48 0 01-1.075.324c-.077-.006-.154-.006-.23-.013a.363.363 0 00-.289.081c-.22.197-.467.375-.644.606a7.87 7.87 0 01-1.186 1.212 2.06 2.06 0 00-.383.43c-.115.17-.235.338-.363.5a.458.458 0 00-.11.318c.008.224.04.433.21.604.221.226.25.497.147.79-.026.072-.05.147-.066.222-.059.26-.063.513.118.735.086.106.128.226.084.361-.07.216.014.382.172.514.127.106.258.215.404.29a2.51 2.51 0 001.104.294c.27.005.54.017.808.038.376.03.743.017 1.09-.158.055-.028.126-.024.184-.048.122-.052.227-.022.324.052.061.047.12.097.175.151.287.283.593.535.992.641.025.007.048.02.07.032.3.157.434.404.362.734-.091.42-.086.846-.1 1.271-.013.393.113.71.387 1.011.448.492.601 1.03.269 1.667-.036.068-.08.134-.103.207-.05.158-.1.319-.13.482a.425.425 0 00.024.264c.164.293.113.66.333.935.053.067.043.2.034.3-.027.304.126.577.137.874.001.045.042.095.077.13.14.143.15.318.148.504-.002.153 0 .311.035.459.058.237.14.47.22.701.056.166.12.217.28.21.59-.024 1.176-.067 1.687-.42a.357.357 0 01.14-.06c.201-.033.312-.175.397-.337.13-.25.248-.509.37-.764.06-.128.108-.263.181-.383.17-.28.265-.59.29-.909a.896.896 0 01.31-.636c.163-.146.31-.31.467-.461.343-.33.5-.754.529-1.21.036-.572.082-1.133.353-1.651a.366.366 0 00-.023-.402c-.055-.08-.049-.168-.01-.258.237-.558.571-1.037 1.095-1.361.175-.108.349-.218.525-.325a.44.44 0 00.231-.413c-.003-.387.012-.774.013-1.162 0-.072-.029-.144-.05-.239-.139-.006-.267-.005-.392-.02-.1-.012-.213-.02-.294-.072-.281-.18-.557-.369-.778-.626-.176-.206-.276-.43-.244-.709a.672.672 0 00-.02-.305c-.098-.252-.214-.496-.327-.74a.542.542 0 00-.105-.16c-.323-.315-.442-.713-.486-1.148-.025-.254-.023-.515-.162-.736.039-.075.061-.137.099-.188.033-.047.047-.126.096-.12l.518.44c.178.151.326.327.417.547.13.308.258.617.39.924.076.178.15.357.243.525.078.14.135.28.119.44-.03.296.118.517.285.736.153.201.339.252.59.148.003-.062.015-.126.008-.186-.16-1.256-.413-2.49-.813-3.691a19.686 19.686 0 00-1.264-2.948c-.093-.176-.213-.285-.414-.295-.051-.002-.107 0-.152-.02-.275-.125-.535-.09-.818.003-.254.085-.53.07-.75-.098-.055-.162.008-.276.091-.377.074-.09.158-.17.241-.25.074-.07.154-.13.186-.238.064-.216.225-.3.439-.305.045-.001.091-.01.144-.017-.282-.604-1.807-2.404-2.304-2.719-.092.1-.198.195-.28.308-.248.344-.592.432-.986.382-.178-.023-.353-.068-.53-.096a.977.977 0 00-.266-.018 2.981 2.981 0 00-.785.176.44.44 0 00-.226.19c-.328.533-.763.93-1.392 1.07-.132.03-.284.042-.351.193.008.03.008.058.021.078.236.343.237.35.014.676-.021.032-.047.062-.064.096-.089.165-.237.23-.411.246-.115.01-.23.004-.346.002-.178-.003-.356-.01-.563-.015m-17.925-3.9c-.044.023-.057.027-.066.036a17.952 17.952 0 00-4.62 6.357c-.134.307-.055.544.083.797.019.033.052.058.075.088.135.172.273.342.403.518.12.163.165.345.118.549-.026.113-.035.23-.052.344a.361.361 0 00.103.32c.27.28.548.54.953.616.225.043.448.106.667.177.219.07.441.15.592.34a.882.882 0 00.622.341.628.628 0 01.464.312c.07.109.138.219.216.32.376.494.848.824 1.486.849.23.009.419.102.595.239.243.189.276.385.098.632-.044.062-.109.109-.161.165-.097.103-.194.206-.287.312-.118.135-.222.285-.351.407a.566.566 0 00-.18.411c-.01.245-.038.49-.032.735a.796.796 0 01-.147.506c-.173.246-.168.49.007.753.22.332.407.686.603 1.034.109.195.247.356.432.484.125.086.246.192.333.315.188.265.4.493.664.689.4.298.527.818.336 1.281a.83.83 0 00-.073.412c.018.165.042.335.1.488.138.357.188.72.156 1.1-.023.269-.011.547-.076.806a7.389 7.389 0 00-.202 1.53c-.014.36.115.665.402.826.303.17.348.532.626.703.04.024.05.117.054.179.009.129.005.258.005.386v.504c-.003.271.104.503.266.71.3.385.677.665 1.149.804.05.015.11.001.18 0-.22-.42-.328-.697-.345-.967a1.436 1.436 0 00-.105-.448 1.34 1.34 0 01-.102-.566 1.72 1.72 0 00-.129-.796.624.624 0 01.003-.49c.032-.085.077-.166.098-.253.044-.18.16-.277.319-.359.262-.135.514-.29.763-.449.116-.075.24-.156.286-.32-.03-.071-.076-.15-.1-.234-.07-.245.08-.442.335-.44.075.001.15.03.226.043.17.03.31-.026.398-.172.241-.397.475-.802.557-1.266.035-.203.116-.371.243-.515.373-.425.738-.864 1.213-1.18.304-.203.464-.467.483-.831.015-.284.053-.567.07-.85.01-.172.09-.29.224-.383.148-.102.297-.203.444-.307a.692.692 0 00.305-.476c.03-.228.034-.461.031-.692-.002-.132-.07-.239-.182-.325-.315-.244-.63-.486-.982-.678-.136-.074-.271-.142-.43-.147a.586.586 0 01-.466-.229c-.107-.131-.267-.234-.44-.183-.264.079-.443-.044-.624-.194a1.367 1.367 0 01-.451-.66 6.45 6.45 0 00-.27-.68.39.39 0 00-.15-.166.937.937 0 00-.314-.138c-.293-.05-.514-.216-.729-.405-.222-.196-.45-.387-.614-.638-.1-.156-.236-.184-.4-.142-.125.031-.248.068-.374.093-.358.071-.69.034-.962-.245-.062-.063-.139-.114-.213-.164-.206-.139-.441-.118-.671-.114-.157.003-.25.12-.349.22-.156.16-.337.274-.51.326-.225-.058-.412-.1-.596-.153-.358-.102-.716-.204-1.001-.47-.113-.104-.176-.218-.17-.37l.015-.348c.02-.444-.009-.484-.427-.585-.086-.021-.177-.037-.258-.072-.173-.075-.244-.234-.188-.414a.692.692 0 01.27-.365c.09-.064.21-.093.262-.213-.158-.085-.283.021-.407.057-.275.08-.546.125-.833.103-.272-.021-.484-.156-.683-.323a.731.731 0 01-.275-.573c0-.038-.02-.075-.026-.113-.06-.402.014-.775.282-1.087.253-.295.534-.557.944-.616.139-.02.275-.06.412-.088a1.1 1.1 0 01.606.03c.225.08.448.078.678.007.17-.053.35-.074.526-.103.271-.043.614.22.485.558-.023.058-.047.128-.035.185.02.09.019.213.135.215.113-.25.208-.489.328-.714.243-.453.567-.824 1.068-1.01.268-.101.48-.286.661-.515.298-.377.65-.696 1.095-.893a3.07 3.07 0 00.275-.138.312.312 0 00.178-.278c.004-.114.024-.227.034-.322.36-.237.365-.23.738-.251.37-.022.739-.064 1.108-.102.04-.004.077-.044.117-.068-.03-.041-.04-.068-.06-.081-.204-.136-.278-.327-.247-.568.011-.086.01-.175.013-.257-.088-.038-.164-.059-.225-.1a.205.205 0 01.027-.35.402.402 0 01.146-.042 1.2 1.2 0 01.23.008c.474.061.946.066 1.416-.035a.838.838 0 01.19-.022c.133.002.196.123.131.247-.031.06-.07.115-.131.212.187.009.327.02.467.02.056 0 .133.01.142-.093l-.121-.083c-.165-.116-.208-.216-.161-.387a.365.365 0 01.065-.137c.114-.133.135-.299.192-.46-.063-.063-.113-.12-.171-.169-.265-.216-.413-.485-.408-.836a.83.83 0 00-.108-.416c-.105.017-.205.03-.304.05a.527.527 0 01-.52-.174c-.035-.037-.065-.08-.098-.12-.253-.307-.599-.443-.973-.494-.313-.043-.583.047-.73.373-.046.1-.133.187-.214.268-.093.093-.174.188-.194.324-.056.37-.317.611-.551.864-.117.127-.285.122-.42.02a.38.38 0 01-.107-.11c-.086-.155-.234-.187-.386-.223-.162-.039-.33-.07-.48-.135a1.265 1.265 0 01-.384-.249c-.362-.359-.277-.829.187-1.026.34-.146.682-.295 1.048-.373.137-.028.27-.08.404-.122a.771.771 0 00.435-.3c.108-.161.24-.26.455-.171.116.047.225-.009.286-.13.028-.057.058-.113.096-.186.11-.017.223-.05.335-.048a.62.62 0 00.484-.188c.15-.152.353-.209.556-.246a.43.43 0 01.421.216c.077.15.036.311-.112.445a5.457 5.457 0 01-.163.14c.255.294.478.466.74.578.181.076.284.032.358-.154.018-.047.033-.095.054-.158.16-.038.325-.053.468-.155.139-.1.36-.027.492-.213-.036-.04-.061-.085-.1-.108a2.442 2.442 0 00-.31-.155c-.212-.087-.339-.218-.31-.47a.31.31 0 00-.06-.213c-.261-.31-.573-.554-.97-.665a.527.527 0 00-.265-.014c-.37.098-.736.21-1.103.317-.015.088-.03.15-.035.214-.017.224-.138.352-.35.401-.15.035-.3.074-.451.102-.13.024-.266.017-.37-.064-.184-.142-.353-.09-.538-.007a18.49 18.49 0 00-1.953 1 17.04 17.04 0 00-2.27 1.596c-.027.022-.039.063-.057.095l.22.078c-.056.215-.203.285-.366.332-.106.03-.162-.051-.227-.12m4.22-.117c.169-.018.207.166.327.22.228-.193.228-.193.275-.366l-.603.145c.037-.093.052-.208.117-.273a.627.627 0 01.302-.155c.087-.017.187.03.296.05a.888.888 0 01.308-.476.622.622 0 00.16-.214c.14-.312.392-.461.71-.53.097-.02.21-.052.274-.12.147-.157.339-.226.521-.307.014-.063.015-.117.037-.16.028-.056.075-.102.11-.155.021-.03.102-.046.015-.12-.075.059-.148.13-.233.182-.108.066-.22.146-.339.166a.659.659 0 00-.34.157 1.019 1.019 0 01-.229.14c-.162.077-.338.11-.508.159-.174.049-.308.227-.48.304-.22.098-.46.154-.693.226-.17.053-.343.101-.518.153.008.141.037.28-.119.338-.046.017-.107.035-.148.019-.074-.03-.14-.087-.209-.132-.118.057-.13.148-.077.257.092.189.26.282.449.338.196.057.396.103.595.154m11.42-2.141c.063-.005-.176-.04-.243.06-.18-.014-.322.082-.454.18-.451.336-.96.53-1.501.659-.123.029-.243.08-.356.137-.274.14-.55.277-.811.438-.252.154-.498.178-.718.059-.164.071-.116-.104-.28-.224l-.196-.206s-.003-.06-.111-.167c.016-.002.03-.03.055-.054l-.07-.23c-.002-.08.027-.177.043-.304.1-.135.198-.265.29-.399.017-.025.005-.07.007-.106l.005.006-.12-.44c.003-.062-.014-.24.107-.24-.005-.11.057-.197-.035-.3.065-.119-.1-.273.068-.314-.038-.158-.153-.217-.252-.285-.115-.089-.296-.144-.198-.174-.102-.085-.16-.156-.235-.191-.124-.059-.415-.037-.662.024.009.023.014.048.027.067.123.168.116.213-.057.268-.22.07-.446.12-.658.204a.999.999 0 01-.45.058c.02-.142.104-.23.232-.283.21-.088.42-.178.648-.275-.3-.027-.917.069-1.278.2.152.115.217.297.406.351.017.033.025.08.052.097.222.138.305.334.262.59-.004.021.018.047.04.1.124.067.27.143.413.227.264.154.341.413.21.69-.031.068-.07.132-.1.2-.068.152-.175.203-.337.146-.055-.02-.102-.062-.15-.092-.167.118-.356.163-.471.34-.086.134-.254.17-.412.176-.114.004-.229-.009-.346-.014l-.21.244c.088.085.161.127.259.086.082-.034.163-.076.249-.099.16-.043.276.009.346.161.098.21.189.425.17.667-.018.236.078.426.241.588.036.036.07.075.108.11.148.136.195.29.117.486-.066.163-.107.337-.162.515.05.032.09.06.132.088.053.035.112.064.16.105.12.107.129.262.018.375a.633.633 0 01-.4.211c-.192.015-.385.032-.576.02-.365-.021-.408-.057-.606-.382-.147.004-.3.01-.453.01-.249.003-.37.113-.394.36-.016.17.043.276.2.33.096.035.2.044.296.076.09.03.111.116.065.22-.016.035-.04.066-.062.102.051.038.111.067.145.115.025.035.036.106.017.141-.068.125-.187.16-.324.161-.127.001-.117-.114-.177-.188l-.469.117c.071.298.072.299-.163.425-.079.043-.156.093-.24.119a.582.582 0 01-.226.015c-.09-.009-.14-.143-.08-.212a.839.839 0 01.173-.148c.082-.053.192-.057.28-.174-.336-.034-.635.049-.935.072-.133.01-.234.108-.238.262-.006.27-.155.436-.393.515-.328.109-.587.312-.822.555-.16.165-.31.34-.468.508-.08.084-.167.16-.247.243-.051.053-.096.112-.144.169l.013-.011-.582.292-.165.162a2.647 2.647 0 00-.741 1.254c-.094.338-.231.4-.56.271l-.07-.025.012.012-.248-.945c-.232-.033-.232-.033-.509.061h.003c-.088.014-.178.018-.263.041a.76.76 0 01-.523-.035c-.335-.15-.664-.09-1.012-.009.03.05.05.083.07.113.061.09.047.182-.032.24a3.926 3.926 0 01-.45.286c-.043.023-.114-.006-.186-.012-.011-.136.097-.242.025-.351.029.019.063.06.086.054.053-.013.118-.034.108-.118l-.194.067c-.034.053-.06.112-.1.16a.928.928 0 00-.219.718c.007.063.006.128.01.192.023.324.255.593.572.629.176.02.36.013.535-.015.175-.028.343-.097.516-.146.098-.028.196-.063.296-.075.314-.035.513.318.375.546a.885.885 0 01-.285.304c-.105.067-.237.108-.277.25.078.113.202.099.31.124.363.083.544.31.543.686 0 .103-.008.207-.011.31-.011.36.02.412.352.545.095.037.195.062.295.086.174.041.354.063.524.118.198.064.343.026.474-.139.161-.203.39-.28.641-.308.38-.042.717.055.993.319.26.25.558.291.891.207.124-.031.25-.058.375-.085a.449.449 0 01.478.172c.072.092.14.186.218.271.33.357.634.752 1.168.812.252.123.517.22.62.532.076.231.194.448.289.672.066.156.15.3.279.412.136.121.273.22.479.194a.564.564 0 01.332.073c.3.174.62.288.941.412.481.186.886.515 1.287.837a.68.68 0 01.24.425c.062.312.027.614-.029.92a1.048 1.048 0 01-.417.671c-.123.093-.25.18-.38.265a.342.342 0 00-.165.247c-.016.115-.039.23-.049.345-.02.218-.028.438-.048.656-.03.31-.156.568-.42.748-.45.306-.816.706-1.188 1.097-.15.159-.26.334-.31.564-.096.442-.295.849-.53 1.237-.164.271-.377.452-.708.455-.035 0-.07.018-.11.03-.004.043-.014.08-.01.117.024.243-.087.424-.26.573-.096.084-.202.157-.306.233-.102.075-.206.147-.299.213.028.276-.002.33-.19.422-.17.084-.212-.07-.294-.178-.13.187-.245.366-.153.58.146.344.16.701.145 1.064-.004.106-.002.208.07.293.121.147.147.32.163.505.025.3.099.583.34.793a.49.49 0 01.112.154c.125.257-.022.513-.304.514-.243 0-.486-.025-.73-.039l.014.014c-.022-.027-.038-.068-.067-.08-.188-.078-.343-.204-.497-.334-.238-.202-.483-.396-.725-.593l.01.012-.297-.908c-.009-.004-.02-.012-.032-.015-.07-.02-.164-.009-.168-.117-.004-.096.067-.127.146-.149.033-.009.063-.034.102-.056l.02-.466c-.059-.057-.111-.113-.17-.16-.066-.052-.073-.164-.158-.176-.232.217-.458.409-.661.622-.364.383-.712.78-1.072 1.166-.086.092-.19.167-.292.244-.036.028-.112-.032-.103-.08.01-.05.015-.105.04-.145.09-.14.18-.284.287-.411.497-.592 1.036-1.142 1.669-1.596-.114-.13-.226-.253-.335-.38a.925.925 0 01-.231-.75c.036-.295.043-.593.073-.888.02-.192.04-.387.093-.572.1-.352.122-.71.142-1.071a2.118 2.118 0 00-.107-.8c-.073-.22-.116-.448-.176-.672a.712.712 0 01.046-.489c.089-.203.134-.416.106-.64-.155-.21-.32-.398-.546-.537-.115-.07-.194-.202-.288-.306-.137-.153-.254-.334-.415-.453a2.053 2.053 0 01-.637-.811 3.922 3.922 0 00-.447-.765c-.172-.221-.262-.472-.215-.76.007-.044.033-.1-.054-.147-.07.051-.148.113-.232.166a.567.567 0 01-.172.076c-.03.006-.08-.015-.1-.04-.019-.024-.027-.08-.012-.105.124-.2.291-.353.49-.452l.217.095c.08-.093.156-.172.123-.287-.084-.295-.015-.59-.018-.886a.687.687 0 01.255-.54c.104-.093.194-.202.285-.309.125-.146.244-.296.366-.444.047-.056.096-.11.152-.174-.166-.148-.327-.235-.529-.25-.72-.059-1.24-.444-1.638-1.026a3.004 3.004 0 01-.163-.263c-.086-.16-.202-.247-.397-.248-.251 0-.487-.085-.648-.29-.196-.25-.463-.356-.755-.426-.087-.021-.172-.052-.26-.067-.435-.07-.788-.293-1.118-.572-.3-.253-.479-.534-.33-.945a.536.536 0 00-.042-.451 1.91 1.91 0 00-.618-.673c-.252.553-.44 1.194-.429 1.482.128-.133.238-.257.358-.37.074-.07.158-.132.246-.18.028-.016.095.017.13.045.02.018.032.078.018.104a.886.886 0 01-.134.185c-.123.132-.258.253-.377.388a.608.608 0 01-.386.228c-.02.052-.046.098-.057.148-.16.717-.304 1.437-.369 2.17-.03.335-.06.67-.072 1.006-.019.503-.048 1.008-.027 1.51.034.824.114 1.645.251 2.461.371 2.216 1.164 4.274 2.265 6.218.33.583.728 1.12 1.134 1.656a17.476 17.476 0 003.915 3.802c.895.627 1.824 1.196 2.823 1.642.856.381 1.725.726 2.632.967h-.005c1.042.328 2.115.503 3.198.614.713.072 1.429.09 2.148.062a18.51 18.51 0 002.328-.225c.416-.068.834-.129 1.247-.27-.092-.14.013-.248.038-.367.07.014.132.012.158-.071.062.039.142.065.182.12.037.05.03.133.046.216.163-.029.323-.034.45-.15.057-.018.145.035.163-.072.161.061.306-.022.446-.069a17.425 17.425 0 003.394-1.53c.441-.262.889-.518 1.308-.813.44-.31.857-.657 1.272-1.002a17.48 17.48 0 001.068-.946c.313-.305.597-.64.885-.968a17.568 17.568 0 003.501-6.174c.247-.76.443-1.531.588-2.317.103-.56.191-1.12.233-1.686.005-.07.037-.159-.085-.201l-.576.363c-.01.006-.008.045 0 .053l-.312.201c-.164.19-.341.374-.389.642v-.001c-.104.167-.082.769-.021.916a.287.287 0 00-.106.182c-.132.306-.24.587-.193.907-.074.125.094.231-.021.233-.024.132-.055.252-.004.375-.04.076-.04.095-.046.17l-.134.34c-.042.106-.08.215-.129.32-.044.097-.099.19-.171.33-.077.062-.192.12-.21.174-.08.08-.141.147-.206.209-.074.071-.151.14-.227.21l.009-.008c-.06.08-.165.155-.171.238-.023.297-.128.569-.2.85-.013.047-.001.101 0 .152l.01-.011a1.068 1.068 0 00-.322.468c-.113.306-.305.564-.486.83-.27.397-.721.518-1.092.762-.02.013-.05.008-.074.015a8.214 8.214 0 01-1.66.25c-.048.098-.07.21-.185.24a.458.458 0 01-.186.022c-.042-.007-.077-.056-.11-.082.044-.189.211-.185.344-.261-.105-.287-.204-.578-.32-.863-.089-.22-.148-.44-.115-.678a.56.56 0 00-.11-.436.602.602 0 01-.115-.32c-.01-.296-.173-.57-.113-.874a.103.103 0 00-.016-.075c-.179-.232-.226-.508-.267-.787-.002-.012-.011-.022-.017-.034-.216-.403-.13-.8.028-1.193.058-.143.135-.278.192-.421a.699.699 0 00-.015-.6c-.07-.137-.13-.292-.237-.394-.27-.258-.448-.55-.497-.929-.016-.127-.06-.246-.025-.376a.398.398 0 00.002-.154 3.06 3.06 0 01.062-1.113c.06-.254.027-.323-.216-.416-.38-.145-.7-.373-.992-.65-.071-.069-.162-.117-.202-.146-.298.067-.547.17-.795.167-.511-.007-1.023.034-1.536-.046a4.527 4.527 0 01-1.138-.326 1.79 1.79 0 01-.556-.407c-.182-.187-.289-.396-.228-.661.031-.14-.011-.249-.09-.36a.806.806 0 01-.123-.44 1.518 1.518 0 01.092-.648c.089-.215.064-.402-.096-.57-.19-.2-.234-.448-.255-.712a.842.842 0 01.283-.726.145.145 0 00.026-.03c.266-.428.575-.818.996-1.105-.027-.055.238-.287.262-.276.155-.131.313-.218.404-.351.23-.338.558-.567.845-.842a.716.716 0 01.56-.208c.076.004.153.007.23.006.248-.003.486-.056.698-.187.427-.263.898-.36 1.387-.395.282-.02.564-.026.845-.044.127-.008.26-.014.316-.169.006-.016.076-.027.101-.013.025.014.033.062.044.096.003.009-.008.026-.017.034-.115.095-.047.215-.042.324.006.127.02.253.035.378.002.017.038.03.068.05.107-.284.363-.283.6-.301.045-.004.11.06.14.108.036.055-.03.142-.117.163-.134.033-.27.06-.462.101l.589.236c.115-.07.194-.145.287-.17.222-.06.45-.098.678-.137.047-.008.1.01.149.026.072.023.1.15.037.19a1.02 1.02 0 01-.236.114c-.085.027-.175.038-.264.05-.092.013-.185.02-.337.034.197.123.344.189.515.223.089-.111.152-.27.328-.218.307.09.633.091.935.214.213.087.442.125.675.107.332-.026.66-.087.996-.032.107.017.139-.045.127-.203-.24.046-.48.052-.713-.013-.037-.13.034-.187.128-.204.188-.033.378-.05.57-.075-.051-.103-.144-.13-.246-.146-.19-.033-.38-.062-.567-.103-.342-.076-.627-.224-.726-.603-.016-.063-.068-.117-.116-.194-.111.146-.168.3-.356.312a.901.901 0 01-.45-.075c-.07-.033-.135-.073-.202-.11l-.22-.125c-.08.055-.137.11-.205.14-.124.052-.2-.008-.224-.165-.004-.026 0-.052 0-.077.057-.014.114-.025.169-.043.008-.003.013-.048.003-.063-.01-.015-.054-.03-.058-.025-.038.044-.07.094-.103.142-.258.164-.565.236-.795.453-.07.065-.17.043-.25-.012a.47.47 0 01-.209-.352c-.03-.243.044-.364.273-.435.078-.024.185.025.238-.102-.067-.155-.146-.308-.316-.401a.345.345 0 01-.3.227c-.33.042-.659.086-.99.12-.096.01-.197-.012-.284-.018-.046-.131-.005-.209.087-.248.093-.04.192-.073.292-.089.265-.044.532-.076.797-.117.054-.008.105-.032.192-.061-.23-.052-.414-.095-.6-.134a.389.389 0 00-.152-.007c-.504.1-.984.253-1.359.634l.015-.014c-.114.019-.108.131-.155.201-.108.16-.205.326-.322.478-.082.106-.247.136-.261.311-.004.037-.095.077-.153.098-.12.044-.244.075-.366.114-.109.034-.23.104-.328.014-.132-.12-.24.01-.359.005a.226.226 0 01-.073-.02c-.425-.175-.621-.521-.515-.957.077-.315.14-.627.16-.952.02-.33.17-.448.505-.44.27.006.538.023.803.035.072-.086.13-.154.183-.225.014-.018.013-.048.02-.08-.046-.098-.104-.2-.144-.307-.092-.25-.05-.395.179-.52.167-.09.354-.146.532-.216.119-.046.252-.068.354-.138.319-.217.639-.437.79-.82.044-.114.123-.206.242-.232.334-.075.657-.214 1.016-.15.226.039.459.04.69.057.127.009.257.028.383.014.207-.024.391-.097.473-.36-.072.01-.12.012-.165.024-.148.04-.296.08-.442.126-.221.071-.431.025-.64-.05-.13-.048-.216-.132-.235-.277-.012-.087-.033-.172-.054-.276-.204.015-.391.04-.578.042-.204 0-.413.007-.616-.157 0 0-.1-.049-.11-.136-.068-.327.053-.588.296-.79.127-.106.276-.185.418-.272.054-.033.118-.051.175-.081.047-.025.125.005.146-.079-.03-.03-.054-.06-.085-.081a17.855 17.855 0 00-3.798-1.941.847.847 0 00-.527-.01c-.188.05-.323.121-.364.34-.044.23-.198.383-.424.46-.066.023-.267.116-.34.112.084.085.126.08.154 0 .174.042-1.014.373-.959.289.007-.01.006-.025.008-.037.093.029.185.056.25-.051m14.502 16.665c-.198 3.51-1.255 6.726-3.226 9.632a16.37 16.37 0 01-2.114 2.558c-.607.592-1.223 1.177-1.902 1.69-2.37 1.786-5.005 2.96-7.92 3.495-1.576.29-3.164.365-4.755.221-3.108-.28-5.986-1.253-8.599-2.987a18.163 18.163 0 01-4.144-3.785c-.603-.752-1.124-1.569-1.62-2.4C1.355 25.827.65 23.739.267 21.533a15.229 15.229 0 01-.245-2.655c.001-.322-.028-.645-.02-.967.017-.788.134-1.567.248-2.345a18.34 18.34 0 013.484-8.21c2.142-2.86 4.897-4.897 8.218-6.167a17.72 17.72 0 013.71-.977A20.84 20.84 0 0117.57.03c.915-.052 1.822.012 2.73.075.433.03.86.132 1.29.195.954.14 1.88.395 2.785.714a18.522 18.522 0 015.737 3.244 18.876 18.876 0 013.879 4.428c.416.655.762 1.343 1.093 2.04.338.71.612 1.448.852 2.199.236.737.426 1.486.557 2.247.182 1.055.306 2.118.285 3.193-.006.323.005.646.008.968"/><path d="M17 21.622c.007.025.012.05.013.076.001.1 0 .201-.004.302 1.06-.33 2.097-.703 3.11-1.119A36.14 36.14 0 0024 19.011l-.064-.004c-.036 0-.071-.005-.107-.007A36.537 36.537 0 0120 20.66c-.982.362-1.986.679-2.999.962m-4.633-7.004A42.846 42.846 0 0016 14c-1.213.19-2.44.306-3.669.392a57.408 57.408 0 01-5.823.108c-.059.06-.152.085-.225.125a.564.564 0 00-.266.28A.238.238 0 006 15a79.358 79.358 0 002.661-.067 39.978 39.978 0 003.707-.315M18 15c-1.485.548-3.01.92-4.538 1.21-1.152.21-2.304.37-3.462.474.226.13.478.136.744.074.133-.031.263-.077.395-.116.174-.052.316-.017.423.177.036.064.075.123.115.181a25.36 25.36 0 001.843-.428c1.521-.413 3.028-.908 4.48-1.572m-8.576-3.264A21.403 21.403 0 0012 11c-.865.154-1.732.227-2.599.268-.388.013-.775.022-1.162.029a6.02 6.02 0 00-.159.43c-.029.089-.054.182-.08.273.476-.067.952-.15 1.424-.264"/><path d="M12.797 15.2c1.423-.315 2.835-.691 4.203-1.2-1.398.405-2.825.674-4.254.879a42.765 42.765 0 01-4.306.384c-.807.03-1.615.04-2.422.04l-.002.06-.016.38a.477.477 0 00.063.257 63.66 63.66 0 002.41-.159c1.45-.127 2.902-.32 4.324-.642m5.145 9.91c2.524-.863 4.889-2.18 7.085-3.712A38.185 38.185 0 0028 19.093a.848.848 0 00-.117-.093 37.828 37.828 0 01-2.998 2.162 32.961 32.961 0 01-3.45 1.966 25.115 25.115 0 01-3.646 1.474 33.19 33.19 0 01-1.866.54c-.03.025-.062.05-.095.073-.313.22-.577.495-.828.785a34.883 34.883 0 002.942-.891m-3.695 5.489c2.6-.55 5.166-1.277 7.625-2.265a28.997 28.997 0 003.569-1.719 33.345 33.345 0 003.303-2.133l.136-.101c.029-.115.063-.228.101-.34.005-.014.013-.027.019-.04-.136.095-.27.191-.407.285a33.159 33.159 0 01-3.342 2.012 29.335 29.335 0 01-3.565 1.6c-2.45.912-5 1.565-7.582 2.042-.698.127-1.4.242-2.104.345.006.016.009.032.016.048.1.214.132.44.13.668a59.764 59.764 0 002.1-.402"/><path d="M18.935 23.383a33.565 33.565 0 002.99-1.28 32.778 32.778 0 002.842-1.564A27.69 27.69 0 0027 19.015L26.984 19c-.735.516-1.503.985-2.284 1.427a32.61 32.61 0 01-2.886 1.439c-.984.432-1.99.812-3.007 1.148a28 28 0 01-1.762.51c-.003.019-.009.036-.01.056-.008.14-.022.28-.035.42a28.724 28.724 0 001.935-.617M14.291 20c.884-.22 1.753-.483 2.61-.772C18.67 18.62 20.397 17.903 22 17c-1.65.827-3.408 1.459-5.194 1.98a36.53 36.53 0 01-2.806.685c.075.126.173.236.291.335M20 16c-1.465.57-2.998.984-4.544 1.319-.814.174-1.633.318-2.456.435.069.026.14.047.219.059a.942.942 0 01.294.113.366.366 0 01.092.074c.647-.13 1.289-.278 1.92-.452 1.536-.413 3.047-.906 4.475-1.548m2.671 13.924c2.244-.97 4.392-2.16 6.322-3.616a.759.759 0 010-.117.804.804 0 00.001-.191c-.033.024-.066.049-.1.072a27.5 27.5 0 01-3.105 1.891 33.423 33.423 0 01-3.315 1.53c-2.266.904-4.622 1.594-7.013 2.122a52.778 52.778 0 01-3.461.64c.004.028.011.055.013.084.013.196.08.397.21.661a54.42 54.42 0 003.407-.73c2.408-.603 4.774-1.367 7.041-2.346m11.3-4.904c-.296.295-.61.58-.937.858-.015.039-.024.08-.034.122.35-.325.688-.656 1-1l-.029.02"/><path d="M30.562 30.24c-1.288 1.002-2.65 1.932-4.105 2.644-1.461.718-2.999 1.289-4.544 1.82a70.437 70.437 0 01-4.697 1.408l.004.015a16.142 16.142 0 01-1.87-.241c1.36-.438 2.706-.9 4.046-1.389 1.797-.66 3.582-1.359 5.315-2.187.862-.418 1.725-.866 2.516-1.418a28.262 28.262 0 002.765-2.122c-.092.006-.184.01-.277.014a.4.4 0 01-.107-.008c-.082.064-.163.129-.246.191a27.912 27.912 0 01-2.348 1.6c-.794.506-1.644.912-2.512 1.292-1.737.752-3.533 1.38-5.34 1.968a111.65 111.65 0 01-5.465 1.613l.011.04a17.082 17.082 0 01-1.895-.704 81.318 81.318 0 005.145-1.392c2.203-.679 4.382-1.453 6.485-2.41a27.038 27.038 0 003.06-1.632c.912-.586 1.806-1.2 2.674-1.847v-.077a1.168 1.168 0 00-.018-.243 45.673 45.673 0 01-2.867 1.826 26.645 26.645 0 01-3.055 1.511c-2.101.88-4.279 1.582-6.48 2.187a79.361 79.361 0 01-6.253 1.44l-.062-.032a19.06 19.06 0 01-1.056-.626c.688-.093 1.37-.203 2.051-.324a2.353 2.353 0 01-.724-.62c-.024-.032-.045-.064-.066-.096-.803.11-1.61.2-2.407.259l-.262-.19c-.27-.2-.533-.41-.792-.625a58.345 58.345 0 003.26-.433v-.126c-.001-.128.003-.257-.006-.385-.004-.062-.014-.155-.054-.179a.6.6 0 01-.111-.09 52.7 52.7 0 01-4.024.39c-.3-.283-.589-.577-.869-.88a54.05 54.05 0 004.09-.396.989.989 0 01-.125-.548l.014-.227a49.404 49.404 0 01-4.734.295c-.157-.194-.309-.39-.456-.591a55.227 55.227 0 005.267-.43c.03-.192.065-.382.113-.572a1.64 1.64 0 00.038-.206 53.973 53.973 0 01-6.043.309c-.16-.246-.312-.496-.457-.75a55.34 55.34 0 006.548-.432 2.397 2.397 0 00-.13-.716c-2.295.22-4.614.31-6.9.234-.098-.199-.192-.4-.282-.602a67.924 67.924 0 007.072-.5c.013-.045.028-.09.047-.135.077-.185.1-.378.078-.563a66.562 66.562 0 01-7.568.297 18.51 18.51 0 01-.212-.592 67.85 67.85 0 005.782-.313 63.58 63.58 0 001.507-.167 3.03 3.03 0 01-.592-.622c-.325.026-.65.052-.974.073-1.998.13-4.013.178-6.005.127l-.03-.098c-.042-.152-.078-.306-.116-.46a62.514 62.514 0 006.434-.308 1.588 1.588 0 01-.086-.136c-.1-.176-.198-.354-.3-.53-.173.011-.347.023-.52.032-1.908.1-3.831.117-5.73.04a19.84 19.84 0 01-.118-.672c1.617.01 3.22-.044 4.827-.15.368-.025.735-.054 1.103-.086a.6.6 0 01.123-.416.775.775 0 00.124-.273 66.029 66.029 0 01-6.302.022 20.584 20.584 0 01-.076-.827 73.803 73.803 0 006.438-.19.555.555 0 01.178-.378c.091-.086.17-.184.25-.28-.826.033-1.651.05-2.477.055a78.016 78.016 0 01-4.434-.103c-.006-.203-.01-.406-.01-.609 1.29.012 2.572-.003 3.859-.043a77.523 77.523 0 003.73-.204c-.006-.117-.074-.224-.21-.33a1.125 1.125 0 00-.42-.21 80.23 80.23 0 01-3.107.019 94.897 94.897 0 01-3.838-.127c.007-.2.016-.401.028-.602a95.854 95.854 0 005.314-.07c-.026-.03-.053-.06-.078-.093-.078-.101-.147-.211-.217-.32a.69.69 0 00-.255-.24 95.62 95.62 0 01-4.69-.174c.025-.257.056-.513.092-.77.891.034 1.78.052 2.668.06-.06-.014-.121-.03-.182-.042-.408-.076-.69-.336-.962-.615a.366.366 0 01-.1-.19c-.427-.033-.855-.066-1.28-.103.02-.118.044-.235.068-.352.42.003.84.002 1.259 0l.002-.017a.637.637 0 00-.12-.547c-.075-.102-.155-.2-.234-.299-.233-.014-.465-.027-.697-.043.032-.124.06-.248.096-.37.018-.062.039-.123.059-.185l.168-.001a.714.714 0 01.043-.501c.058-.132.123-.259.184-.389L1.474 11l-.04.921h.046c-.022.056-.046.112-.066.168-.047.126-.086.254-.128.381l-.16-.01-.026.616c-.06.214-.116.428-.168.644-.117-.01-.235-.018-.352-.03l-.069.92c.077.004.152.005.229.008-.049.253-.093.507-.132.762-.11-.007-.22-.01-.329-.018l-.047.921.253.004c-.022.196-.04.392-.057.588l-.267-.014-.042.921c.084.002.168.002.252.002-.007.198-.01.395-.013.592l-.31-.016-.048.92c.123.004.246.004.369.006.009.272.023.543.044.814-.027 0-.054-.002-.08-.003l-.044.921c.072.002.142 0 .214.002.027.219.057.437.092.655l-.068-.002-.045.92c.095.003.19.001.285.002.043.2.086.4.136.598l.003.013-.027.86c.088 0 .175-.003.263-.003.1.333.212.663.333.989l-.013.513c.07 0 .14-.004.21-.004.167.411.348.817.547 1.214l-.012.288h.165c.224.427.465.844.724 1.25l-.009.422c.094 0 .186-.004.28-.005.243.357.503.702.773 1.04v.464c.126-.003.25-.01.375-.014.34.395.696.776 1.067 1.141l.026.66c.21-.014.417-.032.625-.049.427.382.87.747 1.327 1.089.116.086.235.17.353.254l.021.334c.133-.013.264-.029.395-.042a20.15 20.15 0 001.852 1.124l.075.395c.162-.034.323-.073.485-.109.702.345 1.427.645 2.172.89.33.11.664.204 1 .292l.036.128.21-.066c1.057.26 2.14.416 3.227.457l.08.282c.29-.09.58-.184.869-.279.197-.004.395-.01.592-.022 2.028-.113 4.016-.608 5.875-1.374.928-.388 1.827-.84 2.687-1.352.861-.51 1.69-1.077 2.444-1.73a21.112 21.112 0 01-5.254 2.77c-1.43.523-2.918.883-4.423 1.05a77.838 77.838 0 001.898-.705c1.538-.61 3.064-1.258 4.522-2.058 1.465-.804 2.785-1.806 4.038-2.88a23.03 23.03 0 001.77-1.724c.553-.609 1.08-1.244 1.516-1.94-.468.674-1.024 1.28-1.602 1.858a22.924 22.924 0 01-1.836 1.626"/><path d="M12.31 28.947c2.58-.47 5.13-1.128 7.573-2.068a26.44 26.44 0 003.545-1.663 32.909 32.909 0 003.279-2.093c.44-.315.869-.642 1.293-.976-.017-.019-.032-.039-.05-.058a1.884 1.884 0 01-.078-.089c-.431.317-.867.627-1.312.926a32.67 32.67 0 01-3.316 1.971 26.69 26.69 0 01-3.534 1.545c-2.226.792-4.538 1.346-6.875 1.74.023.056.05.11.073.158-.046.155-.167.231-.28.301-.205.126-.414.247-.628.359l.31-.053m21.677-5.93l.026-.034-.025.03v.004zM16.571 21a36.994 36.994 0 003.064-1.193 35.188 35.188 0 002.992-1.496c.125-.07.248-.143.373-.215a.587.587 0 01-.081-.096c-.12.063-.24.127-.362.189A36.025 36.025 0 0116 20.727c.114.026.219.077.324.132.084.044.166.092.247.141"/><path d="M19.114 26.483a26.82 26.82 0 003.704-1.713 33.495 33.495 0 003.45-2.197 39.036 39.036 0 001.726-1.32v-.006L28 21c-.613.468-1.238.919-1.876 1.347a33.05 33.05 0 01-3.483 2.062 26.862 26.862 0 01-3.69 1.583 38.047 38.047 0 01-4.655 1.27A3.35 3.35 0 0114 28a38.938 38.938 0 005.114-1.517M6.988 11.827c.337-.028.674-.062 1.01-.1.025-.455-.308-.782-.578-.72-.2.047-.404.082-.596.168a.847.847 0 01-.769-.01.886.886 0 00-.687-.05c-.155.047-.31.11-.466.144-.377.079-.656.376-.902.741a64.818 64.818 0 002.988-.173m-1.028 2.16a.349.349 0 00.04-.02 44.705 44.705 0 01-.91-.054L5 13.905a.63.63 0 00.36.184 1.24 1.24 0 00.6-.102m-1.941-1.23c.006.04.027.08.027.119 0 .043.008.084.014.124.152-.003.304-.003.456-.007a84.514 84.514 0 003.181-.121 35.49 35.49 0 003.172-.305A36.672 36.672 0 0014 12c-1.05.139-2.104.212-3.158.259a69.99 69.99 0 01-3.158.057 84.842 84.842 0 01-3.16-.088l-.496-.026a1.667 1.667 0 00-.009.555"/></g></svg>