<?xml version="1.0" encoding="utf-8"?><svg xmlns="http://www.w3.org/2000/svg" width="53" height="41" viewBox="0 0 53 41"><g fill="#A8A7A7" fill-rule="evenodd"><path d="M.131 16.927c.228-.118.462-.221.73-.276.3-.063.547-.22.78-.385.121-.087.24-.177.359-.266-.062.041-.122.083-.185.124-.241.156-.497.302-.802.353-.27.044-.51.137-.744.246-.229.106-.292.187-.262.277a1.27 1.27 0 01.124-.073"/><path d="M52.27 24.566c-.001-.022-.001-.043-.004-.065a2 2 0 01-.017-.379c.003.063.007.126.017.189.013.087.012.171.004.255m-1.093 3.383c-.003-.017-.004-.034-.009-.052-.021-.077-.063-.147-.096-.22-.07-.152-.087-.258-.061-.361a.965.965 0 00.06.171c.034.073.076.144.097.22a.482.482 0 01.01.242M6.651 26.407c.035-.02.071-.036.11-.055l.008.003c.047.011.086.05.17.103-.122.059-.207.094-.288.139a.39.39 0 00-.191.208c-.048-.16.021-.305.191-.398m-3.858-3.935c.103-.058.206-.122.32-.192.026.041.054.086.089.136-.154.093-.28.173-.409.246-.044.025-.09.048-.117.087l-.02-.105c-.014-.103.067-.132.137-.172m-.475-1.993l.085.049c.408.23.866.32 1.305.458.7.221 1.404.426 2.142.478.216.015.43.01.634-.074.069-.029.129-.078.216-.133a.863.863 0 00-.687-.155c-.42.07-.82-.005-1.228-.095-.917-.202-1.772-.57-2.618-.964-.18-.084-.326-.202-.314-.47.096.031.178.048.251.085.724.362 1.499.584 2.268.817.234.07.484.092.728.12.085.01.175-.03.276-.049-.072-.188-.21-.206-.34-.235-.428-.098-.856-.191-1.283-.29a4.632 4.632 0 01-1.246-.476c-.207-.118-.435-.196-.655-.29-.086-.037-.174-.068-.265-.104.034-.14.12-.107.194-.092.46.092.925.17 1.38.284.71.178 1.415.382 2.122.577.117.033.229.052.347-.06-.055-.032-.09-.066-.13-.073-.782-.13-1.525-.403-2.276-.64-.638-.202-1.267-.431-1.897-.657a1.215 1.215 0 01-.592-.432c-.023-.032-.05-.063-.07-.098-.048-.083-.063-.167.024-.237.08-.065.163-.055.24.05.138.189.331.27.548.308.044.008.091-.004.146-.007-.054-.316-.438-.287-.548-.567.075-.02.132-.043.19-.046.403-.025.759-.19 1.005-.494.332-.41.768-.672 1.175-.979.242-.182.482-.369.724-.553.452-.344.952-.505 1.522-.411a.8.8 0 00.304-.01c.118-.029.157-.113.105-.222a.772.772 0 00-.167-.23c-.164-.153-.342-.29-.508-.441-.08-.073-.145-.163-.227-.256.053-.036.088-.073.13-.086.5-.158 1.003-.312 1.505-.467.277-.085.559-.12.85-.108.09.004.183-.03.273-.053.1-.024.2-.077.3-.08.429-.011.859-.014 1.288-.008.09.002.18.056.269.091.191.075.382.153.573.23.125.05.25.1.374.155.132.06.143.058.243-.1-.062-.033-.12-.073-.184-.098-.14-.055-.282-.112-.428-.151-.2-.053-.35-.143-.367-.377-.009-.117-.088-.18-.181-.237-.107-.066-.207-.143-.305-.21.034-.148.129-.194.229-.22.369-.096.733-.22 1.122-.21.183.004.367.01.549-.008.433-.04.858.04 1.285.08a.11.11 0 01.024.004c.643.255 1.355.305 1.963.666.309.183.614.372.915.567a.28.28 0 01.113.17.315.315 0 00.176.24c.188.105.374.214.566.312.099.05.156.122.206.22.057.115.142.216.221.333-.255.086-.258.33-.232.558.02.17.104.333.167.496.032.08.08.154.135.26-.186-.066-.314-.17-.447-.266-.477-.348-.941-.717-1.438-1.033-.672-.427-1.41-.671-2.216-.654-.158.003-.317.03-.474.052-.102.014-.192.062-.179.183.014.12.114.15.215.148.086-.003.173-.02.257-.042a1.926 1.926 0 011.085.012c.28.089.527.238.734.438.36.346.77.625 1.17.917.55.4 1.106.797 1.495 1.373.205.303.446.583.574.941.064.177.198.33.316.482.241.312.459.636.584 1.017.018.055.076.098.117.145.207.24.44.46.563.754-.055.127-.143.096-.228.076-.248-.057-.494-.12-.743-.168-.116-.022-.238-.018-.356-.016-.083.001-.157.03-.171.144.11.106.248.183.402.16.35-.051.612.132.878.308.11.073.205.17.348.291-.1.019-.149.042-.194.034-.4-.065-.805-.118-1.2-.208a52.81 52.81 0 00-5.03-.895c-1.375-.179-2.756-.305-4.132-.478-.582-.074-1.159-.202-1.735-.319-.547-.111-1.09-.24-1.635-.36a.612.612 0 00-.165-.01c-.345.02-.66-.082-.962-.24-.233-.123-.465-.23-.743-.232-.168-.001-.335-.095-.505-.137a.81.81 0 00-.302-.033 1.849 1.849 0 01-.665-.007c-.034-.007-.07 0-.118.042.053.025.102.061.157.075 1.554.392 3.102.803 4.662 1.165 1.257.292 2.526.536 3.794.776 1.043.198 2.099.297 3.16.335.125.004.252.03.375.058.086.02.163.062.174.172.01.121-.067.18-.153.22-.152.071-.306.125-.484.079a7.497 7.497 0 00-.769-.166 50.466 50.466 0 00-1.634-.224c-.202-.024-.408-.015-.606-.02-.055.151.027.199.11.224.135.041.276.07.417.095.564.103 1.128.202 1.692.306.054.01.104.046.18.08a.615.615 0 01-.345.214c-.354.095-.71.178-1.064.27-.254.065-.504.145-.76.202a.506.506 0 01-.295-.02c-.737-.323-1.47-.657-2.204-.986-.1-.046-.203-.087-.306-.13-.052.106.024.146.069.192.254.261.565.444.878.62.25.14.51.26.766.392.068.035.132.08.242.147-.144.072-.243.13-.349.174a7.964 7.964 0 01-2.078.527c-.29.036-.57.008-.84-.12-.33-.158-.676-.17-1.03-.106a.503.503 0 00-.11.038c-.011.005-.015.025-.029.05.061.11.182.143.288.187.198.084.4.159.603.231.7.252 1.41.236 2.117.043 1.213-.33 2.424-.674 3.635-1.014a3.324 3.324 0 001.061-.483c.383-.275.818-.427 1.269-.539.255-.063.507-.14.766-.185.21-.036.427-.058.638-.044.381.027.759.116 1.14.126.863.022 1.631.406 2.444.62.139.036.276.092.416.103.372.028.68.16.884.509l.124-.112c.255.118.29.219.169.444-.116.213-.238.415-.44.563a.4.4 0 00-.129.243.49.49 0 01-.209.337c-.159.114-.321.225-.481.338-.483.142-.973.264-1.47.356a9.297 9.297 0 01-1.64.171c.484.068.977.077 1.469.063-.027.011-.057.023-.062.041-.055.194-.238.19-.374.252-.775.352-1.61.436-2.437.555-.978.14-1.956.28-2.932.426a2.51 2.51 0 01-.973-.025 15.511 15.511 0 00-.794-.173c-.138-.026-.28-.028-.406-.04-.074.12-.02.19.04.237.079.063.171.13.267.147.58.105 1.16.207 1.743.288.432.06.856-.004 1.273-.134a7.019 7.019 0 011.501-.277c.062-.005.125.002.186.003.077.63-.033.787-.433 1.018-.276.16-.562.303-.837.464a.404.404 0 00-.163.188c-.02.053.005.148.044.193.026.03.122.022.172-.001.24-.106.478-.221.714-.338a6.02 6.02 0 00.441-.237.915.915 0 00.467-.817 7.07 7.07 0 00-.002-.386c-.005-.116.044-.18.157-.203.319-.067.634-.16.956-.203.646-.086 1.248-.318 1.859-.524.454-.153.88-.366 1.29-.607.056-.008.112-.012.167-.021a10.043 10.043 0 001.652-.417c.273-.097.543-.214.81-.361.123-.068.243-.148.363-.237.076.12.153.238.232.353a2.135 2.135 0 01-.167.13c-.204.144-.43.275-.668.389a9.54 9.54 0 01-1.51.56c-.523.157-1.055.288-1.594.39a9.35 9.35 0 01-1.64.17c.549.077 1.108.08 1.665.058a15.054 15.054 0 001.668-.17 9.897 9.897 0 001.652-.417c.274-.096.544-.213.81-.36a2.83 2.83 0 00.234-.146c.107.134.217.264.33.39a7.839 7.839 0 01-.995.492c-.73.299-1.503.52-2.284.71a24.25 24.25 0 01-2.373.462c-.8.108-1.608.186-2.42.165.808.097 1.625.095 2.44.062.815-.04 1.63-.121 2.44-.242.809-.132 1.617-.3 2.412-.557a8.382 8.382 0 001.178-.48c.045-.023.09-.049.134-.073.149.138.302.27.46.397-.038.025-.075.052-.115.076a8.35 8.35 0 01-1.157.59c-.81.337-1.67.581-2.538.778-.868.196-1.756.32-2.65.38a16.95 16.95 0 01-2.694-.02 17.03 17.03 0 002.7.239 17.58 17.58 0 002.72-.168 15.705 15.705 0 002.68-.618 9.09 9.09 0 001.295-.55c.139-.072.275-.155.409-.241.18.116.367.226.56.328a5.224 5.224 0 01-.55.381 8.65 8.65 0 01-1.26.612c-.878.344-1.81.606-2.745.782-.94.169-1.902.26-2.866.283-.965.026-1.933 0-2.898-.09.956.158 1.924.253 2.896.296.972.045 1.95.023 2.927-.081a15.76 15.76 0 002.89-.61c.473-.152.943-.33 1.398-.562a5.89 5.89 0 00.669-.398c.06-.042.12-.086.18-.133.12.061.243.121.329.19.042.033.076.077.14.142-.191.14-.36.29-.55.398-.916.523-1.846 1.013-2.897 1.209-.115.021-.222.088-.337.113-.184.04-.374.058-.56.093-.958.178-1.922.277-2.898.219-.438-.027-.875-.064-1.312-.076a7.657 7.657 0 00-.977.025 5.757 5.757 0 01-2.963-.469c-.232-.103-.444-.25-.665-.377-.082-.047-.165-.092-.285-.04.032.051.047.098.08.125.25.21.505.417.757.627.24.198.527.296.816.387.686.216 1.393.25 2.105.229.31-.01.621-.041.931-.037.229.004.46.033.685.079.2.041.226.125.132.314a.617.617 0 01-.09.142 6.71 6.71 0 01-.618.625 36.67 36.67 0 01-2.48.204l-.001-.004c-.106.003-.218-.014-.317.013-.854.242-1.737.202-2.608.276-.354.03-.617-.16-.9-.34.071-.134.177-.094.263-.093.35.005.7.016 1.051.025.972.023 1.892-.217 2.789-.571.092-.037.23-.052.198-.233-.18-.023-.342.044-.505.09-.329.093-.654.197-.982.294a4.993 4.993 0 01-1.417.182c-.574 0-1.148.006-1.72 0a1.32 1.32 0 01-.396-.071c-.071-.024-.126-.1-.188-.152l.019-.057c.081-.007.164-.022.245-.018.678.032 1.354.031 2.03-.04.317-.033.632-.08.926-.217.027-.013.052-.03.08-.09-.087-.01-.174-.036-.259-.03-.405.027-.809.067-1.214.093-.254.016-.51.022-.764.017-.25-.006-.272-.043-.252-.337.08-.006.165-.016.25-.017.621-.004 1.242-.028 1.85-.174.1-.024.201-.052.297-.09.052-.02.095-.066.141-.1l-.016-.049-.273.028c-.539.057-1.072.162-1.618.141-.389-.015-.779-.067-1.167.012a.354.354 0 01-.166-.015c-.404-.12-.809-.24-1.21-.371a.476.476 0 01-.315-.258c.107.009.183.007.255.022.617.129 1.235.123 1.855.036.142-.02.287-.014.428-.037.148-.023.296-.057.438-.105.067-.022.12-.086.178-.13l-.02-.06c-.097-.004-.195-.016-.292-.01-.508.035-1.015.09-1.524.107-.3.01-.604-.027-.904-.06-.316-.035-.63-.088-.945-.136-.432-.065-.786-.28-1.112-.573.076-.097.16-.06.23-.052.73.079 1.457.16 2.186.243.316.036.633.072.949.115.312.043.6-.05.885-.153.119-.043.234-.097.35-.151.03-.015.052-.046.063-.112-.066.002-.135-.007-.199.007-.74.163-1.488.144-2.235.07-.833-.084-1.663-.183-2.495-.277a1.038 1.038 0 01-.561-.228c.02-.023.03-.044.038-.043.232.018.456-.014.685-.053.159-.027.337-.002.494.043.895.256 1.811.25 2.728.251.087 0 .193.014.275-.123-.12-.017-.216-.037-.314-.043-.556-.037-1.116-.04-1.669-.11-.773-.099-1.542-.24-2.31-.375-.159-.027-.327-.053-.483-.18.306-.196.605-.23.919-.098.29.122.594.185.906.199.183.008.367.002.549-.017.628-.067 1.254-.083 1.882.009.212.03.43.023.645.023.382.002.764-.002 1.147-.006.15-.001.298-.013.458-.137-.07-.04-.117-.084-.169-.09-.157-.02-.319-.047-.475-.03-.82.088-1.639.037-2.458-.005-.326-.017-.654-.013-.979-.04-.491-.04-.98-.102-1.472-.152-.109-.012-.154-.075-.156-.177-.002-.106-.058-.23.091-.29.05-.019.095-.045.19-.09-.094-.054-.147-.104-.208-.115a4.498 4.498 0 00-.566-.074c-.28-.015-.558-.022-.814-.154-.122-.063-.238-.13-.317-.3.082-.008.146-.02.21-.02.486 0 .972.015 1.458.002a31.525 31.525 0 001.598-.084c.253-.02.503-.075.752-.127.077-.015.146-.071.218-.108a3.581 3.581 0 00-.015-.058c-.058-.003-.118-.015-.173-.006-.703.121-1.413.113-2.122.105-.732-.009-1.465-.018-2.198-.039a1.604 1.604 0 01-.918-.3c-.037-.028-.067-.065-.107-.103.082-.092.17-.051.25-.04.6.088 1.202.152 1.81.12.269-.014.537-.056.805-.09.049-.006.094-.04.16-.068-.112-.11-.228-.078-.331-.075-.702.022-1.403.026-2.102-.05-.245-.026-.49-.057-.737-.07a.975.975 0 01-.666-.284 8.008 8.008 0 01-.375-.406c-.038-.043-.054-.105-.1-.199.11.037.177.054.24.08.73.309 1.492.457 2.282.457.685 0 1.37.017 2.053-.066.094-.011.196.003.235-.126-.061-.1-.164-.083-.254-.084-.382-.003-.765.01-1.147 0a52.49 52.49 0 01-1.646-.066c-.617-.035-1.178-.26-1.715-.555-.137-.075-.272-.152-.413-.231.143-.173.28-.193.482-.107.22.095.436.202.663.27.512.15 1.03.28 1.546.418.09.024.184.046.27-.042-.035-.097-.123-.101-.193-.126-.55-.189-1.101-.376-1.651-.566-.074-.025-.145-.056-.228-.088.018-.07.03-.123.047-.176.062-.206-.038-.382-.244-.354-.312.043-.5-.11-.667-.33-.32-.42-.641-.842-.96-1.265-.026-.034-.036-.081-.035-.186m11.487-9.3c.514-.284 1.071-.315 1.652-.275-.225.192-.101.409-.069.61.02.117.079.226.097.343.04.25.12.48.243.7.09.16.16.33.21.527-.179-.114-.359-.226-.536-.343-.39-.255-.8-.467-1.263-.543-.196-.032-.316-.122-.352-.331-.02-.117-.085-.225-.12-.34-.043-.152.007-.276.138-.349m2.31 2.132l.121.124-.054.046-.107-.134.04-.036m3.573 6.718c.198.031.535.338.64.573-.247-.139-.508-.262-.64-.573m-.603-.744a1.355 1.355 0 01-.348-.591c-.12-.373-.25-.745-.5-1.057-.03-.037-.05-.082-.073-.125-.005-.012-.001-.03-.004-.082.422.402.827.784 1.225 1.172.153.15.213.32.117.54-.053.124-.043.275-.064.439-.115-.095-.24-.189-.353-.296m2.01 2.32c-.203.066-.37-.018-.517-.096-.385-.204-.756-.434-1.131-.657-.025-.014-.037-.048-.056-.074.408-.205 1.45.3 1.704.827m.776 1.283c-.015-.045-.016-.112.009-.147.046-.068.112-.043.163.008.035.033.066.07.095.108.043.058.082.119.124.178.053.074.093.129.13.17-.033.024-.064.05-.098.073-.204.144-.43.275-.668.389-.2.098-.409.184-.62.264a3.61 3.61 0 00.393-.593c.094-.178.092-.178.271-.126l.291-.2c-.029-.037-.074-.076-.09-.124m25.83 8.323a.135.135 0 01.086-.036c-.02.024-.036.05-.06.071-.022.02-.05.033-.076.048l-.013-.016c.021-.023.04-.047.063-.067m-28.22-.17c.154-.152.276-.33.374-.527.218-.439.303-.51.785-.438.6.089 1.173-.026 1.75-.148.304-.064.61-.118.912-.19.376-.09.749-.198 1.126-.287.192-.045.39-.088.588-.092.549-.012 1.041-.21 1.524-.443.272-.132.538-.278.805-.422a.532.532 0 01.372-.061l-.053.034c-.474.3-.98.559-1.5.796a19.76 19.76 0 01-1.592.643c-.541.183-1.09.35-1.649.487-1.115.28-2.252.488-3.396.642l-.045.006m14.19.448c-.538.237-1.08.469-1.625.691-.095.039-.214.02-.37.032-.31.249-.726.394-1.145.537-.89.301-1.77.635-2.667.909a11.35 11.35 0 01-3.56.497c-.58-.011-1.14-.137-1.69-.31.148-.011.298-.02.446-.032a31.216 31.216 0 003.456-.468 21.761 21.761 0 003.379-.954 13.333 13.333 0 001.627-.722 8.51 8.51 0 00.78-.47c.054-.039.106-.081.159-.12.022.004.044.006.055-.003.195-.174 1.402.057 1.624.159-.156.085-.306.182-.468.254m2.554.386c-.466.31-.967.583-1.479.834-.512.252-1.041.475-1.576.684-.536.197-1.081.378-1.636.53-.762.212-1.536.388-2.315.538a1.646 1.646 0 00-.08-.477c-.023-.067-.03-.138-.05-.236.235-.09.46-.184.692-.26.677-.226 1.646-.365 2.326-.586.533-.174 1.02-.449 1.519-.699.42-.21.845-.41 1.266-.62a.812.812 0 01.759-.008c.314.158.439.154.715.201-.047.033-.093.067-.141.099m1.998.656c-.462.312-.959.587-1.468.84-.509.255-1.036.481-1.569.692-.534.2-1.078.383-1.631.536a31.06 31.06 0 01-3.374.743c-.41.067-.82.127-1.232.183.14-.256.232-.537.262-.822.807-.111 1.611-.25 2.41-.428a21.816 21.816 0 003.354-1.04 13.382 13.382 0 001.609-.764 8.87 8.87 0 00.723-.46c.2.067.394.146.581.253.139.079.281.149.431.2-.032.021-.063.045-.096.067m.49 1.434c-1.11.6-2.303 1.053-3.526 1.41a28.602 28.602 0 01-3.749.799 38.21 38.21 0 01-.847.114c.132-.07.263-.142.395-.21.032-.016.052-.054.09-.095-.128-.06-.231-.02-.331.018-.325.124-.65.25-.973.376-.63.063-1.261.106-1.894.129.016-.007.033-.012.049-.018.373-.15.705-.452.939-.82.448-.033.896-.07 1.343-.116a31.245 31.245 0 003.447-.542 22.164 22.164 0 003.366-1.025 13.362 13.362 0 001.62-.759 8.85 8.85 0 00.712-.446c.14.06.28.123.422.18.121.048.243.09.366.128-.457.318-.933.613-1.428.877m3.003-.224c-.613.463-1.27.863-1.94 1.238-.345.17-.68.36-1.037.506l-.528.233-.54.202c-.725.259-1.47.476-2.227.647a29.79 29.79 0 01-2.292.441c-.367.057-.736.11-1.106.157-.017-.02-.04-.053-.062-.053a.657.657 0 00-.211.034c-.085.03-.171.054-.257.08-.715.084-1.432.15-2.15.197.195-.029.39-.102.58-.163.501-.162.998-.336 1.495-.506a.992.992 0 00.217-.098c.03-.02.053-.077.052-.116 0-.023-.059-.066-.086-.062-.131.018-.282.014-.388.08-.435.272-.914.405-1.402.524a3.711 3.711 0 01-1.208.114c-.038-.003-.075-.013-.12-.02.002-.106.074-.118.14-.142.505-.181 1.012-.356 1.511-.55.436-.023.871-.051 1.306-.09a28.93 28.93 0 003.831-.59c1.262-.295 2.519-.674 3.717-1.217.6-.27 1.187-.575 1.751-.928.221-.136.437-.283.65-.435l1.078-.133c.016 0 .03-.004.046-.007-.267.227-.54.447-.82.657m-13.635 3.43c.023-.004.05.024.111.056-.808.428-1.625.52-2.475.39l-.006-.086c.79-.12 1.58-.242 2.37-.36m-4.069-.007c.317.092.632.058.948.006.471-.079.944-.148 1.413-.238a8.352 8.352 0 001.464-.41c.524.012 1.048.01 1.573-.005a6.827 6.827 0 01-1.754.45c-.346.036-.684.15-1.028.211-.846.15-1.695.288-2.558.16-.086-.014-.171-.037-.256-.059-.02-.005-.035-.025-.055-.04.062-.118.166-.1.253-.075m-1.739-.635c.063.01.13.011.189.033.346.132.697.131 1.057.068a57 57 0 011.745-.274c.816-.114 1.602-.342 2.376-.617h.001c.273-.012.544-.025.816-.041-.25.364-.61.565-1.021.695-.363.114-.73.214-1.096.322-.543.16-1.098.183-1.657.154a5.057 5.057 0 00-1.281.095c-.445.09-.825-.051-1.147-.356l.018-.079m-1.08-1.238c-.013-.003-.021-.023-.052-.058.08-.043.148-.09.225-.12.252-.098.514-.173.758-.288.192-.09.388-.2.536-.35.151-.153.327-.194.474-.113.412.225.855.17 1.287.19.332.014.667-.03 1-.045.254-.011.507-.013.743-.132a.41.41 0 01.188-.028c.574.011 1.118-.145 1.663-.294.154-.042.306-.088.46-.127.068-.016.138-.018.212-.027.11.21.145.422.14.636a36.823 36.823 0 01-4.117.52 38.67 38.67 0 003.469-.222c.21-.023.422-.05.632-.077-.036.295-.13.569-.28.826-.225.028-.45.053-.674.077.054-.022.108-.043.16-.069.063-.03.11-.094.174-.152-.119-.108-.229-.082-.333-.048-.341.109-.685.212-1.02.338-.608.229-1.238.349-1.878.434-.323.043-.644.107-.966.158-.508.082-1.016.058-1.523-.016a.769.769 0 01-.116-.026c-.013-.004-.023-.02-.044-.039.035-.186.19-.238.341-.271.123-.027.253-.023.38-.027a8.49 8.49 0 002.524-.48 1.59 1.59 0 00.176-.073c.02-.01.034-.031.067-.063-.084-.056-.164-.042-.245-.028l-.707.116c-.133.02-.267.05-.401.054-.433.012-.853.09-1.271.199-.221.057-.451.093-.71.015.039-.055.06-.107.097-.134.233-.168.47-.33.704-.497.081-.058.155-.124.277-.222-.111-.017-.169-.046-.209-.03-.243.097-.501.173-.72.312-.453.288-.924.309-1.421.18m7.412 2.593c-.174-.02-.35-.026-.524-.047-.082-.01-.162-.044-.232-.063-.017-.12.05-.14.112-.149.295-.044.585-.11.88-.15.644 0 1.288-.012 1.93-.04a9.356 9.356 0 01-1.135.195c-.202.022-.399.105-.591.178a.9.9 0 01-.44.076M44.6 32.38c.301-.071.604-.139.905-.207a13.2 13.2 0 01-.754.817 15.92 15.92 0 01-1.736 1.502 16.64 16.64 0 01-1.94 1.238c-.344.169-.68.36-1.036.505l-.529.233-.539.203c-.725.259-1.47.475-2.227.647-.756.179-1.522.32-2.292.44-1.54.241-3.097.395-4.658.467a43 43 0 004.69-.216c.78-.079 1.56-.18 2.334-.32a19.717 19.717 0 002.309-.538l.57-.18.556-.215c.376-.133.732-.313 1.098-.473a17.365 17.365 0 002.08-1.191c.663-.45 1.3-.945 1.895-1.489.598-.552 1.15-1.116 1.66-1.81l-.086-.058c.145-.073.286-.152.42-.242.164.028.217.135.183.265a3.573 3.573 0 01-.205.612c-.397.845-1.038 1.47-1.782 2.007-.557.402-1.099.826-1.647 1.242a7.203 7.203 0 01-1.75.975.937.937 0 00-.309.199c-.114.107-.29.167-.448.203a1.672 1.672 0 00-.691.301 2.537 2.537 0 01-.516.3c-.595.267-1.195.523-1.792.782-.187.081-.371.137-.577.05-.066-.029-.156-.013-.233 0-.392.066-.781.157-1.176.2-.307.032-2.104.347-2.436.28a19.919 19.919 0 01-3.252.102c-.042-.002-.108.067-.162.062-.253-.02-.506-.05-.758-.085a1.302 1.302 0 01-.298-.08c-.183-.074-.295-.188-.292-.416.005-.433-.061-.42.397-.576.18-.061.372-.087.558-.13.465-.109.93-.217 1.393-.328a.713.713 0 00.177-.071l.017-.01c.49-.033.979-.07 1.467-.12.78-.079 1.56-.18 2.334-.32a19.704 19.704 0 002.309-.538l.57-.18.556-.214c.376-.134.732-.314 1.098-.473a17.341 17.341 0 002.08-1.192c.664-.45 1.3-.944 1.895-1.488.158-.146.313-.294.465-.444.035-.01.07-.02.105-.028m-28.482-.889c.052-.018.093-.063.14-.097l-.016-.046a36.65 36.65 0 002.286-.063c-.155.112-.32.21-.504.284-.25.1-.516.157-.778.22-.156.038-.314.055-.406.218.072.162.218.173.346.155.595-.086 1.176-.216 1.66-.611.134-.108.271-.21.406-.315l.295-.02a31.216 31.216 0 003.456-.469 21.761 21.761 0 003.379-.953 13.333 13.333 0 001.627-.723 8.76 8.76 0 00.482-.28c.148.065.298.127.444.195.057.026.112.057.166.088l.067.039a7.72 7.72 0 01-.33.219c-.475.299-.982.558-1.5.796-.518.239-1.054.448-1.593.643-.541.183-1.09.35-1.649.487a31.08 31.08 0 01-3.396.642 38.493 38.493 0 01-3.454.314c1.158.012 2.316-.04 3.473-.133a31.285 31.285 0 003.455-.468 21.803 21.803 0 003.38-.954 13.35 13.35 0 001.627-.722c.236-.126.467-.265.695-.417l.428.246c.04.024.085.045.12.077l.045.04a7.926 7.926 0 01-.46.315c-.474.298-.981.558-1.5.795-.517.24-1.053.449-1.592.644-.541.183-1.09.35-1.649.487-1.115.28-2.252.487-3.397.641a38.493 38.493 0 01-3.453.315c1.157.011 2.316-.04 3.473-.134a31.284 31.284 0 003.455-.468 21.833 21.833 0 003.38-.953 13.377 13.377 0 001.627-.723c.217-.115.43-.244.641-.382-.018.192.084.335.295.38.085.017.174.017.263.015a6.866 6.866 0 01-.372.248c-.474.299-.98.558-1.5.796a19.76 19.76 0 01-1.591.643c-.542.183-1.09.35-1.65.487a30.8 30.8 0 01-3.396.642c-.26.035-.52.067-.78.097-.228-.08-.454-.165-.681-.244-.211-.075-.257-.04-.28.202.068.044.14.083.212.121-.64.062-1.281.111-1.925.138.702.008 1.403-.011 2.104-.046.25.12.506.233.74.395a.554.554 0 01-.324.291 11.15 11.15 0 01-.728.229c-.21.056-.416.114-.573.278-.072.076-.162.11-.261.083a86.72 86.72 0 01-1.174-.327c-.018-.005-.03-.033-.056-.062l.89-.265c.167-.05.336-.096.502-.153a.587.587 0 00.207-.111c.03-.028.042-.111.023-.15-.016-.032-.095-.057-.136-.047a4.23 4.23 0 00-.453.15c-.571.224-1.166.315-1.775.338a1.08 1.08 0 01-.142-.006c-.014-.002-.027-.015-.054-.03.402-.196.738-.499 1.188-.592.172-.035.33-.155.484-.252.068-.043.113-.124.176-.198-.118-.066-.197-.027-.29.006a55.44 55.44 0 01-1.916.661c-.193.062-.408.057-.613.068-.104.005-.21-.024-.224-.193l1.097-.39a.552.552 0 00-.537-.078c-.271.091-.553.151-.831.218-.165.039-.332.055-.486-.046-.129-.084-.137-.168-.022-.265.043-.036.092-.065.137-.098.207-.156.212-.404-.007-.552a1.046 1.046 0 00-.352-.136c-.194-.044-.393-.066-.59-.101-.053-.01-.104-.032-.195-.06.326-.21.66-.167.989-.182.064-.13.009-.213-.106-.24a.95.95 0 00-.33-.014c-.418.052-.837.108-1.253.174-.281.045-.512-.051-.754-.234.061-.032.102-.068.148-.076.5-.094 1.003-.18 1.502-.279.178-.036.351-.101.524-.162m-5.183-1.313c.025.021.05.043.078.064-.03.05-.043.079-.062.103a.732.732 0 00-.124.215c-.043-.116-.005-.23.108-.382m4.698 2.883l.038-.017.15.05-.001.072c-.062.028-.124.058-.187.085a.34.34 0 00-.156.123c-.07-.12-.016-.237.156-.313m6.028 3.138c.041-.063.08-.126.12-.19l.067.02c-.016.057-.018.09-.034.116-.048.083-.1.164-.153.244a.546.546 0 00-.065.131c-.036-.094-.015-.2.065-.32m6.762 2.413c.063-.05.14-.083.195-.14a.357.357 0 00.06-.083c.05.068.037.173-.06.273-.055.057-.132.09-.195.14a.455.455 0 00-.064.059c-.085-.067-.063-.151.064-.25M15.513 8.93c-.078-.123-.137-.252-.098-.426.066.002.127-.002.186.007.22.034.44.075.66.106.073.01.148-.002.223-.004.014-.162-.052-.262-.116-.364-.18-.284-.374-.561-.534-.857-.325-.602-.468-1.261-.552-1.937-.104-.838-.21-1.677-.328-2.514-.043-.31-.12-.616-.181-.924-.016-.077-.026-.155-.04-.242.226-.038.625.054.646-.001.357-.103.708-.207 1.06-.304.138-.038.28-.064.42-.089.233-.04.47-.036.7-.124.268-.102.55-.04.822.037.09.026.185.042.279.053.577.066 1.154.129 1.731.193l.332.036.2-.637c.037-.12.114-.175.238-.203.346-.079.689-.108 1.04-.036.664.136 1.335.24 1.994.393.393.092.771.254 1.156.382.103.034.211.116.313.017.106-.104.129-.235.079-.38-.021-.059-.028-.123-.042-.189.155-.131.337-.168.496-.086.316.162.635.081.932.01a1.202 1.202 0 011.078.23c.332.257.704.396 1.093.518.341.106.676.232 1.013.352.156.055.307.122.464.172.098.032.177-.026.216-.11.116-.255.324-.269.562-.256.436.024.784.246 1.129.482.441.302.876.614 1.324.906.378.246.816.355 1.24.49.106.033.18.002.226-.112.055-.138.128-.269.21-.435.231-.013.495-.016.734.105.362.185.717.385 1.07.586.45.253.832.593 1.178.975.169.186.341.358.593.43a.204.204 0 01.117.126c.04.156.154.21.295.266.175-.203.145-.493.3-.697.027-.002.053-.01.073-.004.855.29 1.636.71 2.292 1.348.333.323.679.633 1.006.962.257.26.393.6.561.92.137.26.315.502.496.734.136.176.401.182.572.047.067-.054.137-.103.207-.156l-.135-.173c.11-.046.189-.005.264.035.298.157.565.353.802.599.505.526.894 1.13 1.22 1.78.114.23.247.45.355.683.162.353.239.73.273 1.119.011.132.06.265.108.39.038.096.12.14.232.132.137-.01.277-.007.429-.01-.011-.115-.036-.203-.022-.284.012-.072.067-.137.106-.212.149.044.2.161.26.257.301.475.61.945.885 1.434.144.256.239.543.332.825.188.563.373 1.129.532 1.701.081.293.106.601.151.903a.392.392 0 01-.159.382c-.049.039-.1.075-.165.123l.375.528.187-.09c-.07-.237.126-.342.217-.506.25.044.333.231.376.427.085.384.141.773.069 1.172-.04.22-.06.447-.077.671-.017.227.033.433.217.587a.452.452 0 01.165.36c0 .24.018.484-.167.678-.022.025-.02.073-.031.11-.023.083-.049.166-.07.25-.012.045-.035.098-.021.136.057.163.024.321-.019.475-.073.263-.164.52-.24.782-.025.09-.02.188-.04.28-.12.54-.689 1.828-1.032 2.336l-1.402-1.544c-.19-.207-.375-.418-.564-.624-.064-.07-.105-.136-.07-.236.296-.84.374-1.727.548-2.594a6.465 6.465 0 00-.05-2.824c-.288-1.188-.604-2.37-1.063-3.504-.156-.385-.37-.747-.56-1.119a10.02 10.02 0 00-1.705-2.407 2.288 2.288 0 00-.365-.307c-.08-.054-.187-.068-.281-.1l-.058.06c.027.068.04.146.083.203.17.233.345.463.523.689.313.396.65.776.94 1.188.202.286.343.615.512.925.053.098.095.209.168.288.213.232.33.509.425.802.047.145.11.285.165.426.023.06.056.117.07.18.122.49.24.982.356 1.474.017.07.014.144.028.214.009.045.021.106.052.124.113.066.128.174.153.285.27 1.238.259 2.48.018 3.718-.11.567-.27 1.124-.409 1.685-.012.052-.04.1-.065.164l-4.986-4.215c.009-.045.022-.13.043-.213.104-.422.222-.84.312-1.265.115-.54.062-1.091.045-1.638-.015-.49-.046-.98-.08-1.47-.01-.167-.06-.33-.076-.497-.013-.126-.002-.255.005-.383a.662.662 0 00-.045-.325c-.067-.151-.076-.327-.12-.49-.171-.652-.468-1.247-.83-1.81-.183-.283-.381-.556-.559-.842-.087-.141-.145-.302-.215-.454-.098-.21-.18-.431-.297-.63-.24-.41-.493-.81-.752-1.206-.091-.139-.217-.254-.323-.385-.07-.086-.144-.174-.196-.271-.195-.362-.456-.626-.867-.739a2.58 2.58 0 01-.624-.293c-.254-.152-.495-.122-.756-.023.016.142.11.185.204.224.192.078.385.153.578.23.421.166.77.437 1.112.733.386.337.619.77.857 1.206.123.226.258.445.392.664.197.32.39.64.523.999.122.327.326.624.492.934.113.213.223.426.335.64.073.14.66 1.76.725 2.108.048.26.059.527.083.791.008.088-.008.18.01.265.159.724-.002 1.424-.137 2.128-.089.466-.175.933-.263 1.4l-.045.235c-.243-.12-.25-.129-.277-.346-.174.015-.305-.075-.441-.18a402.737 402.737 0 00-3.035-2.309.556.556 0 01-.204-.307c-.218-.7-.288-1.43-.443-2.144-.018-.086-.048-.169-.07-.255-.03-.132-.073-.264-.086-.4-.087-.913-.225-1.818-.494-2.697-.053-.174-.145-.335-.217-.503-.032-.074-.07-.148-.083-.226-.05-.317-.21-.592-.36-.862a31.957 31.957 0 00-1.006-1.697 10.024 10.024 0 00-1.701-1.985c-.27-.247-.613-.37-.98-.407-.161-.016-.208.021-.232.168-.022.128.025.19.191.21.316.04.57.195.8.402a9.277 9.277 0 011.505 1.775c.456.69.864 1.406 1.177 2.173.15.367.311.735.32 1.152.003.186.095.372.15.556.14.461.283.921.42 1.383.06.2.129.399.16.603.06.38.088.766.144 1.148.018.13.09.253.122.383.027.106.064.224.042.323-.033.151.034.328-.118.473-.132-.097-.267-.193-.398-.293-1.237-.936-2.469-1.88-3.712-2.806-.29-.216-.396-.503-.4-.83-.008-1.001-.214-1.966-.476-2.922a12.09 12.09 0 00-.967-2.462c-.172-.326-.3-.683-.512-.98-.293-.409-.644-.776-.973-1.158-.118-.139-.276-.244-.323-.439-.012-.044-.073-.082-.118-.112-.263-.174-.528-.346-.775-.507l.032.086c-.115-.047-.211-.09-.31-.125-.344-.123-.69-.244-1.034-.365-.098-.035-.178-.001-.224.085-.05.095.027.159.09.197.1.063.212.142.321.146.581.02 1.03.309 1.427.698.303.297.588.613.881.92a5.829 5.829 0 011.156 1.762c.298.701.61 1.399.813 2.137.088.324.166.657.193.991.047.573.207 1.123.29 1.687l.04.29c-.093-.03-.157-.037-.204-.069-.066-.045-.114-.047-.193-.025-.068.018-.165-.03-.235-.072-.59-.35-1.178-.705-1.764-1.064-.156-.095-.298-.212-.45-.315a1.369 1.369 0 00-.226-.132c-.384-.164-.725-.398-1.067-.635-.195-.135-.422-.22-.622-.348-.274-.175-.576-.303-.82-.533-.116-.109-.292-.153-.442-.223-.134-.062-.174-.158-.164-.308.04-.629.033-1.256-.12-1.873-.012-.054-.484-1.437-.72-1.66-.456-.427-.903-.863-1.36-1.289a2.076 2.076 0 00-.386-.281 6.355 6.355 0 01-.632-.426c-.232-.17-.502-.31-.817-.262-.095.015-.19.02-.326.033.07.05.109.084.152.107.336.183.671.367 1.01.545.133.069.275.12.409.186a.75.75 0 01.195.131c.249.249.484.51.737.753a4.585 4.585 0 011.268 2.15c.026.097.012.204.025.305.016.119.042.237.06.355.032.205.065.41.09.616.005.045-.017.094-.032.139-.01.03-.05.06-.045.082.074.316-.048.122-.143.387-.21-.004-.352-.148-.515-.237-.357-.193-8.826-4.995-9.18-5.195-.085-.067-.176-.136-.306-.115-.065.157.031.253.12.339.369.355.749.694 1.185.97.749.471 1.488.959 2.23 1.442.047.031.079.087.137.154-.328.097-.612.168-.879-.08a.39.39 0 00-.237-.092c-.545-.016-1.017-.233-1.468-.518a17.271 17.271 0 00-.74-.44c-.042-.023-.13-.034-.147-.012a.218.218 0 00-.035.168.612.612 0 00.33.42c.525.253 1.048.508 1.574.756.631.297 1.281.423 1.97.22a.812.812 0 01.627.08c.293.161.582.33.87.502.245.148.475.325.73.455.131.066.264.13.396.194.999.584 1.873 1.096 1.941 1.14l2.202 1.401c.032.02.055.054.101.1-.172.202-.377.35-.577.504-.687.532-1.484.682-2.32.662a17.051 17.051 0 01-1.524-.121c-.704-.08-1.404-.197-2.108-.276a3.125 3.125 0 01-1.578-.63 3.958 3.958 0 00-.398-.266c-.079-.045-.17-.067-.249-.097-.092.126-.02.191.045.248.632.56 1.347.932 2.194 1.033 1.053.126 2.102.275 3.153.414.635.085 1.269.111 1.897-.058a3.47 3.47 0 001.255-.623c.195-.153.408-.281.61-.426.09-.065.157-.035.236.02.322.221.646.441.972.657.586.388 1.174.772 1.76 1.16.652.432 1.303.867 1.953 1.302.011.007.014.027.035.066-.052.025-.102.06-.157.073-.286.067-.585.099-.86.2-1.214.444-2.464.485-3.725.342a70.27 70.27 0 01-3.528-.474c-.903-.149-1.806-.334-2.666-.659-.594-.225-1.16-.525-1.737-.795-.246-.115-.485-.242-.73-.358-.075-.036-.157-.055-.237-.082l-.038.046c.026.048.045.104.08.144.254.293.576.49.934.609.668.222 1.304.516 1.947.798.67.294 1.378.446 2.094.571.58.101 1.16.213 1.741.31 1.059.18 2.118.351 3.195.387.739.025 1.46-.08 2.182-.208.533-.094 1.07-.17 1.603-.258a1.19 1.19 0 00.321-.086c.18-.085.343-.055.452.091.302.405.738.643 1.136.908.414.275.748.642 1.163.91.2.128.388.282.574.432.123.101.257.2.345.33.13.192.312.31.494.437.249.174.49.359.733.54.017.014.024.04.05.085-.36.142-.634-.008-.89-.224-.085.02-.184.005-.195.136-.002.025-.053.055-.087.067-.332.11-.663.22-.998.32-.16.048-.326.07-.489.107-.255.056-.51.114-.766.172-.117.025-.233.056-.35.074-.29.045-.578.082-.861.182-.331.116-.682.083-1.012-.032-.319-.111-.635-.12-.965-.084-.253.028-.509.015-.763.03-.197.01-.394.028-.59.054-.385.05-.714-.005-.97-.358-.276-.383-.601-.73-.9-1.097-.23-.283-.543-.41-.88-.497-.032-.008-.072.014-.11.022-.013.155.094.212.191.257.606.277.973.789 1.299 1.34.022.039.026.087.047.165-.124-.01-.226-.008-.322-.03-.583-.13-1.163-.275-1.747-.4-.366-.077-.738-.124-1.106-.193a20.183 20.183 0 01-1.004-.209c-.286-.069-.565-.17-.852-.237-.428-.1-.795-.322-1.15-.566-.257-.175-.491-.384-.748-.559-.161-.11-.33-.222-.541-.25-.053.087-.025.159.024.224.106.141.207.288.328.415.08.085.186.147.287.207.268.158.545.299.807.465.457.291.938.505 1.483.557.172.017.342.07.511.113.572.143 1.143.29 1.714.434.062.015.125.031.188.032.683.008 1.333.217 1.995.344.588.113 1.172.236 1.773.252.19.005.38.05.569.038 1.033-.064 2.073.05 3.101-.127.455-.078.91-.155 1.368-.21.19-.024.374-.045.554-.122a.986.986 0 01.347-.07c.18-.007.363.042.536-.055.036-.02.097-.014.14-.002.31.089.603.017.88-.113a.78.78 0 01.556-.047c.306.08.576.209.814.43.28.262.595.486.896.724.707.561 1.421 1.114 2.122 1.684.214.175.42.36.625.549a1.221 1.221 0 01-.175.171 2.59 2.59 0 01-.318.22 5.586 5.586 0 01-.732.359c-.515.207-1.059.362-1.609.495-.55.136-1.109.246-1.672.329-.564.077-1.133.135-1.706.125.569.073 1.146.078 1.722.062a17.75 17.75 0 001.725-.146 11.933 11.933 0 001.712-.367c.283-.089.565-.19.842-.325.139-.069.277-.142.411-.236.068-.046.135-.095.202-.154.025-.022.051-.048.077-.075.11.133.258.324.307.34.05.015.11.083.116.133.005.043-.052.111-.099.137a4.173 4.173 0 01-.41.193c-.542.226-1.079.467-1.63.666a4.971 4.971 0 01-.977.219c-1.034.15-2.073.255-3.118.21-.58-.024-1.16-.097-1.74-.136-.213-.015-.35-.12-.466-.29a28.948 28.948 0 00-.754-1.057c-.48-.633-1.15-.988-1.884-1.208-.502-.151-1.023-.234-1.536-.345-.043-.01-.09 0-.155.003.058.159.177.203.295.236.253.071.507.139.763.197a3.84 3.84 0 011.82.955c.22.208.395.463.578.706.115.153.209.323.309.488.022.037.03.084.053.157-.085-.004-.147.003-.204-.012-.478-.118-.962-.223-1.434-.366-1.342-.406-2.679-.827-4.016-1.245-.906-.282-1.817-.547-2.71-.864-.327-.115-.646-.116-1.009-.16.082.151.173.252.294.307.273.127.55.249.834.354.251.093.508.151.749.295.233.14.521.2.793.251.889.167 1.737.475 2.595.747.98.31 1.95.65 2.933.95.763.233 1.542.397 2.35.364.126-.004.255.013.38.035.742.133 1.49.13 2.24.113.845-.018 1.687-.065 2.514-.259.24-.056.475-.13.712-.195.414-.112.847-.147 1.242-.334.348-.163.687-.336.99-.576.13-.102.274-.184.434-.29-.047-.064-.085-.132-.139-.185-.407-.397-.817-.79-1.226-1.186-.887-.859-1.89-1.578-2.835-2.367-.638-.533-1.307-1.027-1.956-1.547-.692-.555-1.378-1.118-2.066-1.68-.266-.216-.529-.439-.795-.655-.062-.05-.135-.084-.201-.129-.073-.049-.164-.087-.21-.155-.154-.226-.376-.366-.587-.522-.301-.224-.596-.456-.899-.678-.218-.16-.464-.288-.664-.467-.451-.404-.972-.7-1.473-1.025-.67-.435-1.349-.854-2.012-1.298-.856-.573-1.7-1.163-2.55-1.746a9.882 9.882 0 01-.35-.25c-.034-.024-.055-.065-.056-.131.096.062.192.126.29.186 1.163.702 2.328 1.398 3.486 2.107.422.258.824.549 1.24.817.341.22.69.43 1.035.645.054.034.111.063.16.104.344.287.711.54 1.08.794.408.28.787.602 1.181.9.12.092.252.165.376.251.085.06.166.125.247.19.29.238.57.488.87.714.523.395 1.059.77 1.584 1.162l1.008.757c.332.25.665.498 1 .745.308.228.624.446.928.68.216.164.416.349.625.522.523.435 1.047.868 1.57 1.301.875.724 1.762 1.432 2.569 2.237.395.395 2.735 2.702 3.196 3.215.122.137.265.256.389.392.238.26.476.52.7.79.18.22.375.417.619.563.013.008.029.014.04.025.135.126.36.212.305.441-.058.24-.408.421-.65.38-.087-.015-.172-.038-.257-.057a.575.575 0 00-.616.22c-.306.386-.704.645-1.133.868-.219.113-.424.254-.645.364-.177.088-.367.15-.553.218-.517.188-1.031.382-1.552.555-.062.02-.125.035-.188.052l-.138-.093-.107.155a7.55 7.55 0 01-.31.06 77.05 77.05 0 01-2.028.324c-.507.073-1.012.093-1.515-.064a1.372 1.372 0 00-.848.02c-.577.191-1.132.07-1.683-.117-.013-.004-.02-.022-.052-.058.042-.07.092-.148.138-.228.067-.118.044-.18-.082-.212-.053-.013-.11-.013-.166-.018-.61-.056-1.221-.116-1.833-.166-.164-.014-.88-.119-.973-.138-.64-.129-1.296-.178-1.917-.398-.186-.066-.372-.133-.549-.266.046-.11.092-.21.13-.313.109-.286.04-.456-.24-.581a3.24 3.24 0 00-.887-.276c-.695-.097-1.331-.375-1.958-.677-.517-.25-1.034-.497-1.548-.754a1.518 1.518 0 01-.564-.436c-.075-.1-.1-.198-.042-.313a.884.884 0 00.064-.156c.06-.208-.01-.428-.194-.522-.376-.191-.762-.36-1.143-.543a8.215 8.215 0 01-.573-.294 11.81 11.81 0 01-.71-.444c-.184-.125-.357-.267-.532-.406-.355-.284-.71-.569-1.062-.858-.065-.054-.114-.128-.194-.22.114-.067.2-.117.285-.169.144-.086.163-.139.11-.296a.917.917 0 00-.373-.486c-.38-.249-.777-.476-1.093-.814-.091-.098-.163-.216-.256-.313-.116-.12-.248-.226-.367-.344-.438-.434-.874-.87-1.309-1.307-.037-.038-.06-.09-.104-.159.075-.025.13-.053.187-.062.134-.02.272-.019.403-.05.121-.03.247-.071.35-.139.18-.117.198-.265.049-.422-.114-.12-.252-.218-.381-.324-.222-.183-.46-.348-.665-.548-.396-.385-.749-.82-1.167-1.176-.43-.365-.675-.847-.966-1.304a7.184 7.184 0 01-.211-.35 2.537 2.537 0 01-.149-.303c-.072-.183-.021-.3.174-.287.039.003.079-.006.118-.014.225-.045.358-.208.312-.431a1.304 1.304 0 00-.18-.438c-.1-.154-.231-.287-.356-.423-.511-.557-.944-1.174-1.35-1.812-.362-.568-.717-1.14-1.074-1.712m37.06 14.008c.278-.65.383-1.299-.003-1.943a1.008 1.008 0 01-.129-.53 106.09 106.09 0 00-.022-1.377 2.843 2.843 0 00-.478-1.52c-.094-.143-.222-.23-.396-.23-.047 0-.095.016-.14.024-.035-.1-.062-.157-.076-.217-.094-.408-.194-.814-.275-1.224-.097-.492-.227-.968-.468-1.411-.245-.45-.477-.91-.716-1.364-.149-.284-.294-.57-.454-.848-.13-.225-.256-.27-.5-.203-.085.022-.167.055-.25.08-.144.041-.18.017-.211-.136-.006-.031-.006-.064-.01-.096a3.616 3.616 0 00-.578-1.519c-.492-.74-1.113-1.37-1.769-1.958-.324-.292-.7-.527-1.055-.782-.126-.09-.186-.067-.273.067-.049.076-.1.15-.166.25l-.115-.167c-.163-.247-.313-.506-.493-.74-.411-.538-.906-.997-1.409-1.443a3.344 3.344 0 00-.768-.526c-.642-.305-1.254-.662-1.868-1.017-.1-.058-.213-.096-.35-.157-.025.098-.05.162-.058.228-.02.176-.03.353-.05.53-.006.05-.032.097-.062.189-1.194-1.41-2.607-2.365-4.475-2.576-.005.143-.013.252-.013.362 0 .182-.047.229-.229.21-.217-.023-.386-.132-.532-.292a1.84 1.84 0 00-.3-.272c-.914-.643-1.943-1.023-3.003-1.328a.636.636 0 00-.302.004c-.195.044-.22.098-.164.292.024.081.08.16-.007.256-.095-.044-.188-.085-.28-.13C29.181.972 28.207.6 27.178.392a8.793 8.793 0 00-1.804-.174c-.23.002-.251.023-.302.252l-.058.268c-.043.01-.068.025-.089.02-.123-.027-.248-.054-.37-.091-.98-.306-1.977-.494-3.007-.496-.397-.001-.795-.042-1.192-.05-.317-.007-.417.15-.273.478.02.042.06.074.087.114.025.037.045.078.092.164-.126-.013-.212-.007-.289-.03-.597-.181-1.208-.19-1.824-.16-.852.041-1.7.105-2.496.46-.403.18-.828.223-1.263.154a1.878 1.878 0 00-.238-.022c-.14-.004-.181.044-.142.17.031.1.068.2.118.29.144.257.219.534.255.823.098.783.193 1.565.287 2.348.039.32.067.64.177.946.07.197.115.402.181.6.081.242.166.485.26.722.103.258.218.51.345.806l-.28-.012c-.119-.007-.24-.034-.355-.017-.206.03-.267.159-.177.349.316.666.636 1.331.953 1.997.026.054.041.113.076.21-1.011-.001-1.982.06-2.922.48l.213.468c-.178.079-.352.086-.526.085-.438-.003-.877.004-1.314-.021a4.552 4.552 0 00-2.204.42c-.272.125-.298.159-.263.455.02.168.002.196-.156.237a1.456 1.456 0 01-.188.032c-.443.051-.885.107-1.33.15-.743.074-1.441.324-2.137.577-.33.12-.414.386-.255.702.04.078.104.143.152.216.037.057.066.118.11.196-.132.05-.233.1-.339.128-.39.105-.744.28-1.063.53-.265.206-.535.406-.792.623-.305.258-.594.536-.897.798-.255.22-.526.428-.857.51-.292.074-.55.211-.8.369-.408.256-.321.392-.068.643.221.217.434.454.599.716.318.51.601 1.042.898 1.565.075.132.143.269.22.4a7.05 7.05 0 001.079 1.36c-.113.061-.216.118-.318.17-.073.036-.154.061-.145.165.018.19.058.37.145.535.046.195.125.374.277.528.201.204.378.433.568.648.095.107.184.223.295.31.396.31.801.61 1.203.913.496.374 1.006.722 1.607.9-.12.05-.205.081-.286.12-.213.104-.282.291-.169.499.069.125.155.244.252.349.244.264.508.51.746.78.13.145.26.277.432.371.196.108.387.225.574.346.154.1.294.22.45.316.57.351 1.145.696 1.716 1.046.064.04.117.097.178.149-.031.049-.046.077-.066.1-.212.246-.212.392.008.624.054.057.12.105.185.151.135.099.28.185.41.29.685.553 1.45.96 2.265 1.273.482.186.98.332 1.47.498.134.045.263.1.394.15l-.005.071-.191.077c-.235.09-.262.265-.064.43.08.067.16.135.247.19.342.222.687.438 1.03.657.282.18.55.394.85.534a21.14 21.14 0 001.722.716c.683.248 1.4.369 2.115.498.057.01.111.034.174.056-.019.055-.023.088-.04.114-.052.08-.108.158-.164.235-.148.202-.124.366.079.514a.878.878 0 00.164.097c.528.226 1.046.48 1.587.666a16.65 16.65 0 004.197.886c.245.018.49.06.733.097.189.028.243.201.078.355-.057.054-.135.083-.2.13-.173.12-.166.224.028.307.242.103.487.199.734.29.096.034.2.052.302.068.346.057.691.117 1.039.16.426.053.853.115 1.282.126 1.393.037 2.786.055 4.18.072a5.253 5.253 0 001.74-.254c5.166-1.147 7.543-2.993 8.155-3.497 2.053-1.506 3.087-3.43 3.249-3.88.084-.234.166-.47.262-.699.108-.254.19-.51.193-.79 0-.075.025-.175.075-.22.286-.255.567-.527.995-.505a.765.765 0 00.55-.2c.12-.105.228-.224.346-.332.129-.117.148-.262.113-.42-.017-.076-.056-.15-.086-.223-.112-.283-.077-.404.126-.63a3.16 3.16 0 00.417-.555c.24-.434.453-.884.683-1.324.1-.192.141-.39.12-.605a2.153 2.153 0 01.12-.927c.073-.212.164-.418.262-.62.306-.628.441-1.265.1-1.92.024-.063.049-.126.075-.187"/><path d="M30.127 24.522c.032.025.07.048.09.083.136.258.359.392.567.55.368.28.745.524 1.197.57.116.01.23.051.342.09.469.17.95.28 1.43.4.447.112.884.289 1.32.456.229.087.273.248.142.48a.69.69 0 01-.249.268 1.018 1.018 0 01-.448.126c-.366.003-.732-.027-1.097-.05-.123-.007-.246-.032-.395-.053.04.295.06.341.234.364.434.056.868.11 1.304.139a.904.904 0 00.696-.264 5.42 5.42 0 00.467-.49c.115-.138.229-.192.393-.146.379.107.761.194 1.14.3.606.17 1.21.354 1.834.409.218.02.436.044.651.086 1.19.23 2.382.209 3.562-.042.895-.19 1.779-.455 2.664-.708a2.728 2.728 0 001.499-1.038c.022-.031.063-.045.097-.068.033.028.064.043.082.07.283.441.688.758.942 1.23.032.06.08.111.126.16.072.076.154.12.283.05-.014-.084-.01-.186-.047-.264a1.721 1.721 0 00-.217-.348 256.87 256.87 0 00-1.316-1.614 58.745 58.745 0 00-.78-.933c-.17-.198-.386-.274-.666-.335.049.107.063.167.096.207.143.167.288.332.433.497a.827.827 0 00-.02.033c-.024.034-.048.071-.079.106a1.793 1.793 0 01-.198.208 3.247 3.247 0 01-.48.362 6.477 6.477 0 01-1.1.544c-.77.307-1.578.478-2.393.577-.816.097-1.643.115-2.467.067a15.291 15.291 0 01-2.463-.331c.804.235 1.626.387 2.452.49.827.1 1.663.137 2.498.092.836-.043 1.67-.187 2.494-.407a6.752 6.752 0 001.223-.462c.2-.1.398-.219.59-.364a2.345 2.345 0 00.412-.392l.086.094c.102.12.1.18-.01.29-.118.12-.244.226-.364.342-.37.358-.794.603-1.258.747-.564.176-1.13.342-1.698.5a.551.551 0 01-.32-.009.386.386 0 00-.38.058.712.712 0 01-.51.145c-.062-.004-.124.014-.186.018-.217.017-.434.047-.65.045-.289-.002-.577-.04-.865-.047a13.334 13.334 0 01-3.563-.541 63.75 63.75 0 01-2.162-.697c-.366-.124-.722-.286-1.085-.418a1.942 1.942 0 00-.523-.133c-.733-.048-1.43-.261-2.103-.59-.289-.142-.558-.319-.763-.607-.068-.097-.15-.181-.231-.266-.109-.114-.237-.083-.335.074-.083.133-.072.174.075.29M19.735 14.51c1.068.512 2.124 1.054 3.297 1.275.26.05.516.113.773.171.056.013.11.03.166.044l.029-.088c-.063-.045-.12-.108-.191-.133-.35-.13-.697-.27-1.055-.367-.673-.183-1.35-.349-1.987-.65-.511-.244-1.027-.48-1.539-.722-.074-.036-.142-.083-.228.037.076.06.143.129.222.173.168.093.34.176.513.26m15.368 1.553c-.02-.022-.037-.047-.06-.065a.455.455 0 00-.078-.051c-.018-.01-.038-.017-.058-.025l-.01.024.192.132a.72.72 0 01.014-.015m-27.815-.821c-.132.025-.274.048-.364.22.093.024.169.05.246.062.348.047.696.097 1.014.254.096.047.191.102.274.17.106.085.088.194-.035.251a.412.412 0 01-.134.035c-.363.04-.725.092-1.09.11-.318.016-.638-.01-.957-.013-.08 0-.16.018-.242.028.045.196.045.197.23.21.474.031.948.071 1.423.09.2.008.405-.012.601-.052a6.38 6.38 0 00.785-.218c.183-.063.326-.023.478.075.615.4 1.23.8 1.777 1.284.431.38.832.794 1.243 1.196.047.045.078.106.119.162-.098.106-.213.098-.315.085-.422-.057-.856-.028-1.262-.198-.146-.062-.313-.07-.46.05-.041.035-.147.047-.192.02-.17-.103-.347-.063-.521-.045-.248.025-.493.064-.797.105.066.056.098.104.14.114.097.024.198.037.299.041.17.007.344-.013.513.007 1.562.18 3.14.16 4.7.37.633.086 1.267.16 1.888.306.068.016.137.035.206.039.046.002.093-.021.145-.035a.396.396 0 00-.311-.242c-.29-.057-.577-.124-.865-.189a.491.491 0 01-.108-.038c-.101-.05-.201-.102-.302-.153l-.006.058c-.085.025-.174.077-.256.069a33.28 33.28 0 01-1.344-.168 1.124 1.124 0 01-.35-.117c-.374-.194-.623-.516-.885-.826a10.732 10.732 0 00-.647-.713c-.23-.226-.478-.434-.727-.64-.136-.112-.17-.226-.125-.396a3.469 3.469 0 00-.005-1.706 1.917 1.917 0 00-.162-.447c-.11-.207-.281-.359-.552-.457.027.087.038.13.053.17.08.221.17.439.24.662.155.492.217.99.067 1.495-.022.074-.066.142-.107.227-.117-.056-.208-.096-.297-.141l-2.004-1.019a1.561 1.561 0 00-1.02-.152m3.844-3.026c.793-.058 1.537.082 2.27.261.108.027.21.069.31.11.293.118.581.241.875.358.121.049.252.09.414.008-.065-.037-.117-.072-.176-.1-.171-.08-.344-.158-.519-.234a7.116 7.116 0 00-3.312-.607c-.351.021-.672.11-.993.2.06.11.13.15.294.138.212-.015.434.002.624-.093a.617.617 0 01.213-.04m-3.012 1.226c.119.03.244.04.363.02.266-.043.52-.005.766.138.156.09.306.196.463.28.085.044.18.147.289-.033-.064-.077-.118-.162-.185-.219-.352-.296-.743-.45-1.143-.552-.757-.195-1.48-.006-2.177.411-.17.103-.354.184-.495.383.086.175.187.134.292.094.42-.163.84-.322 1.26-.485a.902.902 0 01.567-.037M3.088 17c.084-.018.186-.034.242-.103.11-.138.243-.199.378-.268.121-.063.241-.134.35-.224.11-.09.39-.513.405-.526.451-.402.992-.511 1.537-.775-.183-.156-.328-.106-.463-.047-.447.197-.891.408-1.337.612-.118.054-.185.159-.241.305-.05.13-.132.25-.22.341-.1.105-.221.18-.337.259-.116.078-.239.14-.355.218-.025.017-.054.085-.046.11.015.043.061.103.087.098m1.639 5.134c.371.049.746.06 1.12.08.077.004.155-.02.153-.142-.176-.093-1.798-.33-2-.28.068.061.113.125.17.148.183.075.368.168.557.194m4.77 3.758c-.164.025-.333.011-.497.089.062.174.072.186.162.18.147-.011.294-.019.44-.04a.893.893 0 00.255-.078c.052-.025.096-.085.143-.13l-.02-.075c-.16.018-.323.03-.483.054m-.335-.722c.23-.034.459-.075.687-.126.053-.011.1-.07.151-.107a5.687 5.687 0 01-.015-.058c-.34-.111-.665-.031-.985.122.007.162.086.18.162.17M8 21.834c-.33.031-.667-.03-1 .158.349.295.912.197 1-.158m4 3.112c-.338-.056-.674-.074-1 .067.343.145.674.084 1-.067m5.117 8.131l-.001-.187c-.117.014-.247.005-.232.129.015.123.131.097.233.058"/><path d="M14.09 19.038l-.145-.116a5.846 5.846 0 01-.035.052l.151.104.029-.04m-9.165-2.046l.132.054.018-.05-.138-.042-.012.038"/></g></svg>